<svg width="10" height="10" viewBox="0 0 10 10" fill="currentColor" xmlns="http://www.w3.org/2000/svg">
<path d="M5 0C3.67392 0 2.40215 0.526784 1.46447 1.46447C0.526784 2.40215 0 3.67392 0 5C0 6.32608 0.526784 7.59785 1.46447 8.53553C2.40215 9.47322 3.67392 10 5 10C6.32608 10 7.59785 9.47322 8.53553 8.53553C9.47322 7.59785 10 6.32608 10 5C10 3.67392 9.47322 2.40215 8.53553 1.46447C7.59785 0.526784 6.32608 0 5 0ZM3.05125 1.08187C3.05864 1.15076 3.08954 1.21499 3.13875 1.26375C3.17287 1.29783 3.19841 1.33953 3.21326 1.38541C3.2281 1.43129 3.23184 1.48005 3.22414 1.52766C3.21645 1.57526 3.19756 1.62036 3.16902 1.65924C3.14048 1.69811 3.10312 1.72965 3.06 1.75125L2.87813 1.8425C2.83467 1.86411 2.79499 1.89261 2.76062 1.92687L2.46063 2.22687C2.3786 2.30896 2.27534 2.36658 2.16242 2.39329C2.04949 2.42001 1.93136 2.41475 1.82125 2.37813L1.80875 2.37375C1.71581 2.34281 1.61688 2.33425 1.52 2.34875C1.92696 1.81505 2.45077 1.38167 3.05125 1.08187ZM1.17625 7.12812L1.71375 6.99313C1.84902 6.95939 1.96913 6.88139 2.05497 6.77154C2.14081 6.66169 2.18746 6.52629 2.1875 6.38687V6.27187C2.18748 6.169 2.21286 6.06772 2.26138 5.97701C2.3099 5.8863 2.38005 5.80897 2.46562 5.75188L2.49062 5.73563C2.56764 5.68432 2.63229 5.61655 2.67993 5.53722C2.72756 5.45789 2.75699 5.36896 2.76608 5.27687C2.77517 5.18479 2.7637 5.09183 2.73249 5.00471C2.70128 4.9176 2.65112 4.8385 2.58563 4.77313L1.95063 4.13812C1.90351 4.09198 1.87578 4.02959 1.87312 3.96369C1.87046 3.89779 1.89307 3.83337 1.93632 3.78358C1.97956 3.73379 2.04019 3.70239 2.10581 3.6958C2.17143 3.68921 2.23709 3.70793 2.28938 3.74813L2.97062 4.25938C3.01703 4.2941 3.07217 4.31524 3.1299 4.32043C3.18762 4.32561 3.24565 4.31465 3.2975 4.28875C3.34514 4.26488 3.3981 4.25358 3.45134 4.25594C3.50458 4.2583 3.55633 4.27424 3.60167 4.30223C3.64701 4.33023 3.68445 4.36935 3.71041 4.41589C3.73637 4.46243 3.75 4.51483 3.75 4.56813V4.8525C3.74996 4.94882 3.77845 5.04299 3.83188 5.12312L4.32875 5.86812C4.3594 5.91428 4.38378 5.9643 4.40125 6.01687L4.8575 7.38563C4.89907 7.51001 4.97873 7.61817 5.08517 7.69478C5.19162 7.77139 5.31947 7.81258 5.45062 7.8125H5.48688C5.6181 7.81253 5.74601 7.77126 5.85247 7.69453C5.95893 7.6178 6.03853 7.5095 6.08 7.385L6.53625 6.01687C6.55372 5.9643 6.5781 5.91428 6.60875 5.86812L7.10312 5.12625C7.12906 5.08738 7.1642 5.05552 7.20541 5.03349C7.24663 5.01147 7.29264 4.99996 7.33938 5C7.43938 5 7.53063 5.0525 7.58438 5.13625C7.9325 5.68313 8.60312 6.5625 9.0625 6.5625C9.07084 6.56257 9.07918 6.56236 9.0875 6.56187C8.78984 7.33959 8.2765 8.01625 7.60773 8.51242C6.93897 9.0086 6.14254 9.3037 5.31193 9.36309C4.48132 9.42247 3.65101 9.24368 2.91846 8.84769C2.18591 8.4517 1.58152 7.85558 1.17625 7.12812Z" fill="currentColor"/>
</svg>
