<svg xmlns="http://www.w3.org/2000/svg" width="25" height="25" viewBox="0 0 25 25" class="h-[20px] w-[20px] group-hover:text-black-800"><path fill="currentColor" d="M16.416.285A26.8 26.8 0 0 1 20.373 0c.634 0 1.267.022 1.883.066a2.9 2.9 0 0 1 2.676 2.677 26.935 26.935 0 0 1-.218 5.842ZM.287 16.412a26.935 26.935 0 0 0-.218 5.846 2.9 2.9 0 0 0 2.676 2.677c.615.044 1.249.066 1.883.066a26.813 26.813 0 0 0 3.957-.289Zm24.114-6.159a19.75 19.75 0 0 1-4.8 9.323l-.033.033a19.723 19.723 0 0 1-9.326 4.793L.601 14.748a19.75 19.75 0 0 1 4.8-9.323l.033-.033A19.723 19.723 0 0 1 14.752.598Zm-6.73.054-1-1 .776-.776a.7.7 0 1 0-.987-.987l-.776.776-1-1a.7.7 0 1 0-.987.987l1 1-1.14 1.14-1-1a.7.7 0 0 0-.987.987l1 1-1.14 1.14-1-1a.7.7 0 1 0-.987.987l1 1-1.14 1.14-1-1a.7.7 0 0 0-.987.987l1 1-.776.776a.7.7 0 0 0 .987.987l.776-.776 1 1a.7.7 0 0 0 .987-.987l-1-1 1.14-1.14 1 1a.7.7 0 0 0 .987-.987l-1-1 1.14-1.14 1 1a.7.7 0 0 0 .987-.987l-1-1 1.14-1.14 1 1a.7.7 0 1 0 .986-.987Z"></path></svg>