<svg width="68" height="68" viewBox="0 0 68 68" fill="none" xmlns="http://www.w3.org/2000/svg">
<rect width="68" height="68" rx="18" fill="white"/>
<path d="M11.4678 29.5854L8 38.8925H10.0373L11.017 36.1767H13.8346L14.8403 38.8925H16.921L13.4445 29.5854H11.4678ZM13.3404 34.6281H11.5198L12.2828 32.5793C12.3348 32.4363 12.3868 32.3013 12.4301 32.1663C12.4822 32.3093 12.5255 32.4522 12.5862 32.6031L13.3404 34.6281Z" fill="#111315"/>
<path d="M20.3451 34.6527C19.4088 34.3112 19.3047 34.1524 19.3047 33.9062C19.3047 33.5886 19.5908 33.398 20.059 33.398C20.6052 33.398 21.0386 33.5965 21.2467 33.7156L21.6455 33.9459L22.1743 32.4689L21.9316 32.3259C21.4721 32.048 20.7785 31.8892 20.0763 31.8892C18.5071 31.8892 17.3714 32.7945 17.3714 34.0492C17.3714 35.2006 18.4811 35.8121 19.4174 36.1218C20.3451 36.4395 20.4231 36.6618 20.4231 36.9318C20.4231 37.4401 19.8422 37.5115 19.4955 37.5115C18.9579 37.5115 18.3771 37.3051 18.0476 37.1224L17.6488 36.908L17.1287 38.4089L17.3801 38.5439C17.9523 38.8536 18.7152 39.0283 19.4694 39.0283C21.1947 39.0283 22.3564 38.1389 22.3564 36.8206C22.3564 35.4945 21.2034 34.9465 20.3451 34.6527Z" fill="#111315"/>
<path d="M25.4178 30.4106L23.4758 30.9506V32.0148H22.4268V33.5474H23.4758V36.5889C23.4758 37.4386 23.6578 38.0421 24.048 38.4471C24.4294 38.8204 24.9929 39.0348 25.6518 39.0348C26.2414 39.0348 26.6662 38.9236 26.8656 38.8601L27.1257 38.7807L27.0216 37.2401L26.5708 37.3592C26.4408 37.391 26.2847 37.4227 25.9639 37.4227C25.7299 37.4227 25.4091 37.4227 25.4091 36.5571V33.5474H27.169V32.0148H25.4178V30.4106Z" fill="#111315"/>
<path d="M31.9097 31.9518L31.5542 31.9042C31.4502 31.8883 31.3462 31.8804 31.2074 31.8804C30.5919 31.8804 30.0284 32.1107 29.5949 32.5157L29.5689 32.0154H27.7483L27.7743 32.3727C27.809 32.9048 27.835 33.5083 27.835 34.2866V38.8925H29.803V35.2554C29.803 35.0886 29.8203 34.9139 29.8377 34.7948C29.985 34.0801 30.4705 33.6354 31.1294 33.6354C31.2855 33.6354 31.3808 33.6354 31.4675 33.6513L31.9183 33.7386L31.9097 31.9518Z" fill="#111315"/>
<path d="M35.4911 31.8892C33.2977 31.8892 31.7632 33.3742 31.7632 35.5103C31.7632 37.5909 33.2457 39.0362 35.3784 39.0362C37.1817 39.0362 39.115 37.9007 39.115 35.4071C39.1236 33.3345 37.6325 31.8892 35.4911 31.8892ZM37.1296 35.4468C37.1296 36.6459 36.4187 37.5195 35.4477 37.5195C34.4768 37.5195 33.7745 36.6539 33.7745 35.4786C33.7745 34.7162 34.13 33.4218 35.4738 33.4218C36.7829 33.4059 37.1296 34.7401 37.1296 35.4468Z" fill="#111315"/>
<path d="M45.5738 30.3201C44.9322 29.7881 43.9526 29.5181 42.6868 29.5181C41.8372 29.5181 41.0309 29.5737 40.2854 29.6848L39.9819 29.7325V38.8887H41.9326V35.4899C42.132 35.5057 42.3401 35.5137 42.5481 35.5137C43.8659 35.5137 44.9843 35.1404 45.6952 34.4654C46.25 33.9413 46.5274 33.2425 46.5274 32.3848C46.5188 31.551 46.1807 30.8204 45.5738 30.3201ZM44.5681 32.4404C44.5681 33.7428 43.3197 33.9334 42.5741 33.9334C42.3227 33.9334 42.1146 33.9254 41.9413 33.9016V31.1063C42.132 31.0825 42.3921 31.0745 42.7215 31.0745C43.5538 31.0745 44.5681 31.3128 44.5681 32.4404Z" fill="#111315"/>
<path d="M52.5009 37.0668V34.748C52.5009 32.8977 51.4519 31.8892 49.5619 31.8892C48.6863 31.8892 47.7673 32.1115 47.1345 32.4768L46.8831 32.6198L47.4119 34.0492L47.8107 33.803C48.2182 33.5489 48.8077 33.398 49.3799 33.398C49.7787 33.39 50.0648 33.4774 50.2555 33.6442C50.4116 33.7871 50.5069 34.0015 50.5416 34.2715C49.0071 34.3112 47.8887 34.6448 47.1952 35.2721C46.7183 35.7089 46.4756 36.2568 46.4756 36.9159C46.4756 37.9721 47.3079 39.0362 48.9204 39.0362C49.6053 39.0362 50.2468 38.8377 50.7497 38.4883L50.8017 38.9012H52.6657L52.5963 38.5121C52.5356 38.1309 52.5009 37.6465 52.5009 37.0668ZM49.2238 37.5274C48.9291 37.5274 48.4436 37.4321 48.4436 36.7889C48.4436 36.5427 48.5216 36.3442 48.695 36.1933C48.9204 35.9868 49.4319 35.7486 50.5763 35.7327V36.4712C50.5763 36.5268 50.5676 36.6221 50.5416 36.7174C50.4029 37.0906 49.9781 37.5274 49.2238 37.5274Z" fill="#111315"/>
<path d="M57.9199 32.0146L56.4894 35.882C56.4548 35.9773 56.4201 36.0805 56.3854 36.1758C56.3507 36.0805 56.3161 35.9853 56.2727 35.8979L54.7122 32.0146H52.5708L55.2584 38.185L55.267 38.2008C55.3104 38.2803 55.3277 38.3279 55.3277 38.3438C55.3104 38.3756 55.2844 38.4391 55.267 38.4788C55.033 38.9314 54.6862 39.3603 54.3394 39.6144L54.3307 39.6223C53.9406 39.932 53.5418 40.067 53.3771 40.1067L53.0303 40.21L53.5331 41.7506L53.8539 41.695C54.0533 41.6632 54.7469 41.5123 55.5445 40.9009C56.4981 40.1226 57.131 38.8917 57.9633 36.8905L60.0006 32.0146H57.9199V32.0146Z" fill="#111315"/>
<path d="M15.1786 32.1406C16.4444 30.9574 18.5944 30.2506 20.9265 30.2506C21.8368 30.2506 22.7211 30.3538 23.5621 30.5682L23.6314 30.5841L25.1226 30.1712L24.455 29.9329C23.1806 29.4882 21.7155 29.25 20.207 29.25C18.0136 29.25 15.9675 29.7344 14.4504 30.6159L14.2856 30.7112L14.9185 32.4027L15.1786 32.1406Z" fill="#20D5B3"/>
</svg>
