<svg xmlns="http://www.w3.org/2000/svg" width="221.519" height="216.861" viewBox="0 0 221.519 216.861" class="h-[20px] w-[20px] group-hover:text-black-800"><g fill="currentColor" data-name="astralians ruels"><path d="M0 116.671c2.879-5.769 5.687-11.4 8.5-17.031 4.484-8.972 8.948-17.955 13.5-26.895a5.906 5.906 0 0 1 2.233-2.37c14.712-8.193 30.222-13.986 47.159-15.368a49.504 49.504 0 0 1 3.982-.179q44.478-.015 88.956-.008h1.847a47.481 47.481 0 0 1-.871 13.079c-2.431 10.177-8.963 15.791-19.322 16.889-13.016 1.38-26.02 2.874-39.023 4.37-.517.059-1.333.577-1.406.989-1.221 6.854-2.347 13.725-3.523 20.77 5.528 1.39 10.916 2.752 16.309 4.1 6.054 1.512 12.114 3 18.163 4.53a13.077 13.077 0 0 1 2.6.969q23.8 11.86 47.574 23.756c.527.263 1.03.574 1.628.909l-4.406 8.8c-.712-.335-1.35-.619-1.975-.931-14.254-7.116-28.577-14.1-42.726-21.42-5.486-2.837-11.405-3.876-17.222-5.4-10.016-2.618-20.08-5.057-30.123-7.572-.313-.078-.621-.174-1.162-.327.634-3.841 1.249-7.617 1.881-11.391 1.392-8.32 2.839-16.631 4.147-24.963.239-1.526.9-1.9 2.289-2.046q23.782-2.556 47.552-5.219a10.483 10.483 0 0 0 9-9.924h-2.332c-23.934 0-47.872.225-71.8-.084a98.054 98.054 0 0 0-40.974 8.682c-9.848 4.3-9.835 4.316-14.641 13.954q-5.6 11.235-11.233 22.456c-.35.7-.663 1.417-1 2.145 5.033 1.387 10.571-.85 14.306-5.785 4.973-6.572 9.872-13.2 14.872-19.75a3.982 3.982 0 0 1 2.33-1.527c6.729-.8 13.476-1.455 20.219-2.144.457-.047.923-.006 1.683-.006-.307 3.037-.595 6.036-.916 9.031-.993 9.249-2.065 18.49-2.979 27.747-.72 7.3 2.815 11.37 10.063 12.3 16.47 2.123 32.924 4.375 49.385 6.574 1.515.2 3.027.429 4.547.581a31.047 31.047 0 0 1 9.921 2.656c13.111 5.963 26.3 11.746 39.465 17.6.48.213.951.446 1.651.775l-4.007 9.077c-3.692-1.634-7.258-3.208-10.82-4.791-9.948-4.422-19.939-8.752-29.818-13.324-3.544-1.64-7.25-2-10.987-2.5-6.452-.865-12.9-1.753-19.352-2.622-.52-.07-1.05-.069-1.83-.116v2.414c0 10.239.03 20.477-.039 30.715a7.623 7.623 0 0 1-.9 3.552c-6.1 10.82-12.292 21.593-18.459 32.378-.361.632-.743 1.251-1.232 2.072l-8.571-4.9c.418-.788.76-1.479 1.143-2.148q8.6-15.055 17.194-30.115a5.638 5.638 0 0 0 .856-2.573c.057-10.571.037-21.142.032-31.713 0-.322-.058-.643-.105-1.129l-14.3-1.913c.051.818.047 1.45.137 2.069 1.393 9.6 2.838 19.187 4.151 28.8a6.924 6.924 0 0 1-.586 3.779c-6.221 12.632-12.54 25.217-18.836 37.812-.264.528-.564 1.037-.962 1.766l-8.854-4.42c2.236-4.48 4.4-8.809 6.557-13.138 3.917-7.844 7.873-15.669 11.709-23.553a6.989 6.989 0 0 0 .662-3.77c-1.349-9.939-2.814-19.862-4.318-29.778a2.646 2.646 0 0 0-1.255-1.715c-9.4-4.592-13.428-12.2-12.122-22.591.97-7.712 1.694-15.454 2.521-23.184a2.648 2.648 0 0 0-.162-.609c-1.981.189-4.019.3-6.021.631-.52.086-.988.817-1.375 1.33-4.085 5.41-8.131 10.849-12.222 16.255-8.092 10.695-20.549 13.286-32.226 6.727-1.208-.664-2.409-1.348-3.731-2.097Z" data-name="Path 68"></path><path d="M116.244 24.909a24.906 24.906 0 0 1-24.956 24.944 24.994 24.994 0 0 1-24.886-25.062A24.882 24.882 0 0 1 91.302 0a24.788 24.788 0 0 1 24.942 24.909Zm-9.978 0A14.839 14.839 0 0 0 91.353 9.978a14.917 14.917 0 0 0-14.962 14.917 15.007 15.007 0 0 0 14.948 14.972 14.938 14.938 0 0 0 14.927-14.956Z" data-name="Path 69"></path><path d="M220.987 94.054c-.007 16.636-12.514 31.985-28.735 35.105a26.21 26.21 0 0 1-6.539.256 10.054 10.054 0 0 1-8.962-6.317c-2.672-5.889-2.561-12.007-1.205-18.165 3.034-13.771 14.605-25.141 28.137-27.546a24.96 24.96 0 0 1 6.543-.2 9.677 9.677 0 0 1 8.728 6.592 101.2 101.2 0 0 1 2.565 10.141Zm-36.436 18.376c.131 1.251.174 2.52.41 3.751.647 3.37 1.133 3.7 4.513 3.323 12.272-1.354 23.2-15.607 21.413-27.917-.685-4.708-1.6-5.33-6.293-4.256-11.139 2.551-19.851 13.505-20.042 25.099Z" data-name="Path 70"></path></g></svg>