<svg xmlns="http://www.w3.org/2000/svg" width="258.294" height="258.019" viewBox="0 0 258.294 258.019" class="h-[20px] w-[20px] group-hover:text-black-800"><path fill="currentColor" d="M47.189 133.355c3.143.546 7.351.835 11.249 2.09 3.234 1.039 6.1 3.212 9.136 4.885l2.6-14.416c1.849-.316 6.193-1.833 10.415-1.543 3.77.26 7.4 2.512 11.1 3.886l-1.247-14.2 6.5-5.485c1.049-.278 1.608-.621 1.865-.465 17.691 10.7 16.287 3.566 9.657-9.9-.746-1.513 3.678-5.575 6.22-9.184 2.079 1.076 3.783 2.534 5.647 2.777 2.64.345 5.4-.2 8.108-.372a67.371 67.371 0 0 0-.9-7.335c-1.126-4.906-2.512-9.751-3.555-13.731 7.961-1.493 12.21-2.29 16.46-3.09-1.883-2.994-4.355-5.781-5.487-9.034-1.271-3.644-1.327-7.71-1.758-10.577l14.518-4.688c-2.589-3-5.955-5.628-7.56-9.082-1.808-3.887-2.028-8.51-2.664-11.53l14.27-6.728c-3.574-2.473-7.394-4.664-10.612-7.531-1.627-1.447-2.159-4.117-3.315-6.5 55.481-8.32 135.716 74.7 117.926 120.478l-11.343-13.125-6.1 14.6c-3.277-.813-7.857-1.229-11.7-3.123-3.43-1.689-6.049-5.021-9.026-7.627l-4.425 14.508c-2.686-.232-6.814.094-10.441-1.095-3.561-1.166-6.616-3.874-9.893-5.907l-1.688 14.81c-2.745.543-6.832 2.264-10.7 1.867-4.072-.415-7.935-2.851-11.886-4.4l1.782 14.225-6.592 5.449c-14.735 3.893-14.735 3.893-10.771 10.128l-6.255 8.018-14.229-1.793c1.236 3.666 3.1 7.256 3.536 11.015.49 4.167-.318 8.491-.492 11.521l-15.308 1.79c2.033 3.3 4.765 6.377 5.91 9.96 1.169 3.662.781 7.822.958 10.2-6.156 2.027-10.3 3.389-14.435 4.753 2.654 2.968 5.947 5.589 7.782 9 1.881 3.491 2.333 7.75 3.347 11.442l-14.933 6.41q6.561 5.646 13.119 11.3C73.459 271.194-2.988 197.749 1.095 135.037c3.908 5.4 5.7 8.153 7.785 10.673 1.827 2.213 3.975 4.157 5.982 6.22 1.594-2.278 3.17-4.574 4.791-6.835 1.76-2.456 3.189-6.359 5.444-6.929 2.667-.676 6.306 1.1 9.085 2.617 3.368 1.838 6.276 4.516 9.382 6.83 1.016-3.986 2.028-7.967 3.625-14.258Z" data-name="Path 38"></path><path fill="currentColor" d="m126.023 2.763-11.241 8.3c2.873 2.157 6.175 3.935 8.475 6.586 1.7 1.963 2.108 5.059 2.806 6.905l-13.13 5.516c2.365 2.717 5.318 5.135 6.923 8.247 1.455 2.826 1.439 6.4 2.017 9.377l-13.82 1.322c1.728 3.413 3.962 6.677 5.029 10.286.926 3.124.53 6.639.712 9.871l-13.82-1.544c1.051 3.615 2.761 7.192 2.962 10.854.179 3.29-1.3 6.671-1.857 9.17l-16.722-2.116c1.121 4.331 2.245 8.662 3.906 15.075-2.876.7-6.5 2.4-10.019 2.2-3.352-.189-6.594-2.362-9.882-3.661l-.7 15.01c-2.833-.941-6.522-2.108-10.163-3.406-2.606-.925-5.15-2.025-7.72-3.049-.629 2.656-1.164 5.336-1.918 7.955-.6 2.088-1.268 5.7-2.252 5.822a12.922 12.922 0 0 1-7.566-1.8c-3.052-1.782-5.615-4.4-8.389-6.656-1.485 3.688-2.969 7.38-5.027 12.5-1.129-.182-4.588.249-6.455-1.273-3.012-2.458-4.976-6.2-7.383-9.4l-7.5 10.506c-9.216-9.832 1.817-48.458 21.768-74.854 25.38-33.573 79.085-59.171 100.966-47.743Z" data-name="Path 39"></path><path fill="currentColor" d="m146.605 193.082 14.706-.885c-.945-3.021-2.4-5.99-2.7-9.073-.345-3.565.332-7.231.527-10.289 6.98 1.226 11.669 2.05 16.362 2.871l-2.285-14.645 4.751-4.226 13.943 4.748 1.327-14.228c1.469.092 5.077-.242 8.336.673 3.309.93 6.271 3.092 9.387 4.712.7-3.878 1.41-7.761 2.664-14.663 3.154 1.6 6.53 3.185 9.781 5 2.466 1.375 4.767 3.045 7.143 4.58 1.158-2.5 2.172-5.087 3.521-7.487 1.049-1.865 2.207-4.329 3.9-4.957 1.257-.469 3.772 1.244 5.155 2.576 2.542 2.45 4.666 5.337 6.961 8.042 2.119-3.294 4.24-6.585 6.268-9.736 7.571 49.488-50.8 124.748-121.387 121.02 7.584-4.32 21.4-8.15 1.891-14.421-1.337-.43-1.53-4.414-2.255-6.741 7.667-3.221 24.751-2.992 5.094-14.415-1.383-.8-.182-6.059-.182-8.188l13.1-2.164c-1.565-3.136-3.51-6.148-4.588-9.442-1.008-3.066-1.085-6.434-1.42-8.662Z" data-name="Path 40"></path></svg>