<svg xmlns="http://www.w3.org/2000/svg" width="25" height="25" data-name="Group 248" viewBox="0 0 25 25" class="h-[20px] w-[20px] group-hover:text-black-800"><g data-name="Group 145"><g data-name="Group 144"><path fill="currentColor" d="M22.325 4.803a10.884 10.884 0 0 0-3.114 6.935H25a12.343 12.343 0 0 0-2.675-6.935Z" data-name="Path 127"></path></g></g><g data-name="Group 147"><g data-name="Group 146"><path fill="currentColor" d="M13.299 0v11.7h4.455a12.339 12.339 0 0 1 3.6-8.033A12.55 12.55 0 0 0 13.299 0Z" data-name="Path 128"></path></g></g><g data-name="Group 149"><g data-name="Group 148"><path fill="currentColor" d="M19.211 13.262a11.009 11.009 0 0 0 3.114 6.984A12.493 12.493 0 0 0 25 13.262Z" data-name="Path 129"></path></g></g><g data-name="Group 151"><g data-name="Group 150"><path fill="currentColor" d="M3.641 3.669a12.339 12.339 0 0 1 3.6 8.031h4.46V0a12.55 12.55 0 0 0-8.06 3.669Z" data-name="Path 130"></path></g></g><g data-name="Group 153"><g data-name="Group 152"><path fill="currentColor" d="M17.754 13.299h-4.455v11.7a12.5 12.5 0 0 0 8.06-3.62 12.462 12.462 0 0 1-3.605-8.08Z" data-name="Path 131"></path></g></g><g data-name="Group 155"><g data-name="Group 154"><path fill="currentColor" d="M7.241 13.299a12.462 12.462 0 0 1-3.6 8.081 12.5 12.5 0 0 0 8.06 3.62V13.299Z" data-name="Path 132"></path></g></g><g data-name="Group 157"><g data-name="Group 156"><path fill="currentColor" d="M0 13.262a12.493 12.493 0 0 0 2.676 6.984 11.009 11.009 0 0 0 3.113-6.984Z" data-name="Path 133"></path></g></g><g data-name="Group 159"><g data-name="Group 158"><path fill="currentColor" d="M2.675 4.803A12.344 12.344 0 0 0 0 11.738h5.789a10.883 10.883 0 0 0-3.114-6.935Z" data-name="Path 134"></path></g></g></svg>