<svg xmlns="http://www.w3.org/2000/svg" width="25" height="24.574" data-name="023---Cricket" viewBox="0 0 25 24.574" class="h-[20px] w-[20px] group-hover:text-black-800"><path fill="currentColor" d="m24.875 3.779-3.3 3.3-1.5-1.5 3.3-3.33a.424.424 0 0 1 .6 0l.9.932a.424.424 0 0 1 0 .6Z"></path><path fill="currentColor" d="M12.287 0v.847h-.424a1.271 1.271 0 0 0-1.271 1.271h-.847A1.271 1.271 0 0 0 8.474.847H8.05V.424A.424.424 0 0 1 8.474 0ZM6.402 6.55a3.262 3.262 0 0 0-.356-.555l-4.711 4.707a3.36 3.36 0 0 0 .555.36ZM4.885 5.038.373 9.548a3.5 3.5 0 0 0 .36.559l4.712-4.709a3.389 3.389 0 0 0-.559-.36ZM4 4.725a2.923 2.923 0 0 0-.611-.064A3.466 3.466 0 0 0 0 8.051a2.923 2.923 0 0 0 .064.61ZM2.775 11.376a2.966 2.966 0 0 0 .614.064 3.466 3.466 0 0 0 3.389-3.39 3.249 3.249 0 0 0-.064-.614ZM16.524.424v.423H16.1a1.271 1.271 0 0 0-1.271 1.271h-.847A1.271 1.271 0 0 0 12.711.847h-.424V0H16.1a.424.424 0 0 1 .424.424ZM17.371 2.119v3.169l-1.695 1.695V2.119a.424.424 0 0 1 .424-.424h.847a.424.424 0 0 1 .424.424ZM17.371 14.274v9.876a.424.424 0 0 1-.424.424H16.1a.424.424 0 0 1-.424-.424v-8.181ZM13.135 2.119v7.393l-1.695 1.695V2.119a.424.424 0 0 1 .424-.424h.847a.424.424 0 0 1 .424.424ZM13.135 18.511v5.639a.424.424 0 0 1-.424.424h-.847a.424.424 0 0 1-.424-.424v-3.944ZM8.898 2.119v11.617l-1.695 1.695V2.119a.424.424 0 0 1 .424-.424h.847a.424.424 0 0 1 .424.424ZM8.897 22.748v1.4a.424.424 0 0 1-.424.424h-.847a.424.424 0 0 1-.356-.2ZM21.362 9.093 6.004 24.447a.424.424 0 0 1-.6 0l-2.729-2.7a.424.424 0 0 1 0-.6L18.066 5.793a.424.424 0 0 1 .491-.081l.932.466 1.5 1.5.466.924a.424.424 0 0 1-.093.491Z" data-name="Shape"></path><path fill="currentColor" d="M21.362 9.093 6.004 24.447a.424.424 0 0 1-.6 0l-2.729-2.7a.424.424 0 0 1 0-.6L18.066 5.793a.424.424 0 0 1 .491-.081l.932.466 1.5 1.5.466.924a.424.424 0 0 1-.093.491Z" data-name="Shape"></path></svg>