<svg xmlns="http://www.w3.org/2000/svg" width="221.519" height="222.105" viewBox="0 0 221.519 222.105" class="h-[20px] w-[20px] group-hover:text-black-800"><g fill="currentColor"><path d="M154.92 29.46c-5.194 5.008-9.782 9.789-14.823 14.033-1.212 1.02-4.179.892-5.915.21-32.012-12.579-67.454-4.616-90.454 20.492A80.984 80.984 0 0 0 32.456 157.5c16.53 30.2 50.839 46.973 84.043 41.083 35.086-6.224 61.565-32.881 66.88-67.21a78.094 78.094 0 0 0-5.258-43.59c-1.294-3.014-.75-4.729 1.435-6.9 4.408-4.37 8.5-9.056 12.916-13.815 21.9 34.776 21.325 92.917-21.539 129.991-40.271 34.841-101.061 33.128-139.216-3.879-38.789-37.621-42.5-98.185-8.373-139.81C60.05 8.594 119.093 7.346 154.92 29.46Z" data-name="Path 41"></path><path d="M123.035 61.423c-5.453 5.247-10.6 10.44-16.061 15.266-1.241 1.1-3.588 1.186-5.451 1.294-20.789 1.195-37.74 17.941-38.65 38.283-.965 21.593 13.492 39.37 34.8 42.794 20.1 3.23 39.922-9.99 45.242-30.169.136-.517.312-1.03.4-1.556.662-4 .079-8.9 2.215-11.806 4.362-5.943 10.182-10.815 15.6-16.334 10.181 24.324-.884 55.838-24.38 71.037a61.305 61.305 0 0 1-78.328-9.931 61.474 61.474 0 0 1-3.906-78.464c15.899-21.056 47.868-30.876 68.519-20.414Z" data-name="Path 42"></path><path d="M196.524 0c.98 7.073 1.989 12.7 2.458 18.371.274 3.316 1.456 4.624 4.816 4.9 5.684.464 11.326 1.448 17.721 2.312-1.1 1.372-1.827 2.454-2.727 3.36-7.812 7.861-15.746 15.6-23.433 23.585-2.26 2.348-4.485 3.318-7.55 2.318-3.451-1.126-5.9.055-8.453 2.644-17.324 17.56-34.877 34.9-52.17 52.487a10.222 10.222 0 0 0-2.605 6.808c.467 12.723-8.468 22.889-20.8 23.147a21.3 21.3 0 0 1-21.425-22c.453-12.441 11.178-21.335 24.088-20.242a7.153 7.153 0 0 0 5.009-1.807q27.252-26.97 54.183-54.265a7.867 7.867 0 0 0 1.715-6.033c-.74-4.155.39-6.952 3.437-9.861 8.494-8.107 16.639-16.58 25.736-25.724Z" data-name="Path 43"></path></g></svg>