<svg xmlns="http://www.w3.org/2000/svg" width="25" height="25" data-name="Group 244" viewBox="0 0 25 25" class="h-[20px] w-[20px] group-hover:text-black-800"><g data-name="Group 243" transform="translate(.609 .609)"><circle cx="11.891" cy="11.891" r="11.891" fill="#fff" data-name="Ellipse 17"></circle></g><g data-name="Group 160"><path fill="currentColor" d="M12.5 0A12.5 12.5 0 1 0 25 12.5 12.515 12.515 0 0 0 12.5 0Zm.794 4.061 3.214-1.728a10.989 10.989 0 0 1 4.514 3.328L20.256 9.2 17.8 10.4l-4.506-3.289ZM8.519 2.323l3.214 1.734v3.054L7.225 10.4 4.761 9.2 4 5.638a10.973 10.973 0 0 1 4.519-3.315ZM3.484 18.678a10.865 10.865 0 0 1-1.867-5.116l2.645-2.873 2.413 1.18 1.817 5.161-1.536 1.84Zm11.8 4.386a10.736 10.736 0 0 1-6.128-.153l-.983-3.059 1.567-1.883h5.522l1.538 1.822Zm2.736-4.247-1.511-1.789 1.842-5.159 2.4-1.177 2.63 2.872a10.835 10.835 0 0 1-1.477 4.486Z" data-name="Path 138"></path></g></svg>