<svg xmlns="http://www.w3.org/2000/svg" width="221.519" height="230.406" data-name="ice hockey" viewBox="0 0 221.519 230.406" class="h-[20px] w-[20px] group-hover:text-black-800"><path fill="currentColor" d="M117.089 230.406c-3.821-.981-7.383-2.41-9.642-5.906a16.593 16.593 0 0 1-1.73-3.377 4.117 4.117 0 0 1 2.262-5.228 4.124 4.124 0 0 1 5.29 1.62c2.944 4.3 3.841 4.7 9.609 4.064-.89-.845-1.618-1.545-2.355-2.237q-25.089-23.571-50.173-47.148c-5.288-4.982-6.274-11.394-2.752-17.033a17.826 17.826 0 0 1 3.29-3.671q17.086-15.487 34.182-30.963c.991-.893 1.206-1.346.1-2.343q-4.429-3.988-8.625-8.232c-1.086-1.1-1.661-1.094-2.751.046-8.97 9.376-18.031 18.664-27.025 28.017-2.188 2.275-4.548 4.151-7.838 4.336-1.407.079-1.58 1.225-2.007 2.109q-12.886 26.65-25.717 53.326a48 48 0 0 0-3.168 7.617c-1.01 3.544-4.021 4.994-7.425 5.128-5.242.206-10.5.187-15.746.016-4.479-.147-6.2-3.592-3.734-7.329a14.712 14.712 0 0 1 11.266-6.535 59.19 59.19 0 0 1 8.315-.007 1.82 1.82 0 0 0 2.05-1.2q12.961-26.986 26.027-53.921c.524-1.081.318-1.53-.622-2.126a10.385 10.385 0 0 1-4.865-8.87c-.652-16.786-1.2-33.576-1.881-50.361a12.959 12.959 0 0 1 3.865-9.908Q61.676 52.962 77.96 35.536c5.19-5.521 11.588-5.644 16.925-.322 13.914 13.877 27.913 27.67 41.675 41.7a28.806 28.806 0 0 1 8.419 20.487c.084 12.45.02 24.9.026 37.352a9.1 9.1 0 0 0 .314 2.877c1.9 5.907 3.734 11.833 5.562 17.762a4.966 4.966 0 0 0 1.627 2.338c16.93 14.7 33.737 29.542 50.815 44.066 6.414 5.458 7.86 13.358 3.044 19.399-.068.085-.008.272-.008.619 3.638 0 7.282-.065 10.922.023a4.1 4.1 0 0 1 4.192 3.629c.286 2.13-.744 3.668-3.035 4.532a5.987 5.987 0 0 1-2.441.166c-9.811.014-19.621 0-29.432.02a4.576 4.576 0 0 0-2.421.221h-.45c-.7-.469-1.483-.126-2.22-.232a12.541 12.541 0 0 1-11.518-8.162c-.934-2.743.024-5.5 2.288-6.594 2.279-1.1 4.665-.237 6.319 2.28 1.986 3.021 2.876 3.526 6.378 3.5a3.873 3.873 0 0 0-1.272-1.469c-8.566-7.266-16.972-14.717-25.46-22.072q-11.2-9.708-22.344-19.49c-.957-.842-1.925-1.679-2.934-2.443-4.7-3.558-6.152-8.854-7.748-14.108-1.827-6.01-3.681-12.013-5.715-17.943a2.851 2.851 0 0 0-1.991 1.109c-5.649 5.25-11.451 10.331-17.082 15.6-1.956 1.83-1.872 1.868.061 3.781 8.89 8.8 18.222 17.127 27.241 25.79 5.182 4.977 10.479 9.84 15.7 14.778 4.327 4.09 6.483 8.755 4.541 14.712-.483 1.483.094 1.9 1.475 1.857a27.83 27.83 0 0 1 3.82.043 4.512 4.512 0 0 1 3.875 2.994 4.317 4.317 0 0 1-.728 4.621c-.968 1.244-2.286 1.277-3.667 1.208q-15.261 0-30.509.012a4.533 4.533 0 0 0-2.416.221Z" data-name="Path 1"></path><path fill="currentColor" d="M17.579 25.885A25.808 25.808 0 0 1 43.132.002a26.026 26.026 0 0 1 26.123 25.87 26.047 26.047 0 0 1-25.995 25.8 25.831 25.831 0 0 1-25.681-25.787Z" data-name="Path 2"></path><path fill="currentColor" d="M14.206 228.331c-3.069 0-6.138.047-9.205-.013-3.111-.061-4.955-1.719-4.937-4.3.017-2.56 1.879-4.259 4.986-4.292q9.2-.1 18.411 0c3.088.035 4.977 1.791 4.964 4.338s-1.886 4.2-5.012 4.254c-3.07.057-6.139.013-9.207.013Z" data-name="Path 3"></path></svg>