<svg width="68" height="68" viewBox="0 0 68 68" fill="none" xmlns="http://www.w3.org/2000/svg">
<g clip-path="url(#clip0_3760_282812)">
<path d="M48 0H20C8.9543 0 0 8.9543 0 20V48C0 59.0457 8.9543 68 20 68H48C59.0457 68 68 59.0457 68 48V20C68 8.9543 59.0457 0 48 0Z" fill="white"/>
<path fill-rule="evenodd" clip-rule="evenodd" d="M16.4673 17.8569C16.7188 17.3362 17.2105 16.8481 17.6788 16.6528C17.9532 16.5333 21.1771 16.5115 34.9757 16.5017C36.3735 16.5017 37.6594 16.5014 38.8427 16.501C51.4236 16.4975 52.399 16.4973 52.8511 16.9633C52.8891 17.0024 52.9233 17.0448 52.9604 17.0907L52.9605 17.0908L52.9606 17.0909C53.0026 17.1429 53.0483 17.1995 53.1071 17.261C53.3241 17.4887 53.5529 17.8685 53.6214 18.0962C53.7929 18.6605 53.7929 37.331 53.6214 37.9058C53.473 38.4156 52.9357 39.0123 52.364 39.2944C51.9412 39.5003 51.5294 39.5003 35.0101 39.5003C24.8242 39.5003 17.9876 39.4567 17.8162 39.4026C17.3589 39.229 16.6847 38.6106 16.4673 38.144C16.2615 37.7319 16.25 37.1567 16.25 28.0005C16.25 18.8116 16.2615 18.269 16.4673 17.8569ZM53.0386 17.9219C52.8898 17.6506 52.6269 17.3362 52.4555 17.2167C52.1357 16.9891 52.0897 16.989 35.1484 16.9669H35.1353C20.9938 16.9455 18.0787 16.9669 17.7814 17.0863C17.5874 17.1731 17.2786 17.423 17.0957 17.6506L16.7643 18.0519L16.7299 27.8265L16.7069 37.6011L16.9583 38.0787C17.1072 38.3499 17.37 38.6644 17.5415 38.7839C17.8618 39.0115 17.8847 39.0115 34.9757 39.0115H52.0897L52.467 38.7621C52.5141 38.7299 52.5584 38.702 52.6 38.6757C52.6716 38.6306 52.7352 38.5905 52.7916 38.5427C53.2371 38.1654 53.2396 37.3079 53.2623 29.6834V29.6833V29.6832V29.6831V29.683V29.6829V29.6828L53.2671 28.1087L53.2901 18.399L53.0386 17.9219ZM19.7935 28.2137V23.9284H19.7938V19.6435H21.0857L22.3661 19.6544L22.8348 20.2728C23.0862 20.6091 23.8978 21.6614 24.6295 22.6052L25.9672 24.33V21.9868V19.6435H27.2247H28.4821V23.9288V28.2249L27.2587 28.1922L26.0239 28.1595L24.2518 25.8599C23.2798 24.5904 22.4338 23.473 22.3653 23.3754C22.2853 23.2668 22.2624 24.0152 22.2853 25.7077L22.3312 28.2137H21.0623H19.7935ZM30.1968 23.9284V28.2137H33.1119H36.0269V27.1831V26.1526H34.4837H32.9404V25.556V24.9593H34.3123H35.6841V23.9288V22.8979H34.3123H32.929L32.9634 22.2686L32.9978 21.6502L34.4611 21.6175L35.9129 21.5848V20.6193V19.6428H33.0548H30.1968V23.9284ZM36.7139 21.5904V20.6249V19.6488H40.6005H44.4872V20.6252V21.6017H43.2298H41.9723V24.9105V28.2193H40.6013H39.2295L39.2065 24.9323L39.1721 21.6558L37.9487 21.6231L36.7139 21.5904ZM34.313 32.9907V35.8114H35.1705H36.0166L36.051 34.8786L36.0855 33.9453L36.4857 34.8459L36.8971 35.757L37.8461 35.7896L38.7951 35.8223L38.2119 34.7918L37.6402 33.7612L38.1434 32.9366C38.4292 32.4808 38.6577 32.0905 38.6577 32.0578C38.6577 32.0251 38.2463 32.0142 37.7317 32.036L36.8056 32.0687L36.4513 32.8825L36.0855 33.6962L36.051 31.9278L36.0281 30.1703H35.1705H34.313V32.9907ZM39.2396 31.4074C38.9422 31.0493 38.9308 30.7781 39.2281 30.4959C39.5139 30.2247 40.3141 30.2029 40.6229 30.4636C40.8747 30.6804 40.8858 31.2229 40.6344 31.4941C40.5085 31.6245 40.2911 31.6895 39.9597 31.6895C39.5713 31.6895 39.4225 31.635 39.2396 31.4074ZM19.4514 33.1649V35.8336L21.2005 35.79C22.6868 35.7573 22.9956 35.725 23.327 35.5405C23.8987 35.2151 24.173 34.8135 24.1845 34.2496C24.196 33.7071 23.8872 33.284 23.2929 33.0455C22.9726 32.9151 22.9726 32.9046 23.2015 32.8396C23.6017 32.7201 24.0245 32.1453 24.0245 31.7437C24.0245 31.2665 23.5902 30.789 23.0185 30.6263C22.7671 30.5504 21.8752 30.496 21.0065 30.496H19.4514V33.1649ZM22.0581 31.711C22.2639 31.9063 22.218 32.3185 21.9781 32.4485C21.8522 32.5026 21.6008 32.5571 21.4064 32.5571C21.0635 32.5571 21.0521 32.5462 21.0521 32.069V31.581H21.4864C21.7263 31.581 21.9781 31.6351 22.0581 31.711ZM22.218 33.8266C22.6753 34.2169 22.3095 34.7271 21.5434 34.7271H21.0517V34.1846V33.6421H21.5319C21.8067 33.6421 22.0925 33.718 22.218 33.8266ZM25.0549 32.2247C25.1235 32.1448 25.2521 32.1122 25.509 32.047C26.1837 31.8629 27.4755 31.9385 27.8524 32.1669C28.4356 32.5358 28.5267 32.8071 28.5726 34.3692L28.6185 35.8119H27.8069C27.0752 35.8119 26.9953 35.7902 26.9953 35.5948C26.9953 35.3994 26.9723 35.3994 26.5835 35.6489C25.6464 36.2564 24.5945 35.7575 24.5945 34.716C24.5945 33.9349 25.1547 33.5333 26.458 33.3706C27.0182 33.3056 27.0871 33.2294 26.8583 33.0126C26.6754 32.8394 26.0122 32.8608 25.452 33.0453L25.3689 33.074C25.154 33.1481 24.9807 33.208 24.9603 33.208C24.9373 33.208 24.9373 32.9803 24.9603 32.6872C24.9775 32.4321 24.9861 32.3047 25.0549 32.2247ZM26.4006 34.8133C26.7439 34.8678 26.9953 34.6616 26.9953 34.3362C26.9953 34.054 26.8009 34.0108 26.3321 34.1949C25.9778 34.3253 26.0233 34.7701 26.4006 34.8133ZM31.6154 32.0578C31.4095 32.1446 31.1926 32.2964 31.1237 32.4159C31.0207 32.5894 31.0093 32.5785 30.9978 32.3073V32.0142H30.1402H29.2827V33.9127V35.8111H30.1402H30.9867L31.0211 34.5525C31.0556 33.4784 31.0896 33.2616 31.2611 33.1639C31.3984 33.0771 31.5125 33.0771 31.6613 33.1639C31.8213 33.2616 31.8557 33.4784 31.8901 34.5525L31.9246 35.8111H32.7813H33.6504L33.6044 34.3139C33.57 33.3484 33.5015 32.7191 33.3986 32.5241C33.1016 31.9601 32.347 31.7651 31.6154 32.0578ZM43.5501 32.3182C43.7215 32.1664 43.9388 32.0146 44.0303 31.9819C44.3391 31.8734 44.8764 31.906 45.1741 32.0462C45.7117 32.296 45.8602 32.7841 45.8602 34.368V35.8107H45.0026H44.1566L44.1221 34.4762L44.122 34.4721C44.0877 33.1639 44.0874 33.153 43.8133 33.1203C43.3446 33.0553 43.2302 33.3375 43.2302 34.6393V35.8111H42.43H41.6299V33.9127V32.0142H42.43C43.2187 32.0142 43.2302 32.0142 43.2302 32.3073V32.6003L43.5501 32.3182ZM47.4359 32.1294C46.3499 32.6719 46.11 34.6244 47.013 35.4814C47.5617 36.0021 48.5222 36.0457 49.0365 35.5791L49.2879 35.3619V35.6441C49.2879 35.7959 49.162 36.0453 48.9906 36.2084C48.7277 36.4578 48.6362 36.4796 47.9961 36.436C47.6073 36.4034 47.1959 36.3493 47.093 36.2952C46.9101 36.2302 46.8871 36.2843 46.8871 36.8159C46.8871 37.532 46.9671 37.5752 48.1445 37.5646C49.1735 37.5646 49.8252 37.3584 50.328 36.8812C50.8882 36.3496 51.0026 35.8289 51.0026 33.7569V32.0103H50.1451C49.4364 32.0103 49.2875 32.043 49.2875 32.1838C49.2875 32.3247 49.2305 32.3138 48.9902 32.1297C48.6018 31.8476 47.9961 31.8476 47.4359 32.1294ZM49.1505 33.2253C49.322 33.388 49.3334 34.2235 49.1735 34.5162C49.0476 34.7334 48.6592 34.7875 48.3963 34.6248C48.1449 34.473 48.0875 33.681 48.3049 33.3662C48.5104 33.0731 48.9221 33.0081 49.1505 33.2253ZM39.114 35.8113V33.9129V32.0144H39.9716H40.8291V33.9129V35.8113H39.9716H39.114Z" fill="#3F23B0"/>
<path fill-rule="evenodd" clip-rule="evenodd" d="M38.5523 51.5599H42.2917L43.0241 51.5597H43.0255C44.0019 51.5594 44.9792 51.5592 45.9534 51.5635C46.2644 51.5641 46.5015 51.4278 46.6964 51.2006C46.8077 51.0705 46.8507 50.9115 46.8936 50.7528L46.907 50.7038C46.982 50.4339 47.0572 50.1641 47.1324 49.8944L47.133 49.892L47.133 49.8919L47.133 49.8919C47.2934 49.3165 47.4538 48.7412 47.6121 48.1655C47.6669 47.9634 47.6446 47.7769 47.4834 47.6274C47.3679 47.521 47.2199 47.5078 47.067 47.5078H41.039C40.9752 47.5078 40.968 47.4935 40.9842 47.4337C41.1034 47.0182 41.2189 46.6051 41.3356 46.1867C41.3503 46.1337 41.3576 46.1071 41.3751 46.0938C41.3928 46.0803 41.4208 46.0803 41.477 46.0803H48.1187C48.1771 46.0803 48.2 46.0677 48.2156 46.0079C48.3223 45.6118 48.4326 45.2164 48.5465 44.8218C48.5676 44.7543 48.5525 44.7435 48.4863 44.7435C46.0223 44.7487 43.5581 44.7487 41.0937 44.7435C40.885 44.7473 40.683 44.8174 40.5173 44.9436C40.3517 45.0698 40.231 45.2455 40.1732 45.4448C40.1372 45.576 40.1007 45.707 40.0642 45.8379L40.0162 46.0103C39.9276 46.3315 39.8384 46.6526 39.7491 46.9738C39.6372 47.3767 39.5253 47.7796 39.4145 48.1828C39.358 48.3783 39.3772 48.563 39.5348 48.7125C39.6492 48.8201 39.793 48.841 39.9428 48.841C41.9519 48.8434 43.9613 48.8446 45.9708 48.8446C46.0526 48.8446 46.0532 48.8446 46.031 48.9247C46.0032 49.0246 45.9752 49.1244 45.9473 49.2242C45.8633 49.5242 45.7794 49.8241 45.6995 50.1251C45.6983 50.141 45.6938 50.1564 45.6862 50.1704C45.6786 50.1844 45.6682 50.1966 45.6555 50.2063C45.6428 50.216 45.6283 50.223 45.6127 50.2267C45.5972 50.2304 45.581 50.2308 45.5653 50.2279C43.3484 50.2255 41.132 50.2243 38.9163 50.2243C38.8544 50.2243 38.8297 50.2411 38.814 50.3009C38.7326 50.6019 38.6488 50.9022 38.5648 51.2026L38.4892 51.4738L38.4887 51.4756C38.4771 51.5178 38.4714 51.5389 38.4795 51.5494C38.4875 51.5599 38.5091 51.5599 38.5523 51.5599ZM27.2775 48.4782C27.3299 48.4313 27.3823 48.3843 27.4344 48.3371L27.4506 48.3478C27.4493 48.3537 27.4482 48.3596 27.4471 48.3655L27.4471 48.3655L27.4471 48.3655C27.4453 48.3757 27.4434 48.3858 27.4404 48.3956C27.156 49.4259 26.8702 50.4557 26.583 51.4852C26.5668 51.5426 26.5692 51.5617 26.6378 51.5617C27.0445 51.5581 27.4512 51.5581 27.8579 51.5617C27.8692 51.5637 27.8808 51.5634 27.892 51.5607C27.9031 51.5581 27.9136 51.5531 27.9227 51.5462C27.9318 51.5393 27.9394 51.5305 27.9449 51.5205C27.9504 51.5106 27.9538 51.4995 27.9548 51.4882C28.0716 51.0605 28.1906 50.6332 28.3095 50.2059L28.4229 49.7981L29.8067 44.8267C29.8073 44.8246 29.808 44.8226 29.8087 44.8205C29.8091 44.8195 29.8095 44.8185 29.8098 44.8175C29.815 44.8035 29.8205 44.7888 29.8037 44.7717L29.77 44.7962C28.9032 45.5227 28.036 46.2511 27.1684 46.9812C26.1725 47.8158 25.1769 48.6515 24.1818 49.4885C24.1403 49.5231 24.1222 49.5255 24.0927 49.4747C24.0117 49.3368 23.9283 49.2 23.8449 49.0632L23.8448 49.0632L23.8448 49.0631C23.8111 49.0079 23.7773 48.9526 23.7438 48.8972C22.9147 47.533 22.0852 46.1694 21.2553 44.8063C21.2533 44.803 21.2513 44.7993 21.2493 44.7955C21.2397 44.7774 21.2287 44.757 21.2084 44.7609C21.1894 44.7646 21.1864 44.7827 21.1836 44.7999C21.1832 44.8026 21.1827 44.8054 21.1822 44.808C21.1818 44.8103 21.1813 44.8126 21.1807 44.8147C20.9176 45.7589 20.6542 46.7032 20.3907 47.6478C20.0345 48.9279 19.6773 50.208 19.3192 51.4882C19.3029 51.5462 19.3089 51.5629 19.3757 51.5629C19.6466 51.5609 19.9175 51.5616 20.1884 51.5622H20.1892C20.3247 51.5626 20.4603 51.5629 20.5959 51.5629C20.6066 51.5649 20.6175 51.5648 20.6281 51.5624C20.6388 51.56 20.6488 51.5555 20.6575 51.5491C20.6663 51.5427 20.6736 51.5345 20.679 51.5252C20.6845 51.5158 20.6879 51.5055 20.6891 51.4947C20.9884 50.4147 21.2878 49.3366 21.5874 48.2605C21.6106 48.1784 21.6343 48.0966 21.6591 48.0108L21.6939 47.8905C21.7034 47.9064 21.711 47.9188 21.7175 47.9295L21.7176 47.9296C21.7243 47.9406 21.7299 47.9499 21.7354 47.9592C22.2107 48.7651 22.6856 49.571 23.1602 50.3768C23.384 50.7534 23.6084 51.1325 23.8298 51.5127C23.8605 51.5665 23.8791 51.5671 23.9207 51.5252C23.9626 51.4827 24.0076 51.443 24.0526 51.4032C24.0741 51.3842 24.0956 51.3652 24.1168 51.3459L27.1209 48.6192C27.1729 48.572 27.2252 48.5251 27.2775 48.4782ZM34.899 44.7459H38.598C38.8616 44.7459 39.0439 44.8655 39.1082 45.0849C39.1383 45.2014 39.1341 45.324 39.0962 45.4382C38.8443 46.3345 38.5934 47.2311 38.3435 48.1278C38.2376 48.505 37.9855 48.734 37.6047 48.8237C37.5339 48.8371 37.4619 48.8426 37.3899 48.8398H31.4196C31.3474 48.8398 31.3179 48.8571 31.2993 48.9295C31.1731 49.3872 31.0457 49.8447 30.9182 50.3021L30.918 50.3029L30.918 50.3031C30.8074 50.7002 30.6968 51.0973 30.5869 51.4947C30.5861 51.5051 30.5831 51.5151 30.5781 51.5242C30.5731 51.5333 30.5662 51.5413 30.558 51.5476C30.5497 51.5539 30.5402 51.5584 30.53 51.5608C30.5199 51.5633 30.5093 51.5635 30.4991 51.5617C30.0903 51.5593 29.6814 51.5593 29.2723 51.5617C29.2121 51.5617 29.2007 51.5485 29.2175 51.4893C29.5408 50.3407 29.8617 49.1919 30.1802 48.0429L30.205 47.9552C30.2396 47.8328 30.2742 47.7105 30.3053 47.5874C30.3063 47.5744 30.31 47.5618 30.3162 47.5504C30.3224 47.539 30.3311 47.529 30.3415 47.5212C30.3519 47.5134 30.3639 47.5079 30.3767 47.5051C30.3894 47.5023 30.4027 47.5022 30.4154 47.5049H32.5664C32.8632 47.5049 33.16 47.5055 33.4568 47.5061C34.0505 47.5073 34.6441 47.5085 35.2377 47.5049C35.6448 47.5021 36.0522 47.503 36.4596 47.5039H36.4597C36.6634 47.5044 36.8672 47.5049 37.071 47.5049C37.1312 47.5049 37.1577 47.4881 37.1739 47.4283C37.2886 47.0043 37.4063 46.5814 37.5271 46.1598C37.5463 46.0922 37.5319 46.0815 37.4669 46.0815H30.8908C30.8619 46.08 30.833 46.08 30.8041 46.0815C30.7439 46.0886 30.7289 46.0701 30.7439 46.0109C30.7812 45.8843 30.8164 45.7571 30.8515 45.6299L30.8516 45.6296C30.8692 45.566 30.8867 45.5024 30.9046 45.4388C30.9217 45.377 30.939 45.3153 30.9563 45.2535L30.9565 45.253L30.9565 45.2529C30.9964 45.1105 31.0363 44.9681 31.0737 44.8248C31.0887 44.7651 31.111 44.7453 31.1747 44.7453C32.4158 44.7485 33.6572 44.7487 34.899 44.7459ZM19.6992 45.2978C19.7486 45.1184 19.7979 44.9421 19.8491 44.7597C19.8305 44.7581 19.8193 44.7564 19.8082 44.7547L19.8057 44.7543H18.535C18.4818 44.7543 18.4743 44.7815 18.4636 44.8206L18.4634 44.8213C18.2087 45.7407 17.9528 46.6598 17.6957 47.5784C17.3323 48.8837 16.9677 50.1889 16.6019 51.4942C16.5856 51.5516 16.6007 51.5599 16.6554 51.5599C17.067 51.5575 17.4785 51.5575 17.89 51.5599C17.8995 51.5617 17.9092 51.5616 17.9186 51.5595C17.9279 51.5574 17.9368 51.5535 17.9446 51.5479C17.9523 51.5423 17.9589 51.5351 17.9638 51.5269C17.9687 51.5187 17.9718 51.5096 17.9731 51.5001C18.056 51.1951 18.1407 50.8919 18.2252 50.589C18.2517 50.4942 18.2782 50.3993 18.3046 50.3045L19.6992 45.2978Z" fill="#6D6E71"/>
<path fill-rule="evenodd" clip-rule="evenodd" d="M18.1562 53.2174L17.5581 53.9999L17.3933 53.1917C17.3619 53.255 17.3306 53.3179 17.2994 53.3804L17.2992 53.3808L17.2992 53.3809C17.2186 53.5424 17.1391 53.702 17.0623 53.863C17.0341 53.9228 17.0022 53.9533 16.9324 53.942C16.8965 53.9395 16.8605 53.9395 16.8247 53.942L17.4973 52.6172C17.5186 52.7333 17.5407 52.8467 17.5626 52.959C17.6027 53.1642 17.642 53.3658 17.6742 53.5737L18.3758 52.6268V52.8061C18.3697 52.94 18.3633 53.0739 18.3569 53.2076L18.3569 53.2077C18.3462 53.4322 18.3355 53.6561 18.3264 53.8786C18.3264 53.9318 18.3096 53.9467 18.256 53.9449L18.2458 53.9447C18.129 53.9415 18.1269 53.9414 18.1357 53.8164C18.1442 53.6549 18.1547 53.4938 18.1652 53.3324L18.1718 53.2305L18.1735 53.2267C18.178 53.2166 18.1825 53.2067 18.1718 53.1977L18.1562 53.2174ZM35.1269 53.9982L35.0655 53.6976C35.0308 53.5277 34.9969 53.3622 34.9626 53.1929L34.8853 53.3483L34.8852 53.3486L34.885 53.3488L34.8849 53.349L34.8848 53.3493L34.8839 53.3511C34.797 53.5258 34.7107 53.6994 34.6233 53.8726C34.6203 53.8787 34.6178 53.8858 34.6153 53.8929C34.6079 53.9143 34.6001 53.9367 34.5757 53.939C34.5232 53.9455 34.47 53.9455 34.4175 53.939C34.3945 53.9353 34.4039 53.9191 34.4117 53.9055L34.4135 53.9023L34.4158 53.898L34.4167 53.8962L34.4175 53.8941C34.4977 53.7315 34.5794 53.5693 34.6624 53.4075C34.7704 53.1948 34.8789 52.982 34.9929 52.7584L35.0649 52.6172L35.2454 53.5707L35.9379 52.6345C35.9499 52.6586 35.9531 52.6861 35.9469 52.7122C35.9409 52.842 35.9347 52.9718 35.9286 53.1017L35.9285 53.1021C35.9161 53.3633 35.9036 53.6247 35.8928 53.8858C35.8928 53.9336 35.8765 53.9455 35.8326 53.9455C35.6978 53.9455 35.6966 53.9455 35.7033 53.811C35.7125 53.6341 35.7223 53.4566 35.7326 53.2701L35.7357 53.2132L35.1269 53.9982ZM19.9815 53.2454L19.7418 53.5695L19.6995 53.345C19.6545 53.1067 19.6103 52.8721 19.5667 52.6375H19.5517L18.8935 53.9336L18.8937 53.9336C18.9883 53.9469 19.034 53.9533 19.0664 53.9356C19.0965 53.919 19.1153 53.8816 19.1515 53.8094L19.1522 53.8081C19.2533 53.6042 19.3549 53.4003 19.4584 53.1929C19.492 53.3566 19.525 53.5182 19.5585 53.6826L19.5586 53.6836L19.6227 53.9976C19.8008 53.7692 19.9693 53.5508 20.1364 53.3343L20.2243 53.2204C20.2359 53.2261 20.2351 53.2334 20.2343 53.2407L20.234 53.2441L20.234 53.2461C20.2298 53.3137 20.2254 53.3813 20.221 53.449C20.2131 53.5694 20.2052 53.6899 20.1991 53.8104C20.1924 53.9438 20.1949 53.9438 20.3284 53.9438C20.3723 53.9438 20.3886 53.9318 20.3886 53.884C20.3966 53.6852 20.4061 53.4866 20.4156 53.288L20.4156 53.2876C20.4224 53.1453 20.4292 53.003 20.4355 52.8605C20.4375 52.8121 20.4369 52.7637 20.4362 52.7128C20.4359 52.6863 20.4355 52.6591 20.4355 52.6309C20.2879 52.8311 20.1421 53.0282 19.9959 53.2259L19.9905 53.2332L19.9882 53.2363L19.9843 53.2415L19.9822 53.2444L19.9815 53.2454ZM22.7687 53.9414H22.528C22.4949 53.9414 22.4751 53.9414 22.4883 53.8959C22.6006 53.5022 22.7111 53.1078 22.8198 52.7128C22.8203 52.7071 22.822 52.7015 22.8248 52.6964C22.8276 52.6913 22.8315 52.6869 22.8361 52.6834C22.8408 52.6799 22.8461 52.6774 22.8518 52.6761C22.8575 52.6748 22.8634 52.6747 22.8691 52.6758C22.9334 52.6777 22.997 52.6772 23.0602 52.6767H23.0602H23.0602H23.0603H23.0603H23.0603H23.0603H23.0603H23.0604H23.0604H23.0604H23.0604H23.0605H23.0605H23.0605H23.0605H23.0606H23.0606H23.0606H23.0606C23.1749 52.6758 23.2881 52.6749 23.4022 52.6883C23.6327 52.7152 23.7632 52.8402 23.7686 53.0709C23.7777 53.3567 23.6158 53.7489 23.2271 53.8935C23.1523 53.9203 23.0737 53.935 22.9943 53.9372H22.7639L22.7687 53.9414ZM22.7452 53.7489C22.7812 53.7489 22.8163 53.7493 22.8507 53.7497H22.8508H22.8508H22.8508H22.8509H22.8509H22.8509H22.851H22.851H22.851H22.851H22.8511H22.8511H22.8511H22.8512H22.8512H22.8512H22.8513H22.8513H22.8513C22.9182 53.7505 22.9826 53.7512 23.046 53.7489C23.1406 53.7452 23.2312 53.7103 23.3035 53.6496C23.383 53.5847 23.4461 53.5023 23.4879 53.4089C23.5296 53.3155 23.5489 53.2137 23.5442 53.1116C23.5442 52.9771 23.4624 52.8982 23.33 52.8725C23.2347 52.8623 23.1389 52.8581 23.043 52.8599C22.9997 52.8599 22.9871 52.8749 22.9768 52.9131C22.9426 53.041 22.9069 53.168 22.8711 53.2952L22.871 53.2956C22.8553 53.3514 22.8396 53.4072 22.824 53.4631C22.8148 53.4966 22.8058 53.5299 22.7968 53.5632L22.7968 53.5632L22.7967 53.5634C22.7801 53.625 22.7636 53.6864 22.7452 53.7489ZM38.2903 53.2887L38.2904 53.2883C38.3099 53.2205 38.3293 53.1527 38.3485 53.0847C38.4997 53.2985 38.6591 53.5019 38.8199 53.7071L38.8201 53.7074L38.8204 53.7078L38.8207 53.7081L38.8207 53.7081L38.8208 53.7082L38.8208 53.7082L38.8208 53.7083L38.8209 53.7084C38.894 53.8016 38.9674 53.8953 39.0404 53.9904L39.1638 53.5504C39.2396 53.2772 39.3154 53.004 39.393 52.7314C39.4056 52.6896 39.4074 52.6716 39.3503 52.6716L39.3414 52.6717C39.2137 52.6733 39.2129 52.6734 39.177 52.8019L39.1679 52.8366L39.1613 52.8614L39.1529 52.8916L39.1408 52.9342C39.0847 53.1304 39.0286 53.3266 38.9724 53.5301C38.8253 53.3232 38.6735 53.1271 38.5203 52.929L38.5202 52.9289L38.52 52.9286C38.4408 52.8263 38.3612 52.7234 38.2817 52.6184C38.1554 53.0686 38.0351 53.5008 37.9147 53.9336C37.9324 53.9421 37.9515 53.9413 37.97 53.9405H37.97C37.9817 53.94 37.9931 53.9395 38.0038 53.9414C38.0856 53.9569 38.1175 53.9235 38.1373 53.8433C38.1844 53.6576 38.2372 53.4735 38.2902 53.2889L38.2903 53.2887ZM45.8659 53.6309L45.8667 53.6325L45.8674 53.634L45.9257 53.7555L46.015 53.9414H45.8056C45.774 53.9414 45.7661 53.9221 45.7583 53.9027C45.7568 53.8992 45.7554 53.8957 45.7539 53.8924C45.7122 53.8044 45.6709 53.7165 45.6297 53.6286L45.6296 53.6284L45.6295 53.6282L45.6286 53.6263C45.5982 53.5615 45.5678 53.4967 45.5373 53.432C45.5355 53.4281 45.5339 53.424 45.5324 53.4198C45.5265 53.4041 45.5204 53.3875 45.5 53.3776C45.4765 53.4209 45.4606 53.4678 45.453 53.5163C45.4169 53.6359 45.382 53.7555 45.3519 53.881C45.3405 53.9258 45.3237 53.9408 45.2755 53.9408C45.1365 53.9408 45.1359 53.9408 45.1739 53.8051L45.2491 53.5369C45.3246 53.2676 45.4002 52.9983 45.4747 52.729C45.4873 52.6818 45.5078 52.6692 45.5529 52.6722C45.6021 52.6747 45.6513 52.6736 45.7004 52.6725C45.7811 52.6707 45.8616 52.6688 45.9416 52.683C46.095 52.7093 46.1666 52.8145 46.1383 52.9669C46.0956 53.1893 45.9753 53.3322 45.7406 53.3699L45.8075 53.5091L45.8659 53.6309ZM45.6365 53.2114C45.6798 53.211 45.7229 53.2052 45.7647 53.1941C45.8124 53.1761 45.8526 53.1428 45.8791 53.0995C45.9056 53.0562 45.9168 53.0053 45.9109 52.955C45.9037 52.8898 45.8652 52.8665 45.7442 52.8545H45.7081C45.666 52.8492 45.6431 52.8611 45.6329 52.9077C45.623 52.9543 45.61 53.0001 45.5971 53.046L45.597 53.0462C45.5886 53.0757 45.5803 53.1052 45.5728 53.1349L45.571 53.142C45.5533 53.2113 45.5515 53.2184 45.6365 53.2114ZM49.1919 53.3663C49.2786 52.8916 49.8387 52.6716 50.1546 52.9831C50.1623 52.9609 50.1693 52.9394 50.1762 52.9185C50.1871 52.8853 50.1975 52.8534 50.2093 52.8223C50.225 52.7828 50.2099 52.7607 50.1775 52.7398C50.0976 52.686 50.0048 52.6542 49.9085 52.6477C49.6866 52.6391 49.4691 52.7105 49.2959 52.8487C49.1228 52.9869 49.0057 53.1826 48.9663 53.3997C48.9194 53.6819 49.0614 53.9043 49.3303 53.9599C49.5133 53.9984 49.704 53.9713 49.8688 53.8834L49.8742 53.8807L49.8794 53.8782C49.8951 53.8709 49.9116 53.8632 49.9169 53.8433C49.9326 53.7784 49.9508 53.7129 49.9721 53.6364L49.9771 53.6186C49.8655 53.6983 49.7375 53.7524 49.6023 53.777C49.3213 53.8218 49.1408 53.6437 49.1919 53.3663ZM25.0434 53.9414L26.0301 52.6226L26.0302 52.623C26.0506 52.7244 26.0681 52.811 26.0849 52.8976L26.0908 52.9301C26.149 53.2475 26.2074 53.566 26.2714 53.8822C26.2804 53.9294 26.2714 53.942 26.2203 53.942C26.0554 53.942 26.0554 53.942 26.0313 53.7818L26.0312 53.7812C26.0073 53.6215 26.0065 53.6162 25.84 53.6162H25.5657C25.5468 53.6139 25.5277 53.6172 25.5107 53.6256C25.4937 53.634 25.4796 53.6471 25.47 53.6634C25.448 53.6959 25.4242 53.7274 25.4004 53.7589L25.4003 53.7589C25.3707 53.798 25.3411 53.8372 25.3148 53.8786C25.303 53.9018 25.2839 53.9205 25.2604 53.9319C25.237 53.9433 25.2104 53.9469 25.1848 53.942C25.1377 53.9393 25.0905 53.9391 25.0434 53.9414ZM25.633 53.4446H25.8262C25.9041 53.4446 25.9429 53.4446 25.9589 53.4255C25.9748 53.4065 25.9683 53.3687 25.9552 53.2933L25.9549 53.2916C25.9473 53.2479 25.9403 53.2043 25.9329 53.1585L25.9328 53.1582C25.9268 53.1206 25.9205 53.0816 25.9134 53.0399C25.8622 53.128 25.8052 53.2054 25.7476 53.2835C25.7091 53.3357 25.6704 53.3883 25.633 53.4446ZM32.5712 52.8359L32.5307 52.6208L31.5482 53.9336C31.686 53.9641 31.8063 53.948 31.8665 53.8057C31.8671 53.8042 31.8679 53.8028 31.8688 53.8014L31.8701 53.7993L31.8725 53.796L31.8771 53.7903C31.8809 53.7858 31.8846 53.7813 31.8869 53.7764C31.9107 53.7152 31.9564 53.6649 32.0154 53.6353C32.0743 53.6057 32.1421 53.5989 32.2058 53.6162C32.2488 53.6201 32.2921 53.6201 32.3352 53.6162C32.5036 53.6162 32.5036 53.6162 32.5301 53.7847C32.5536 53.9391 32.5542 53.9391 32.7038 53.9423L32.7142 53.9426C32.7774 53.9438 32.7774 53.9216 32.7672 53.872C32.7352 53.7113 32.7051 53.5502 32.6751 53.3892L32.6432 53.2186C32.6197 53.0928 32.5959 52.9668 32.5712 52.8359ZM32.4375 53.4446H32.1336C32.1791 53.3726 32.2279 53.3077 32.2759 53.2439C32.3251 53.1785 32.3734 53.1143 32.4164 53.0446C32.4202 53.1223 32.4346 53.1987 32.449 53.2747L32.449 53.2748L32.449 53.2748L32.449 53.2748L32.449 53.2749L32.449 53.2749L32.449 53.275L32.4491 53.275L32.4491 53.2751L32.4491 53.2751L32.4491 53.2752L32.4491 53.2752L32.4491 53.2753C32.4574 53.319 32.4656 53.3627 32.4718 53.4063C32.476 53.4356 32.4645 53.4446 32.4375 53.4446ZM21.1991 53.4948L21.1991 53.4947C21.2167 53.4305 21.2344 53.366 21.2523 53.3011C21.2717 53.2313 21.2914 53.1615 21.3111 53.0916C21.3444 52.9733 21.3778 52.855 21.41 52.7362C21.4214 52.6949 21.4352 52.6764 21.4858 52.6764C21.6298 52.6788 21.7742 52.678 21.9182 52.6772H21.9184H21.9186H21.9188H21.919C21.9907 52.6768 22.0623 52.6764 22.1337 52.6764C22.1337 52.6799 22.1343 52.6827 22.1347 52.6851C22.1355 52.6889 22.136 52.6915 22.1337 52.6937C22.1055 52.851 22.1055 52.851 21.9466 52.851H21.6458C21.6061 52.851 21.5856 52.8593 21.576 52.9018C21.5604 52.9735 21.5393 53.0447 21.5158 53.1152C21.5014 53.1583 21.5158 53.1684 21.5574 53.1678H21.9545C21.9918 53.1678 22.0038 53.1726 21.993 53.2156L21.9911 53.2228C21.9581 53.352 21.958 53.3525 21.8185 53.3525H21.5008C21.4934 53.351 21.4857 53.351 21.4783 53.3527C21.4709 53.3543 21.464 53.3575 21.4579 53.362C21.4519 53.3666 21.4469 53.3723 21.4433 53.3789C21.4397 53.3856 21.4375 53.3929 21.437 53.4004C21.4118 53.4996 21.3839 53.5992 21.3534 53.6993C21.3365 53.7531 21.3534 53.7591 21.4051 53.7591H21.7878C21.8335 53.7591 21.8377 53.7716 21.8275 53.8111L21.8265 53.815C21.7932 53.9462 21.7931 53.9468 21.6572 53.9468H21.0947C21.0879 53.9435 21.082 53.9388 21.0772 53.933C21.1191 53.787 21.1589 53.6416 21.1991 53.4948ZM37.5375 52.8205C37.5529 52.7736 37.5636 52.7254 37.5694 52.6764C37.345 52.6764 37.1218 52.677 36.9004 52.6848C36.8629 52.6843 36.8574 52.7066 36.8519 52.7289C36.8511 52.7323 36.8502 52.7358 36.8492 52.7392C36.8161 52.8577 36.7832 52.9762 36.7503 53.0948L36.7492 53.0986L36.7491 53.0992L36.7489 53.0999L36.7487 53.1005C36.675 53.3659 36.6013 53.6314 36.5255 53.8966C36.5117 53.945 36.5225 53.9516 36.5683 53.9516H37.0881C37.2312 53.9516 37.2313 53.951 37.2646 53.819L37.2656 53.8153C37.2758 53.7746 37.268 53.7638 37.2241 53.7638H36.8342C36.7819 53.7638 36.7764 53.7495 36.7903 53.7041C36.821 53.6066 36.8504 53.508 36.8739 53.4081C36.8829 53.3645 36.904 53.3585 36.9431 53.3585H37.2608C37.3893 53.3585 37.3896 53.3574 37.4248 53.2413L37.428 53.2306C37.4449 53.1708 37.425 53.1708 37.3799 53.1708C37.3374 53.1708 37.2948 53.1705 37.2523 53.1701H37.2522H37.2522H37.2521H37.2521H37.252H37.2519H37.2519H37.2518H37.2518H37.2517C37.1669 53.1695 37.0823 53.1688 36.9978 53.1708C36.9473 53.1708 36.9413 53.1541 36.9551 53.111C36.9762 53.0453 36.9942 52.9783 37.0099 52.9108C37.0104 52.9015 37.0129 52.8925 37.0172 52.8843C37.0215 52.8761 37.0276 52.8689 37.035 52.8633C37.0423 52.8576 37.0508 52.8536 37.0599 52.8514C37.0689 52.8493 37.0784 52.8492 37.0875 52.851C37.1741 52.853 37.2606 52.8523 37.3472 52.8516H37.3474C37.3907 52.8513 37.4341 52.851 37.4774 52.851C37.4806 52.851 37.484 52.8511 37.4875 52.8513C37.5083 52.8523 37.5313 52.8533 37.5375 52.8205ZM51.3121 53.8072L51.3119 53.8077C51.3022 53.8428 51.2929 53.8763 51.2845 53.9103C51.284 53.9149 51.2825 53.9194 51.2802 53.9235C51.2779 53.9276 51.2749 53.9312 51.2712 53.9341C51.2675 53.937 51.2632 53.9391 51.2587 53.9404C51.2542 53.9416 51.2494 53.942 51.2448 53.9414H50.5613L50.7833 53.1445C50.7934 53.1081 50.8037 53.0718 50.8139 53.0355L50.8143 53.034L50.8149 53.0318L50.8151 53.0312L50.8152 53.0311L50.8152 53.0309L50.8153 53.0307C50.8434 52.9309 50.8715 52.8313 50.8976 52.7308C50.8981 52.7222 50.9005 52.7138 50.9046 52.7061C50.9086 52.6985 50.9143 52.6919 50.9213 52.6866C50.9282 52.6814 50.9362 52.6777 50.9446 52.6759C50.9531 52.674 50.9619 52.674 50.9704 52.6758C51.171 52.6782 51.3729 52.6782 51.5763 52.6758C51.6208 52.6758 51.6268 52.6866 51.6166 52.7272L51.6153 52.7321C51.6001 52.7905 51.5923 52.8204 51.573 52.8356C51.5528 52.8516 51.52 52.8516 51.4529 52.8516H51.1286C51.0926 52.8516 51.0727 52.8587 51.0643 52.8988C51.0486 52.9701 51.0275 53.0408 51.0066 53.1105L51.0041 53.1188C50.9915 53.1576 50.9993 53.169 51.0414 53.1684H51.4379C51.477 53.1684 51.4939 53.1684 51.4806 53.2192L51.4786 53.2265C51.444 53.3525 51.4438 53.3531 51.311 53.3531H50.9939C50.986 53.3519 50.9779 53.3522 50.9701 53.354C50.9658 53.3551 50.9616 53.3566 50.9577 53.3585C50.9558 53.3594 50.954 53.3604 50.9523 53.3615L50.9485 53.3641C50.9421 53.3688 50.9366 53.3748 50.9326 53.3816C50.9285 53.3885 50.9258 53.3961 50.9247 53.4039C50.8994 53.5032 50.8711 53.6018 50.8411 53.7029C50.826 53.7513 50.8411 53.7626 50.8898 53.7626C51.0137 53.7538 51.1385 53.754 51.2678 53.7542L51.3266 53.7543C51.3218 53.7718 51.3171 53.7888 51.3126 53.8054L51.3121 53.8072ZM44.7217 52.6796C44.7216 52.6787 44.7215 52.6776 44.7215 52.6764L44.0494 52.6782C44.0211 52.6782 44.0091 52.6866 44.0007 52.7159C43.892 53.1112 43.7817 53.506 43.6698 53.9001C43.659 53.9372 43.6668 53.9444 43.7029 53.9444H44.331L44.337 53.9444C44.3559 53.9448 44.3737 53.945 44.3797 53.9169C44.3882 53.8805 44.3983 53.8447 44.409 53.8071C44.4137 53.7909 44.4184 53.7744 44.4231 53.7573H43.9808C43.9351 53.7609 43.9207 53.7477 43.9351 53.7011C43.9658 53.6012 43.9935 53.4996 44.0199 53.3986C44.0209 53.3911 44.0233 53.384 44.0272 53.3775C44.031 53.3711 44.0361 53.3655 44.0422 53.361C44.0483 53.3566 44.0552 53.3535 44.0625 53.3518C44.0699 53.3501 44.0775 53.35 44.0849 53.3513H44.4098C44.5372 53.3513 44.5374 53.3508 44.5719 53.2331L44.5735 53.2276C44.5885 53.1816 44.5819 53.1678 44.5284 53.1678H44.1385C44.0939 53.1684 44.0855 53.1577 44.1 53.1146C44.1245 53.045 44.1446 52.9739 44.1601 52.9018C44.1704 52.8581 44.1914 52.851 44.2305 52.851H44.5193H44.5194C44.603 52.851 44.6448 52.851 44.6701 52.8305C44.6953 52.8101 44.704 52.7693 44.7215 52.6878C44.7233 52.6863 44.7229 52.6849 44.7224 52.6826L44.7217 52.6796ZM29.0411 53.1666V53.178C29.0086 53.3507 29.0086 53.3507 28.8329 53.3507H28.5369C28.5122 53.3507 28.4912 53.3507 28.4828 53.3824C28.4509 53.502 28.4166 53.6257 28.3805 53.7543H28.8179C28.8732 53.7543 28.8817 53.768 28.866 53.8194L28.8633 53.8281C28.8288 53.9391 28.8279 53.942 28.7006 53.942H28.1735C28.1284 53.942 28.1169 53.9354 28.1308 53.8864C28.2409 53.5014 28.3474 53.1158 28.4533 52.7302C28.4538 52.7215 28.4561 52.713 28.4603 52.7054C28.4644 52.6977 28.4701 52.691 28.4771 52.6858C28.4841 52.6805 28.4922 52.6769 28.5007 52.675C28.5093 52.6732 28.5181 52.6733 28.5267 52.6752H29.1181C29.1668 52.6752 29.1939 52.6812 29.168 52.735C29.1605 52.7499 29.1558 52.7662 29.1542 52.7828C29.1506 52.8426 29.1151 52.8521 29.0616 52.8504C28.9781 52.848 28.8946 52.8488 28.8113 52.8496H28.8112H28.811H28.8109C28.7695 52.85 28.7281 52.8504 28.6867 52.8504C28.6787 52.849 28.6704 52.8493 28.6625 52.8512C28.6546 52.8531 28.6471 52.8566 28.6406 52.8615C28.6341 52.8663 28.6286 52.8725 28.6245 52.8795C28.6205 52.8865 28.6179 52.8943 28.6169 52.9024C28.6001 52.9717 28.5814 53.0405 28.5568 53.1086C28.5411 53.1576 28.5568 53.1684 28.6061 53.1684C28.7171 53.1657 28.8258 53.166 28.9336 53.1664H28.9339C28.9697 53.1665 29.0054 53.1666 29.0411 53.1666ZM42.171 53.8105C42.2114 53.9211 42.3124 53.9755 42.5369 53.9755C42.6351 53.9716 42.7301 53.9392 42.81 53.8823C42.8898 53.8253 42.9512 53.7463 42.9863 53.655C43.0681 53.4715 43.0302 53.3543 42.8587 53.2485C42.8362 53.2346 42.8131 53.2214 42.7901 53.2082L42.79 53.2082L42.7899 53.2081C42.7547 53.188 42.7195 53.1678 42.6861 53.1451C42.6574 53.1315 42.6341 53.1087 42.62 53.0804C42.6058 53.0522 42.6015 53.02 42.6078 52.9891C42.6168 52.9503 42.637 52.9151 42.666 52.8878C42.695 52.8604 42.7315 52.8422 42.7709 52.8354C42.8455 52.8181 42.9207 52.8205 42.9616 52.8952C42.9851 52.9412 43.0104 52.9365 43.0453 52.9167C43.0603 52.909 43.0753 52.9024 43.091 52.8952C43.1854 52.8528 43.1933 52.8103 43.1253 52.7332C43.0987 52.7059 43.0659 52.6854 43.0296 52.6734C42.9095 52.6313 42.7777 52.6361 42.6609 52.6866C42.5442 52.7372 42.451 52.8299 42.4003 52.946C42.3365 53.1003 42.3666 53.2073 42.5062 53.3047C42.5409 53.3303 42.5781 53.3524 42.6149 53.3742L42.615 53.3743C42.6426 53.3906 42.6699 53.4069 42.6957 53.4243C42.822 53.5056 42.8275 53.6275 42.7101 53.7232C42.6776 53.7501 42.6391 53.769 42.5977 53.7781C42.5564 53.7873 42.5134 53.7865 42.4725 53.7758C42.4375 53.7708 42.4055 53.7535 42.3822 53.7271C42.3589 53.7007 42.3459 53.6668 42.3455 53.6317C42.3439 53.6094 42.3303 53.6148 42.3183 53.6196L42.3148 53.621L42.2414 53.6503C42.147 53.6909 42.1355 53.7136 42.171 53.8105ZM31.1244 52.6764C31.2048 52.6731 31.2853 52.6765 31.365 52.6866C31.394 52.6894 31.422 52.6981 31.4474 52.7121C31.4728 52.7261 31.4951 52.7452 31.5127 52.7682C31.5304 52.7911 31.5431 52.8174 31.5501 52.8454C31.5571 52.8735 31.5582 52.9026 31.5534 52.9311C31.55 53.0429 31.5051 53.1495 31.4273 53.2304C31.3496 53.3113 31.2445 53.3608 31.1322 53.3693C31.0702 53.3772 31.0075 53.3794 30.9451 53.3759C30.8849 53.3711 30.8681 53.3956 30.8548 53.4476C30.8369 53.5197 30.8165 53.5915 30.7961 53.663L30.7961 53.6631C30.7768 53.731 30.7575 53.7986 30.7405 53.8661C30.7267 53.9217 30.7062 53.9432 30.6449 53.9408L30.6284 53.9401C30.5764 53.9377 30.5497 53.9365 30.5395 53.9228C30.5286 53.9084 30.5365 53.8799 30.5526 53.8213L30.5534 53.8183L30.5967 53.6628C30.6835 53.3517 30.7702 53.0407 30.8542 52.7296C30.8651 52.6902 30.8795 52.6699 30.9258 52.6699C30.9737 52.6779 31.0226 52.6773 31.0779 52.6768L31.1077 52.6765L31.1244 52.6764ZM31.0516 53.2032L31.052 53.2031C31.0873 53.1995 31.1227 53.1959 31.1575 53.1888C31.2072 53.1777 31.2514 53.1496 31.2823 53.1094C31.3133 53.0691 31.3289 53.0193 31.3265 52.9688C31.326 52.9485 31.3189 52.929 31.3063 52.9131C31.2938 52.8972 31.2764 52.8857 31.2568 52.8803C31.201 52.8656 31.1436 52.858 31.0859 52.8576C31.0773 52.8554 31.0683 52.8552 31.0596 52.857C31.0509 52.8587 31.0426 52.8623 31.0355 52.8676C31.0284 52.8728 31.0225 52.8796 31.0183 52.8874C31.0141 52.8952 31.0117 52.9038 31.0113 52.9126C30.9958 52.9894 30.9757 53.0653 30.9511 53.1397C30.9288 53.1995 30.9487 53.2145 31.0077 53.2079C31.0223 53.2061 31.0369 53.2046 31.0516 53.2032ZM47.5685 52.7595C47.3971 53.0124 47.222 53.2611 47.0415 53.5164C47.0296 53.3866 47.0113 53.2589 46.9929 53.1302L46.9929 53.1301L46.9929 53.1301C46.9788 53.0311 46.9645 52.9316 46.953 52.8301L46.953 52.8296C46.9429 52.747 46.9379 52.7062 46.9148 52.686C46.8922 52.6662 46.8523 52.6662 46.7734 52.6663L46.7629 52.6663C46.7136 52.6663 46.7112 52.683 46.7184 52.726C46.7501 52.9274 46.7802 53.1288 46.8103 53.3301L46.8296 53.4595L46.8556 53.6317C46.8686 53.7188 46.8824 53.8048 46.8971 53.8966L46.8972 53.8971L46.9121 53.9904L47.8507 52.6752C47.8107 52.6784 47.7704 52.6784 47.7304 52.6752C47.6522 52.6615 47.6106 52.6997 47.5685 52.7595ZM33.7398 53.1863C33.7787 53.144 33.8172 53.1024 33.8553 53.0611L33.8555 53.0609L33.8562 53.0602C33.9541 52.9542 34.0496 52.8509 34.1429 52.7457C34.1604 52.7203 34.1846 52.7003 34.2128 52.6878C34.2411 52.6753 34.2723 52.671 34.303 52.6752C34.343 52.678 34.3833 52.678 34.4233 52.6752L34.1538 52.9693L34.0983 53.0302L34.0982 53.0303C34.0263 53.1092 33.9541 53.1885 33.88 53.264C33.8164 53.3283 33.7724 53.4091 33.7531 53.4972C33.737 53.5626 33.7185 53.6274 33.7 53.6921C33.6818 53.7558 33.6636 53.8193 33.6478 53.8834C33.6363 53.9318 33.6147 53.9432 33.569 53.9432H33.4209L33.4504 53.8373L33.4505 53.8367C33.4895 53.6962 33.5271 53.5609 33.5665 53.4261C33.579 53.3853 33.5776 53.3415 33.5623 53.3017C33.5339 53.221 33.5061 53.1401 33.4783 53.0593C33.4403 52.9486 33.4022 52.838 33.3626 52.7278C33.3463 52.683 33.3578 52.6776 33.3999 52.677L33.4106 52.677C33.569 52.6769 33.5701 52.6769 33.6225 52.8366L33.6827 53.0124C33.6935 53.0439 33.7039 53.0761 33.7149 53.11C33.7228 53.1344 33.731 53.1597 33.7398 53.1863ZM26.9334 52.8356L26.9333 52.8404L26.9334 52.8455L26.9339 52.851C26.9615 52.851 26.9892 52.8513 27.0168 52.8516C27.0777 52.8522 27.1386 52.8528 27.1999 52.8504C27.254 52.848 27.2636 52.8599 27.248 52.9137C27.1917 53.1088 27.1374 53.3054 27.0833 53.5011L27.0832 53.5016C27.0541 53.6069 27.0251 53.712 26.9959 53.8165L26.9945 53.8215C26.9784 53.8809 26.9706 53.9097 26.9817 53.9245C26.9921 53.9384 27.0194 53.9397 27.0724 53.9423H27.0724L27.0904 53.9432C27.1565 53.9462 27.18 53.9217 27.1962 53.8619C27.244 53.6846 27.2934 53.5077 27.3428 53.3307L27.3429 53.3305L27.3429 53.3302L27.343 53.33L27.3431 53.3297C27.382 53.1901 27.421 53.0506 27.4592 52.9108C27.4706 52.8683 27.4862 52.848 27.535 52.851C27.5863 52.8534 27.6376 52.8526 27.6889 52.8518H27.689C27.7147 52.8514 27.7404 52.851 27.766 52.851C27.7697 52.8509 27.7735 52.851 27.7774 52.8512H27.7774H27.7774C27.7967 52.8519 27.8164 52.8527 27.8214 52.8223C27.837 52.7748 27.8481 52.726 27.8545 52.6764H27.1222C26.9652 52.6764 26.9652 52.6764 26.9339 52.8306L26.9334 52.8356ZM40.8989 52.6764C40.8996 52.6836 40.8996 52.6908 40.8989 52.6979C40.8598 52.851 40.8598 52.851 40.701 52.851C40.6118 52.851 40.5667 52.851 40.5378 52.8726C40.5082 52.8948 40.4955 52.9396 40.47 53.0303C40.4447 53.1216 40.4192 53.2128 40.3937 53.3041C40.3404 53.4951 40.287 53.6861 40.2353 53.8774C40.2221 53.927 40.2028 53.9456 40.1487 53.9444L40.1383 53.9441C40.0721 53.9426 40.0385 53.9417 40.026 53.9251C40.0131 53.908 40.0225 53.8742 40.0415 53.8055L40.0415 53.8055L40.0428 53.8009C40.0787 53.6739 40.1143 53.5468 40.1499 53.4197L40.1501 53.4189L40.1503 53.4181C40.1968 53.2519 40.2434 53.0857 40.2907 52.9197C40.3057 52.8677 40.2997 52.8468 40.2383 52.8516C40.189 52.8552 40.1391 52.854 40.0892 52.8528L40.0889 52.8528C40.0641 52.8522 40.0393 52.8516 40.0145 52.8516C39.9826 52.8516 39.97 52.842 39.9814 52.8103V52.8031C39.9961 52.7401 40.0035 52.7084 40.0234 52.6925C40.0435 52.6764 40.0765 52.6764 40.1427 52.6764H40.8989ZM24.2855 53.8344C24.2554 53.9414 24.256 53.9414 24.383 53.9414C24.4618 53.9762 24.4783 53.9141 24.4963 53.8465L24.4979 53.8403C24.5592 53.6184 24.6212 53.3959 24.6834 53.1731L24.7807 52.824L24.7811 52.8223C24.8017 52.7488 24.8119 52.712 24.798 52.6936C24.784 52.6752 24.7458 52.6752 24.6694 52.6752C24.6212 52.6752 24.605 52.6901 24.5929 52.735C24.514 53.0216 24.4336 53.3074 24.3532 53.5934L24.2855 53.8344ZM48.6089 52.6764L48.4796 53.1396L48.4787 53.1427C48.4072 53.3988 48.3366 53.6517 48.266 53.9055C48.2644 53.9159 48.259 53.9254 48.251 53.9322C48.2429 53.939 48.2326 53.9427 48.222 53.9426C48.0415 53.9617 48.0373 53.9587 48.0855 53.7878L48.1163 53.6789L48.1164 53.6783C48.2049 53.3663 48.2933 53.0541 48.3779 52.741C48.3917 52.6896 48.411 52.6698 48.4639 52.6752C48.5122 52.6781 48.5606 52.6784 48.6089 52.6764ZM16.015 53.838C15.9874 53.9414 15.9874 53.9414 16.1077 53.9414C16.1841 53.9647 16.2076 53.9169 16.2262 53.841C16.2988 53.5689 16.3751 53.298 16.4513 53.0272C16.4723 52.9523 16.4934 52.8775 16.5144 52.8026C16.5317 52.7393 16.5404 52.7087 16.5288 52.6932C16.517 52.6773 16.4839 52.6774 16.4169 52.6746C16.3538 52.6717 16.3321 52.692 16.3159 52.7518C16.2282 53.0802 16.1361 53.4077 16.044 53.7351L16.015 53.838Z" fill="#3D3D3F"/>
<path d="M49.6546 50.0523C49.4849 50.1927 49.3303 50.3512 49.1697 50.5006C48.8087 50.8336 48.4567 51.169 48.1005 51.5038C48.0813 51.5217 48.0614 51.5378 48.0283 51.5671C48.6619 49.2954 49.2918 47.0446 49.9266 44.7711C50.0012 44.9182 50.0649 45.0455 50.1293 45.1729C50.3146 45.5375 50.4997 45.902 50.6847 46.2663C50.6903 46.2766 50.6965 46.2866 50.7033 46.2962C50.7214 46.335 50.7376 46.3745 50.7569 46.4157C51.0444 46.9872 51.3328 47.5582 51.622 48.1285C51.627 48.1348 51.6306 48.142 51.6326 48.1497C51.6347 48.1575 51.6352 48.1655 51.6341 48.1734C51.633 48.1814 51.6302 48.189 51.6261 48.1958C51.622 48.2027 51.6165 48.2086 51.61 48.2134C51.1203 48.6713 50.6311 49.1296 50.1426 49.5883C49.9795 49.7408 49.8086 49.8879 49.6546 50.0523Z" fill="#F37920"/>
<path d="M49.6557 50.0521C49.8097 49.8877 49.9806 49.7406 50.1436 49.5864C50.6318 49.1261 51.1209 48.6677 51.6111 48.2114C51.6176 48.2067 51.6231 48.2007 51.6272 48.1939C51.6313 48.187 51.634 48.1794 51.6352 48.1715C51.6363 48.1636 51.6358 48.1555 51.6337 48.1478C51.6317 48.1401 51.628 48.1328 51.6231 48.1265C51.3331 47.5562 51.0447 46.9853 50.7579 46.4138C50.7387 46.3755 50.7224 46.336 50.7044 46.2942L51.1255 44.7865C51.1526 44.7967 51.1556 44.8206 51.1653 44.8391C51.7172 45.9287 52.2689 47.0182 52.8204 48.1074C52.8269 48.1161 52.8315 48.1261 52.834 48.1366C52.8364 48.1472 52.8367 48.1582 52.8348 48.1688C52.8329 48.1795 52.8288 48.1897 52.8228 48.1988C52.8168 48.2078 52.8091 48.2156 52.8 48.2216C51.9817 48.9888 51.1642 49.7566 50.3476 50.525C49.9934 50.8586 49.6388 51.1915 49.2839 51.5239C49.2736 51.5335 49.2616 51.5413 49.2363 51.5604L49.3567 51.133C49.4565 50.7739 49.5562 50.4136 49.6557 50.0521Z" fill="#028C44"/>
</g>
<defs>
<clipPath id="clip0_3760_282812">
<rect width="68" height="68" fill="white"/>
</clipPath>
</defs>
</svg>
