<svg width="68" height="68" viewBox="0 0 68 68" fill="none" xmlns="http://www.w3.org/2000/svg">
<rect width="68" height="68" rx="20" fill="#3F23B0"/>
<path fill-rule="evenodd" clip-rule="evenodd" d="M15.4673 23.8569C15.7188 23.3362 16.2105 22.8481 16.6788 22.6528C16.9532 22.5333 20.1771 22.5115 33.9757 22.5017C35.3735 22.5017 36.6594 22.5014 37.8427 22.501C50.4236 22.4975 51.399 22.4973 51.8511 22.9633C51.8891 23.0024 51.9233 23.0448 51.9604 23.0907L51.9605 23.0908L51.9606 23.0909L51.9606 23.0909L51.9606 23.0909C52.0026 23.1429 52.0483 23.1995 52.1071 23.261C52.3241 23.4887 52.5529 23.8685 52.6214 24.0962C52.7929 24.6605 52.7929 43.331 52.6214 43.9058C52.473 44.4156 51.9357 45.0123 51.364 45.2944C50.9412 45.5003 50.5294 45.5003 34.0101 45.5003C23.8242 45.5003 16.9876 45.4567 16.8162 45.4026C16.3589 45.229 15.6847 44.6106 15.4673 44.144C15.2615 43.7319 15.25 43.1567 15.25 34.0005C15.25 24.8116 15.2615 24.269 15.4673 23.8569ZM52.0386 23.9219C51.8898 23.6506 51.6269 23.3362 51.4555 23.2167C51.1357 22.9891 51.0897 22.989 34.1484 22.9669L34.1353 22.9669C19.9938 22.9455 17.0787 22.9669 16.7814 23.0863C16.5874 23.1731 16.2786 23.423 16.0957 23.6506L15.7643 24.0519L15.7299 33.8265L15.7069 43.6011L15.9583 44.0787C16.1072 44.3499 16.37 44.6644 16.5415 44.7839C16.8618 45.0115 16.8847 45.0115 33.9757 45.0115H51.0897L51.467 44.7621C51.5141 44.7299 51.5584 44.702 51.6 44.6757C51.6716 44.6306 51.7352 44.5905 51.7916 44.5427C52.2371 44.1654 52.2396 43.3079 52.2623 35.6834V35.6833V35.6833V35.6832V35.6831V35.6831V35.683V35.6829V35.6829V35.6828L52.2671 34.1087L52.2901 24.399L52.0386 23.9219ZM18.7935 34.2137V29.9284H18.7938V25.6435H20.0857L21.3661 25.6544L21.8348 26.2728C22.0862 26.6091 22.8978 27.6614 23.6295 28.6052L24.9672 30.33V27.9868V25.6435H26.2247H27.4821V29.9288V34.2249L26.2587 34.1922L25.0239 34.1595L23.2518 31.8599C22.2798 30.5904 21.4338 29.473 21.3653 29.3754C21.2853 29.2668 21.2624 30.0152 21.2853 31.7077L21.3312 34.2137H20.0623H18.7935ZM29.1968 29.9284V34.2137H32.1119H35.0269V33.1831V32.1526H33.4837H31.9404V31.556V30.9593H33.3123H34.6841V29.9288V28.8979H33.3123H31.929L31.9634 28.2686L31.9978 27.6502L33.4611 27.6175L34.9129 27.5848V26.6193V25.6428H32.0548H29.1968V29.9284ZM35.7139 27.5904V26.6249V25.6488H39.6005H43.4872V26.6252V27.6017H42.2298H40.9723V30.9105V34.2193H39.6013H38.2295L38.2065 30.9323L38.1721 27.6558L36.9487 27.6231L35.7139 27.5904ZM33.313 38.9907V41.8114H34.1705H35.0166L35.051 40.8786L35.0855 39.9453L35.4857 40.8459L35.8971 41.757L36.8461 41.7896L37.7951 41.8223L37.2119 40.7918L36.6402 39.7612L37.1434 38.9366C37.4292 38.4808 37.6577 38.0905 37.6577 38.0578C37.6577 38.0251 37.2463 38.0142 36.7317 38.036L35.8056 38.0687L35.4513 38.8825L35.0855 39.6962L35.051 37.9278L35.0281 36.1703H34.1705H33.313V38.9907ZM38.2396 37.4074C37.9422 37.0493 37.9308 36.7781 38.2281 36.4959C38.5139 36.2247 39.3141 36.2029 39.6229 36.4636C39.8747 36.6804 39.8858 37.2229 39.6344 37.4941C39.5085 37.6245 39.2911 37.6895 38.9597 37.6895C38.5713 37.6895 38.4225 37.635 38.2396 37.4074ZM18.4514 39.1649V41.8336L20.2005 41.79C21.6868 41.7573 21.9956 41.725 22.327 41.5405C22.8987 41.2151 23.173 40.8135 23.1845 40.2496C23.196 39.7071 22.8872 39.284 22.2929 39.0455C21.9726 38.9151 21.9726 38.9046 22.2015 38.8396C22.6017 38.7201 23.0245 38.1453 23.0245 37.7437C23.0245 37.2665 22.5902 36.789 22.0185 36.6263C21.7671 36.5504 20.8752 36.496 20.0065 36.496H18.4514V39.1649ZM21.0581 37.711C21.2639 37.9063 21.218 38.3185 20.9781 38.4485C20.8522 38.5026 20.6008 38.5571 20.4064 38.5571C20.0635 38.5571 20.0521 38.5462 20.0521 38.069V37.581H20.4864C20.7263 37.581 20.9781 37.6351 21.0581 37.711ZM21.218 39.8266C21.6753 40.2169 21.3095 40.7271 20.5434 40.7271H20.0517V40.1846V39.6421H20.5319C20.8067 39.6421 21.0925 39.718 21.218 39.8266ZM24.0549 38.2247C24.1235 38.1448 24.2521 38.1122 24.509 38.047C25.1837 37.8629 26.4755 37.9385 26.8524 38.1669C27.4356 38.5358 27.5267 38.8071 27.5726 40.3692L27.6185 41.8119H26.8069C26.0752 41.8119 25.9953 41.7902 25.9953 41.5948C25.9953 41.3994 25.9723 41.3994 25.5835 41.6489C24.6464 42.2564 23.5945 41.7575 23.5945 40.716C23.5945 39.9349 24.1547 39.5333 25.458 39.3706C26.0182 39.3056 26.0871 39.2294 25.8583 39.0126C25.6754 38.8394 25.0122 38.8608 24.452 39.0453L24.3689 39.074C24.154 39.1481 23.9807 39.208 23.9603 39.208C23.9373 39.208 23.9373 38.9803 23.9603 38.6872C23.9775 38.4321 23.9861 38.3047 24.0549 38.2247ZM25.4006 40.8133C25.7439 40.8678 25.9953 40.6616 25.9953 40.3362C25.9953 40.054 25.8009 40.0108 25.3321 40.1949C24.9778 40.3253 25.0233 40.7701 25.4006 40.8133ZM30.6154 38.0578C30.4095 38.1446 30.1926 38.2964 30.1237 38.4159C30.0207 38.5894 30.0093 38.5785 29.9978 38.3073V38.0142H29.1402H28.2827V39.9127V41.8111H29.1402H29.9867L30.0211 40.5525C30.0556 39.4784 30.0896 39.2616 30.2611 39.1639C30.3984 39.0771 30.5125 39.0771 30.6613 39.1639C30.8213 39.2616 30.8557 39.4784 30.8901 40.5525L30.9246 41.8111H31.7813H32.6504L32.6044 40.3139C32.57 39.3484 32.5015 38.7191 32.3986 38.5241C32.1016 37.9601 31.347 37.7651 30.6154 38.0578ZM42.5501 38.3182C42.7215 38.1664 42.9388 38.0146 43.0303 37.9819C43.3391 37.8734 43.8764 37.906 44.1741 38.0462C44.7117 38.296 44.8602 38.7841 44.8602 40.368V41.8107H44.0026H43.1566L43.1221 40.4762L43.122 40.4721C43.0877 39.1639 43.0874 39.153 42.8133 39.1203C42.3446 39.0553 42.2302 39.3375 42.2302 40.6393V41.8111H41.43H40.6299V39.9127V38.0142H41.43C42.2187 38.0142 42.2302 38.0142 42.2302 38.3073V38.6003L42.5501 38.3182ZM46.4359 38.1294C45.3499 38.6719 45.11 40.6244 46.013 41.4814C46.5617 42.0021 47.5222 42.0457 48.0365 41.5791L48.2879 41.3619V41.6441C48.2879 41.7959 48.162 42.0453 47.9906 42.2084C47.7277 42.4578 47.6362 42.4796 46.9961 42.436C46.6073 42.4034 46.1959 42.3493 46.093 42.2952C45.9101 42.2302 45.8871 42.2843 45.8871 42.8159C45.8871 43.532 45.9671 43.5752 47.1445 43.5646C48.1735 43.5646 48.8252 43.3584 49.328 42.8812C49.8882 42.3496 50.0026 41.8289 50.0026 39.7569V38.0103H49.1451C48.4364 38.0103 48.2875 38.043 48.2875 38.1838C48.2875 38.3247 48.2305 38.3138 47.9902 38.1297C47.6018 37.8476 46.9961 37.8476 46.4359 38.1294ZM48.1505 39.2253C48.322 39.388 48.3334 40.2235 48.1735 40.5162C48.0476 40.7334 47.6592 40.7875 47.3963 40.6248C47.1449 40.473 47.0875 39.681 47.3049 39.3662C47.5104 39.0731 47.9221 39.0081 48.1505 39.2253ZM38.114 41.8113V39.9129V38.0144H38.9716H39.8291V39.9129V41.8113H38.9716H38.114Z" fill="white"/>
</svg>
