<svg width="68" height="68" viewBox="0 0 68 68" fill="none" xmlns="http://www.w3.org/2000/svg">
<rect width="68" height="68" rx="20" fill="#D1F4FF"/>
<path fill-rule="evenodd" clip-rule="evenodd" d="M33.586 29.4505H35.4257C35.6508 29.4505 35.8324 29.6399 35.8321 29.8724V37.8519C35.8321 39.4949 34.7037 40.6651 33.1183 40.6651H30.1103C29.8855 40.6651 29.7037 40.4767 29.7037 40.2434V38.3364C29.7037 38.1041 29.8853 37.9147 30.1103 37.9147L32.8008 37.9048L32.8092 37.9032C32.817 37.9015 32.8243 37.8997 32.832 37.8984C33.044 37.8707 33.2077 37.6849 33.2077 37.4579C33.2077 37.2281 33.0407 37.0414 32.8261 37.0163C32.7898 37.0091 31.6007 37.0091 31.6007 37.0091C30.0162 37.0091 28.887 35.8381 28.887 34.1959V29.8723C28.887 29.6399 29.0686 29.4505 29.2937 29.4505H31.1336C31.3577 29.4505 31.5403 29.6399 31.5403 29.8723L31.5472 33.8099C31.5472 34.0577 31.7402 34.2568 31.979 34.2568H32.7491C32.9854 34.2568 33.1758 34.0613 33.1801 33.8171V29.8723C33.1801 29.6399 33.3619 29.4505 33.586 29.4505ZM13.7583 29.4502H17.7796C19.2525 29.4502 20.2789 30.5135 20.2791 32.0472V34.7383C20.2791 36.272 19.2527 37.3317 17.7798 37.3317H16.0196L16.0127 40.231C16.0127 40.4642 15.8301 40.6528 15.606 40.6528H13.7316C13.5255 40.6474 13.3594 40.4599 13.3594 40.2302V31.7699C13.3594 31.766 13.3596 31.7619 13.3598 31.7576C13.36 31.7531 13.3602 31.7485 13.3602 31.7439L13.3598 31.7385L13.3594 31.7331V29.8639C13.3594 29.6358 13.5377 29.4502 13.7583 29.4502ZM17.1869 34.5714C17.4248 34.5714 17.6178 34.3703 17.6178 34.1236V32.66C17.6178 32.4122 17.4248 32.2131 17.1869 32.2131H16.0195V34.5722L17.1869 34.5714ZM22.4062 29.461H24.9589C27.0446 29.461 27.9169 30.5693 27.9169 32.3245V39.5631C27.9169 40.142 27.4314 40.6122 26.8325 40.6122H23.4964C21.9068 40.6122 20.9263 39.5165 20.9263 37.9767V35.7585C20.9263 34.2096 22.0668 33.1067 23.6678 33.1067H24.8716C25.055 33.0887 25.2056 32.9309 25.2272 32.7146V32.4687C25.2056 32.2417 25.0532 32.0963 24.8612 32.065H22.4303C22.1915 32.065 21.9977 31.8766 21.9977 31.646V30.6292L21.9981 30.6212L21.9985 30.6132L21.9981 30.606L21.9977 30.5988V29.8567C21.9977 29.6387 22.1803 29.461 22.4062 29.461ZM25.2446 37.7931C25.248 37.7707 25.2515 37.7474 25.2515 37.7231L25.2513 36.0925C25.2513 35.86 25.0575 35.6725 24.8177 35.6725H24.0519C23.8131 35.6725 23.6201 35.8591 23.6193 36.0898L23.6185 36.0925V36.3922L23.6176 37.3497C23.6176 37.3543 23.6185 37.3587 23.6185 37.3632V37.7231C23.6185 37.9546 23.8133 38.1431 24.0521 38.1431H24.8179C25.0091 38.1431 25.1701 38.0221 25.2272 37.8551C25.2345 37.8349 25.2402 37.8142 25.2446 37.7931Z" fill="#1F336B"/>
<path fill-rule="evenodd" clip-rule="evenodd" d="M51.9056 29.3407C53.1049 29.3407 54.1261 30.1384 54.5008 31.2493C54.5814 31.4861 54.6401 31.7168 54.6401 32.2589V40.2077C54.6401 40.4417 54.4575 40.6302 54.2335 40.6302H52.3937C52.1696 40.6302 51.987 40.4419 51.987 40.2077L51.9801 32.8169C51.9809 32.4525 51.7403 32.1394 51.3422 32.1034H51.003C50.8724 32.1161 50.759 32.1582 50.6647 32.221C50.4735 32.352 50.3645 32.5727 50.3653 32.8169L50.3662 40.2481C50.3558 40.4715 50.1791 40.651 49.962 40.651H48.1222C47.8981 40.651 47.7155 40.4616 47.7155 40.2273L47.7086 32.8267C47.7086 32.6041 47.6196 32.4012 47.4594 32.2693C47.3565 32.1841 47.2257 32.1276 47.0709 32.1132H46.7317C46.3612 32.1474 46.1267 32.4202 46.0973 32.7522C46.0947 32.7765 46.0938 32.8006 46.0938 32.8267L46.0947 40.264C46.0678 40.4695 45.899 40.6284 45.6939 40.6284H43.8541C43.6293 40.6284 43.4475 40.44 43.4475 40.2058V29.8456C43.4475 29.6116 43.6291 29.4231 43.8541 29.4231H45.6939C45.9076 29.4231 46.0806 29.5945 46.0971 29.8126V30.0316C46.5783 29.601 47.2048 29.3407 47.8902 29.3407H47.9153C48.6942 29.3407 49.3969 29.6772 49.8979 30.2174C50.398 29.6772 51.1008 29.3407 51.8805 29.3407H51.9056ZM40.9934 29.4501H42.0457C42.27 29.4501 42.4526 29.6395 42.4523 29.872V31.7798C42.4523 32.0121 42.2697 32.2015 42.0456 32.2015H41.0149L41.0141 40.2914C41.0141 40.522 40.8341 40.7087 40.6125 40.7087H38.7935C38.5711 40.7087 38.3911 40.522 38.3911 40.2914L38.3928 32.2015H37.2825C37.0576 32.2015 36.875 32.0121 36.875 31.7798V29.8718C36.875 29.6708 37.0117 29.5039 37.1935 29.4618C37.2221 29.4554 37.2515 29.4501 37.2827 29.4501H37.4896C38.7573 29.3652 39.1875 28.7371 39.5742 28.1726C39.8372 27.7888 40.0799 27.4344 40.5521 27.3C40.5747 27.2956 40.598 27.292 40.6222 27.292C40.8273 27.292 40.9934 27.4642 40.9934 27.6769V29.4501Z" fill="#00BAF2"/>
</svg>
