<svg width="68" height="68" viewBox="0 0 68 68" fill="none" xmlns="http://www.w3.org/2000/svg">
<path d="M0 18C0 8.05888 8.05888 0 18 0H50C59.9411 0 68 8.05888 68 18V50C68 59.9411 59.9411 68 50 68H18C8.05888 68 0 59.9411 0 50V18Z" fill="#E5CDFF"/>
<path d="M17.6113 39.4729C21.0699 39.4729 23.8521 36.6693 23.8254 33.2108C23.7987 29.7524 20.9733 26.9487 17.5146 26.9487C14.056 26.9487 11.2738 29.7524 11.3005 33.2108C11.3272 36.6693 14.1526 39.4729 17.6113 39.4729Z" fill="#5F259F"/>
<path d="M43.3679 36.8135V34.5496C43.3679 33.9924 43.1553 33.7137 42.6238 33.7137C42.4112 33.7137 42.1631 33.7486 42.0214 33.7834V37.0922C42.0214 37.1967 41.9151 37.3011 41.8088 37.3011H40.9938C40.8875 37.3011 40.7812 37.1967 40.7812 37.0922V33.2261C40.7812 33.0868 40.8875 32.9823 40.9938 32.9475C41.5253 32.7734 42.0568 32.6689 42.6238 32.6689C43.8994 32.6689 44.6081 33.3306 44.6081 34.5496V37.127C44.6081 37.2315 44.5018 37.336 44.3955 37.336H43.8994C43.5805 37.336 43.3679 37.0922 43.3679 36.8135V36.8135ZM46.5571 35.4552L46.5216 35.7687C46.5216 36.1866 46.8051 36.4304 47.2658 36.4304C47.6201 36.4304 47.939 36.3259 48.2934 36.1518C48.3288 36.1518 48.3643 36.1169 48.3997 36.1169C48.4706 36.1169 48.506 36.1518 48.5414 36.1866C48.5769 36.2214 48.6477 36.3259 48.6477 36.3259C48.7186 36.4304 48.7895 36.5697 48.7895 36.6742C48.7895 36.8484 48.6832 37.0225 48.5414 37.0922C48.1516 37.3011 47.691 37.4056 47.1949 37.4056C46.6279 37.4056 46.1673 37.2663 45.8129 36.9877C45.4586 36.6742 45.246 36.2563 45.246 35.7338V34.3755C45.246 33.2958 45.9547 32.634 47.1595 32.634C48.3288 32.634 49.0021 33.261 49.0021 34.3755V35.2114C49.0021 35.3159 48.8958 35.4204 48.7895 35.4204H46.5571V35.4552ZM46.5216 34.689H47.8682V34.3407C47.8682 33.9227 47.6201 33.6441 47.1949 33.6441C46.7697 33.6441 46.5216 33.8879 46.5216 34.3407V34.689ZM55.5576 35.4552L55.5221 35.7687C55.5221 36.1866 55.8056 36.4304 56.2663 36.4304C56.6206 36.4304 56.9395 36.3259 57.2939 36.1518C57.3293 36.1518 57.3648 36.1169 57.4002 36.1169C57.4711 36.1169 57.5065 36.1518 57.5419 36.1866C57.5774 36.2214 57.6482 36.3259 57.6482 36.3259C57.7191 36.4304 57.79 36.5697 57.79 36.6742C57.79 36.8484 57.6837 37.0225 57.5419 37.0922C57.1521 37.3011 56.6915 37.4056 56.1954 37.4056C55.6284 37.4056 55.1678 37.2663 54.8134 36.9877C54.4591 36.6742 54.2465 36.2563 54.2465 35.7338V34.3755C54.2465 33.2958 54.9552 32.634 56.16 32.634C57.3293 32.634 58.0026 33.261 58.0026 34.3755V35.2114C58.0026 35.3159 57.8963 35.4204 57.79 35.4204H55.5576V35.4552ZM55.5221 34.689H56.8687V34.3407C56.8687 33.9227 56.6206 33.6441 56.1954 33.6441C55.7702 33.6441 55.5221 33.8879 55.5221 34.3407V34.689ZM34.6863 37.336H35.1824C35.2887 37.336 35.395 37.2315 35.395 37.127V34.5496C35.395 33.3654 34.7572 32.6689 33.6942 32.6689C33.3752 32.6689 33.0209 32.7385 32.8083 32.8082V31.5195C32.8083 31.2409 32.5602 30.9971 32.2768 30.9971H31.7807C31.6744 30.9971 31.568 31.1016 31.568 31.206V37.127C31.568 37.2315 31.6744 37.336 31.7807 37.336H32.5957C32.702 37.336 32.8083 37.2315 32.8083 37.127V33.8531C32.9855 33.7834 33.2335 33.7486 33.4107 33.7486C33.9422 33.7486 34.1548 33.9924 34.1548 34.5845V36.8484C34.1902 37.0922 34.4029 37.336 34.6863 37.336V37.336ZM40.037 34.4103V35.699C40.037 36.7787 39.2929 37.4405 38.0527 37.4405C36.8479 37.4405 36.0683 36.7787 36.0683 35.699V34.4103C36.0683 33.3306 36.8124 32.6689 38.0527 32.6689C39.2929 32.6689 40.037 33.3306 40.037 34.4103V34.4103ZM38.7968 34.4103C38.7968 33.9924 38.5488 33.7137 38.0881 33.7137C37.6274 33.7137 37.3794 33.9575 37.3794 34.4103V35.699C37.3794 36.1169 37.6274 36.3608 38.0881 36.3608C38.5488 36.3608 38.7968 36.1169 38.7968 35.699V34.4103ZM30.8948 33.8182C30.8948 34.9328 30.0443 35.699 28.9104 35.699C28.6269 35.699 28.3789 35.6642 28.1309 35.5597V37.127C28.1309 37.2315 28.0245 37.336 27.9182 37.336H27.1032C26.9969 37.336 26.8906 37.2315 26.8906 37.127V31.5892C26.8906 31.4498 26.9969 31.3454 27.1032 31.3105C27.6348 31.1364 28.1663 31.0319 28.7332 31.0319C30.0089 31.0319 30.8948 31.7981 30.8948 32.9823V33.8182ZM29.6191 32.9127C29.6191 32.3554 29.2293 32.0768 28.6978 32.0768C28.3789 32.0768 28.1663 32.1813 28.1663 32.1813V34.48C28.3789 34.5845 28.4852 34.6193 28.7332 34.6193C29.2648 34.6193 29.6546 34.3058 29.6546 33.7834V32.9127H29.6191ZM53.7858 33.8182C53.7858 34.9328 52.9354 35.699 51.8015 35.699C51.518 35.699 51.2699 35.6642 51.0219 35.5597V37.127C51.0219 37.2315 50.9156 37.336 50.8093 37.336H49.9943C49.888 37.336 49.7817 37.2315 49.7817 37.127V31.5892C49.7817 31.4498 49.888 31.3454 49.9943 31.3105C50.5258 31.1364 51.0573 31.0319 51.6243 31.0319C52.8999 31.0319 53.7858 31.7981 53.7858 32.9823V33.8182ZM52.5102 32.9127C52.5102 32.3554 52.1204 32.0768 51.5888 32.0768C51.2699 32.0768 51.0573 32.1813 51.0573 32.1813V34.48C51.2699 34.5845 51.3762 34.6193 51.6243 34.6193C52.1558 34.6193 52.5456 34.3058 52.5456 33.7834V32.9127H52.5102Z" fill="#5F259F"/>
<path d="M20.5083 31.6233C20.5083 31.3795 20.2957 31.1705 20.0477 31.1705H19.1972L17.2483 28.9763C17.0711 28.7673 16.7877 28.6977 16.5042 28.7673L15.8309 28.9763C15.7246 29.0111 15.6892 29.1505 15.76 29.2201L17.8861 31.2054H14.6616C14.5552 31.2054 14.4844 31.275 14.4844 31.3795V31.7278C14.4844 31.9716 14.697 32.1806 14.945 32.1806H15.4411V33.8524C15.4411 35.1062 16.1144 35.8376 17.2483 35.8376C17.6027 35.8376 17.8861 35.8028 18.2405 35.6635V36.778C18.2405 37.0915 18.4885 37.3353 18.8074 37.3353H19.3035C19.4098 37.3353 19.5161 37.2308 19.5161 37.1263V32.1458H20.3312C20.4375 32.1458 20.5083 32.0761 20.5083 31.9716V31.6233ZM18.2405 34.6186C18.0279 34.7231 17.7444 34.7579 17.5318 34.7579C16.9648 34.7579 16.6813 34.4793 16.6813 33.8524V32.1806H18.2405V34.6186Z" fill="white"/>
<path d="M49 52L49 56C49 56.5523 49.4477 57 50 57L54 57C54.5523 57 55 56.5523 55 56L55 52C55 51.4477 54.5523 51 54 51L50 51C49.4477 51 49 51.4477 49 52Z" fill="#5F259F" fill-opacity="0.7"/>
<path d="M47 61C46.4477 61 46 60.5523 46 60V60C46 59.4477 46.4477 59 47 59L59 59L59 60C59 60.5523 58.5523 61 58 61L47 61Z" fill="#5F259F" fill-opacity="0.7"/>
<path d="M57 49C57 48.4477 57.4477 48 58 48V48C58.5523 48 59 48.4477 59 49V59H57V49Z" fill="#5F259F" fill-opacity="0.7"/>
<path d="M18 17L18 13C18 12.4477 17.5523 12 17 12L13 12C12.4477 12 12 12.4477 12 13L12 17C12 17.5523 12.4477 18 13 18L17 18C17.5523 18 18 17.5523 18 17Z" fill="#5F259F" fill-opacity="0.7"/>
<path d="M20 8C20.5523 8 21 8.44772 21 9V9C21 9.55228 20.5523 10 20 10L8 10L8 9C8 8.44771 8.44772 8 9 8L20 8Z" fill="#5F259F" fill-opacity="0.7"/>
<path d="M10 20C10 20.5523 9.55228 21 9 21V21C8.44772 21 8 20.5523 8 20L8 10L10 10L10 20Z" fill="#5F259F" fill-opacity="0.7"/>
<path d="M12.3613 56.571H13.742L14.2406 57.1974L15.0843 58.1562L16.1838 59.4858H14.6113L13.8315 58.5781L13.3074 57.8239L12.3613 56.571ZM16.171 55.7273C16.171 56.456 16.0293 57.0707 15.7459 57.5714C15.4625 58.07 15.0801 58.4482 14.5985 58.706C14.117 58.9616 13.5801 59.0895 12.9877 59.0895C12.3912 59.0895 11.8521 58.9606 11.3706 58.7028C10.8912 58.4428 10.5098 58.0636 10.2264 57.565C9.94513 57.0643 9.80451 56.4517 9.80451 55.7273C9.80451 54.9986 9.94513 54.3849 10.2264 53.8864C10.5098 53.3857 10.8912 53.0075 11.3706 52.7518C11.8521 52.494 12.3912 52.3651 12.9877 52.3651C13.5801 52.3651 14.117 52.494 14.5985 52.7518C15.0801 53.0075 15.4625 53.3857 15.7459 53.8864C16.0293 54.3849 16.171 54.9986 16.171 55.7273ZM14.3429 55.7273C14.3429 55.3352 14.2907 55.005 14.1863 54.7365C14.084 54.4659 13.9316 54.2614 13.7292 54.1229C13.5289 53.9822 13.2818 53.9119 12.9877 53.9119C12.6937 53.9119 12.4455 53.9822 12.2431 54.1229C12.0428 54.2614 11.8904 54.4659 11.786 54.7365C11.6838 55.005 11.6326 55.3352 11.6326 55.7273C11.6326 56.1193 11.6838 56.4506 11.786 56.7212C11.8904 56.9897 12.0428 57.1942 12.2431 57.3349C12.4455 57.4734 12.6937 57.5426 12.9877 57.5426C13.2818 57.5426 13.5289 57.4734 13.7292 57.3349C13.9316 57.1942 14.084 56.9897 14.1863 56.7212C14.2907 56.4506 14.3429 56.1193 14.3429 55.7273ZM17.002 59V52.4545H19.8272C20.313 52.4545 20.7381 52.543 21.1025 52.7198C21.4668 52.8967 21.7502 53.1513 21.9526 53.4837C22.155 53.8161 22.2562 54.2145 22.2562 54.679C22.2562 55.1477 22.1518 55.543 21.943 55.8647C21.7363 56.1864 21.4455 56.4293 21.0705 56.5934C20.6976 56.7575 20.2619 56.8395 19.7633 56.8395H18.0758V55.4588H19.4054C19.6142 55.4588 19.7921 55.4332 19.9391 55.3821C20.0882 55.3288 20.2022 55.2447 20.2811 55.1296C20.362 55.0146 20.4025 54.8643 20.4025 54.679C20.4025 54.4915 20.362 54.3391 20.2811 54.2219C20.2022 54.1026 20.0882 54.0153 19.9391 53.9599C19.7921 53.9023 19.6142 53.8736 19.4054 53.8736H18.7789V59H17.002ZM20.8372 55.9957L22.4735 59H20.5431L18.9451 55.9957H20.8372Z" fill="#5F259F" fill-opacity="0.7"/>
</svg>
