<svg width="68" height="68" viewBox="0 0 68 68" fill="none" xmlns="http://www.w3.org/2000/svg"> <rect width="68" height="68" rx="20" fill="#E5CDFF"/> <path d="M23.6636 34.6009C24.4715 31.3779 22.3953 28.1577 19.0261 27.4084C15.657 26.659 12.2708 28.6643 11.4629 31.8872C10.655 35.1102 12.7312 38.3304 16.1004 39.0797C19.4695 39.8291 22.8557 37.8239 23.6636 34.6009Z" fill="#5F259F"/> <path d="M43.3679 36.6963V34.5267C43.3679 33.9927 43.1553 33.7257 42.6238 33.7257C42.4112 33.7257 42.1631 33.759 42.0214 33.7924V36.9633C42.0214 37.0635 41.9151 37.1636 41.8088 37.1636H40.9938C40.8875 37.1636 40.7812 37.0635 40.7812 36.9633V33.2584C40.7812 33.1249 40.8875 33.0247 40.9938 32.9914C41.5253 32.8245 42.0568 32.7243 42.6238 32.7243C43.8994 32.7243 44.6081 33.3585 44.6081 34.5267V36.9967C44.6081 37.0968 44.5018 37.197 44.3955 37.197H43.8994C43.5805 37.197 43.3679 36.9633 43.3679 36.6963V36.6963ZM46.5571 35.3946L46.5216 35.695C46.5216 36.0955 46.8051 36.3291 47.2658 36.3291C47.6201 36.3291 47.939 36.229 48.2934 36.0621C48.3288 36.0621 48.3643 36.0287 48.3997 36.0287C48.4706 36.0287 48.506 36.0621 48.5414 36.0955C48.5769 36.1289 48.6477 36.229 48.6477 36.229C48.7186 36.3291 48.7895 36.4627 48.7895 36.5628C48.7895 36.7297 48.6832 36.8966 48.5414 36.9633C48.1516 37.1636 47.691 37.2637 47.1949 37.2637C46.6279 37.2637 46.1673 37.1302 45.8129 36.8632C45.4586 36.5628 45.246 36.1623 45.246 35.6616V34.3598C45.246 33.3251 45.9547 32.691 47.1595 32.691C48.3288 32.691 49.0021 33.2918 49.0021 34.3598V35.1609C49.0021 35.2611 48.8958 35.3612 48.7895 35.3612H46.5571V35.3946ZM46.5216 34.6602H47.8682V34.3265C47.8682 33.9259 47.6201 33.6589 47.1949 33.6589C46.7697 33.6589 46.5216 33.8926 46.5216 34.3265V34.6602ZM55.5576 35.3946L55.5221 35.695C55.5221 36.0955 55.8056 36.3291 56.2663 36.3291C56.6206 36.3291 56.9395 36.229 57.2939 36.0621C57.3293 36.0621 57.3648 36.0287 57.4002 36.0287C57.4711 36.0287 57.5065 36.0621 57.5419 36.0955C57.5774 36.1289 57.6482 36.229 57.6482 36.229C57.7191 36.3291 57.79 36.4627 57.79 36.5628C57.79 36.7297 57.6837 36.8966 57.5419 36.9633C57.1521 37.1636 56.6915 37.2637 56.1954 37.2637C55.6284 37.2637 55.1678 37.1302 54.8134 36.8632C54.4591 36.5628 54.2465 36.1623 54.2465 35.6616V34.3598C54.2465 33.3251 54.9552 32.691 56.16 32.691C57.3293 32.691 58.0026 33.2918 58.0026 34.3598V35.1609C58.0026 35.2611 57.8963 35.3612 57.79 35.3612H55.5576V35.3946ZM55.5221 34.6602H56.8687V34.3265C56.8687 33.9259 56.6206 33.6589 56.1954 33.6589C55.7702 33.6589 55.5221 33.8926 55.5221 34.3265V34.6602ZM34.6863 37.197H35.1824C35.2887 37.197 35.395 37.0968 35.395 36.9967V34.5267C35.395 33.3919 34.7572 32.7243 33.6942 32.7243C33.3752 32.7243 33.0209 32.7911 32.8083 32.8578V31.6229C32.8083 31.3558 32.5602 31.1222 32.2768 31.1222H31.7807C31.6744 31.1222 31.568 31.2223 31.568 31.3225V36.9967C31.568 37.0968 31.6744 37.197 31.7807 37.197H32.5957C32.702 37.197 32.8083 37.0968 32.8083 36.9967V33.8592C32.9855 33.7924 33.2335 33.759 33.4107 33.759C33.9422 33.759 34.1548 33.9927 34.1548 34.5601V36.7297C34.1902 36.9633 34.4029 37.197 34.6863 37.197V37.197ZM40.037 34.3932V35.6282C40.037 36.6629 39.2929 37.2971 38.0527 37.2971C36.8479 37.2971 36.0683 36.6629 36.0683 35.6282V34.3932C36.0683 33.3585 36.8124 32.7243 38.0527 32.7243C39.2929 32.7243 40.037 33.3585 40.037 34.3932V34.3932ZM38.7968 34.3932C38.7968 33.9927 38.5488 33.7257 38.0881 33.7257C37.6274 33.7257 37.3794 33.9593 37.3794 34.3932V35.6282C37.3794 36.0287 37.6274 36.2624 38.0881 36.2624C38.5488 36.2624 38.7968 36.0287 38.7968 35.6282V34.3932ZM30.8948 33.8258C30.8948 34.8939 30.0443 35.6282 28.9104 35.6282C28.6269 35.6282 28.3789 35.5948 28.1309 35.4947V36.9967C28.1309 37.0968 28.0245 37.197 27.9182 37.197H27.1032C26.9969 37.197 26.8906 37.0968 26.8906 36.9967V31.6896C26.8906 31.5561 26.9969 31.456 27.1032 31.4226C27.6348 31.2557 28.1663 31.1556 28.7332 31.1556C30.0089 31.1556 30.8948 31.8899 30.8948 33.0247V33.8258ZM29.6191 32.958C29.6191 32.4239 29.2293 32.1569 28.6978 32.1569C28.3789 32.1569 28.1663 32.257 28.1663 32.257V34.46C28.3789 34.5601 28.4852 34.5935 28.7332 34.5935C29.2648 34.5935 29.6546 34.2931 29.6546 33.7924V32.958H29.6191ZM53.7858 33.8258C53.7858 34.8939 52.9354 35.6282 51.8015 35.6282C51.518 35.6282 51.2699 35.5948 51.0219 35.4947V36.9967C51.0219 37.0968 50.9156 37.197 50.8093 37.197H49.9943C49.888 37.197 49.7817 37.0968 49.7817 36.9967V31.6896C49.7817 31.5561 49.888 31.456 49.9943 31.4226C50.5258 31.2557 51.0573 31.1556 51.6243 31.1556C52.8999 31.1556 53.7858 31.8899 53.7858 33.0247V33.8258ZM52.5102 32.958C52.5102 32.4239 52.1204 32.1569 51.5888 32.1569C51.2699 32.1569 51.0573 32.257 51.0573 32.257V34.46C51.2699 34.5601 51.3762 34.5935 51.6243 34.5935C52.1558 34.5935 52.5456 34.2931 52.5456 33.7924V32.958H52.5102Z" fill="#5F259F"/> <path d="M20.5083 31.7223C20.5083 31.4887 20.2957 31.2884 20.0477 31.2884H19.1972L17.2483 29.1856C17.0711 28.9854 16.7877 28.9186 16.5042 28.9854L15.8309 29.1856C15.7246 29.219 15.6892 29.3525 15.76 29.4193L17.8861 31.3218H14.6616C14.5552 31.3218 14.4844 31.3886 14.4844 31.4887V31.8225C14.4844 32.0561 14.697 32.2564 14.945 32.2564H15.4411V33.8585C15.4411 35.0601 16.1144 35.7611 17.2483 35.7611C17.6027 35.7611 17.8861 35.7277 18.2405 35.5942V36.6623C18.2405 36.9627 18.4885 37.1963 18.8074 37.1963H19.3035C19.4098 37.1963 19.5161 37.0962 19.5161 36.9961V32.223H20.3312C20.4375 32.223 20.5083 32.1563 20.5083 32.0561V31.7223ZM18.2405 34.5929C18.0279 34.693 17.7444 34.7264 17.5318 34.7264C16.9648 34.7264 16.6813 34.4593 16.6813 33.8585V32.2564H18.2405V34.5929Z" fill="white"/> </svg>