<svg xmlns="http://www.w3.org/2000/svg" width="46" height="46" fill="none" viewBox="0 0 46 46"><path fill="#707070" d="M8.29 40.483c-.905-.548-1.577-1.35-2.294-2.098a19.28 19.28 0 0 1-2.44-3.18C2.13 32.898 1.073 30.427.517 27.76a23.696 23.696 0 0 1-.51-5.36c.065-3.054.784-5.962 2.007-8.758.363-.833.785-1.635 1.25-2.413a23.784 23.784 0 0 1 4.5-5.492c1.42-1.282 3-2.316 4.69-3.197C16.52.421 20.86-.299 25.412.11c1.963.175 3.872.594 5.709 1.295a23.086 23.086 0 0 1 6.92 4.12 22.963 22.963 0 0 1 3.973 4.472c1.4 2.05 2.47 4.278 3.132 6.681.455 1.65.73 3.322.823 5.04.068 1.264.014 2.513-.094 3.763-.055.647-.11 1.304-.3 1.935-.186-.027-.301-.155-.417-.282l-3.092-3.375c-.854-.93-1.713-1.856-2.561-2.791-1.095-1.206-2.18-2.42-3.273-3.628-.989-1.092-1.981-2.18-2.971-3.27-.131-.145-.164-.303-.142-.506.062-.588.078-1.175-.078-1.758-.281-1.05-.936-1.869-1.625-2.67-.081-.093-.147-.26-.303-.21-.136.044-.007.226-.102.313-.287-.767-.699-1.44-1.415-1.892-.206-.13-.4-.174-.633-.074-.728.311-1.494.436-2.283.436-1.337.002-2.674-.02-4.01.02-1.891.056-3.704.42-5.303 1.51-.097.066-.191.145-.323.126-.38 0-.288-.432-.527-.562.014-.104.03-.206.04-.31.013-.122.15-.267.011-.361-.126-.086-.254.043-.35.12-.902.727-1.68 1.52-2.179 2.617-.769 1.69-.908 3.428-.767 5.227.104 1.337.388 2.646.607 3.965-.722.183-1.112 1.638-.938 2.268.081.294.06.588.114.88.194 1.05.213 2.14.802 3.088l.084.089-.008-.007c.03.028.058.057.087.086l-.007-.008.087.087.003-.016c-.013.246.162.4.284.581.46.682 1.215 1.046 1.759 1.638.058.085.138.162.172.255.194.532.399 1.059.688 1.548.268.454.547.901.822 1.352-.038.444-.04.887-.009 1.331-.017.39-.043.78-.05 1.17-.01.506-.06.99-.548 1.295-.673.36-1.348.718-2.02 1.08-1.522.816-3.042 1.634-4.563 2.451l-2.35 1.259.001-.005Z"></path><path fill="#5C5C5E" d="M31.012 9.238c.095-.087-.034-.27.102-.313.157-.05.223.117.303.21.69.8 1.344 1.621 1.625 2.67.157.583.14 1.17.078 1.758-.021.203.011.36.142.505.99 1.09 1.983 2.18 2.97 3.271 1.094 1.208 2.179 2.422 3.274 3.628.85.935 1.708 1.86 2.561 2.791l3.092 3.375c.117.127.232.255.417.282-.238.57-.214 1.201-.425 1.778-.448 1.229-.894 2.456-1.438 3.651-1.296 2.844-3.204 5.221-5.482 7.335-.165.153-.336.29-.54.389a1.017 1.017 0 0 0-.306-.242c-1.918-1.044-3.83-2.098-5.75-3.137-.904-.488-1.781-1.03-2.736-1.424-.187-.248-.597-.294-.592-.724.013-1.01-.006-2.022-.01-3.033 0-.143.003-.282.098-.412.903-1.238 1.484-2.616 1.85-4.098.085-.343.088-.907.753-.653.04.015.1-.024.151-.036.76-.17 1.324-.829 1.452-1.697.043-.293.082-.587.133-.88.159-.91.349-1.818.262-2.747-.056-.61-.278-1.146-.913-1.401.162-.958.305-1.919.487-2.873.387-2.027-.065-3.797-1.584-5.253-.125-.121-.174-.245-.122-.422a5.187 5.187 0 0 0 .147-2.3v.002Z"></path><path fill="#F8C237" d="M28.9 35.766c.955.394 1.831.935 2.735 1.424 1.921 1.039 3.833 2.093 5.751 3.136.12.065.221.14.306.242-.42.558-1.02.907-1.578 1.29-1.559 1.069-3.207 1.983-4.99 2.64a25.011 25.011 0 0 1-5.768 1.37c-2.717.32-5.381.037-8.016-.593-1.246-.298-2.45-.746-3.623-1.268-1.82-.809-3.467-1.897-5.059-3.074-.16-.119-.318-.24-.366-.448l2.35-1.259c1.52-.817 3.041-1.635 4.562-2.451.673-.362 1.347-.72 2.02-1.08-.345.75-.496 1.53-.382 2.352-.031.083-.04.162.037.228-.02.196.015.384.087.566-.026.594.304 1.047.602 1.514a.11.11 0 0 0 .037.06c.058.18.157.334.306.455l.011.015c.057.161.16.285.306.375.251.315.528.602.879.812a.441.441 0 0 0 .309.227l.01.006a3.73 3.73 0 0 0 1.334.7c.15.08.317.08.48.1.227.21.503.237.794.206l.803.016.661.02c.063.046.123.042.181-.01 1.587-.222 2.98-.82 4.076-2.02.936-1.026 1.421-2.23 1.515-3.603.047-.683-.14-1.318-.37-1.948Z"></path><path fill="#ECC296" d="m23.497 43.344-.66-.02c-.002-2.034-.01-4.068.004-6.102.002-.347-.093-.514-.449-.597-1.023-.239-1.889-.785-2.71-1.418-.73-.563-1.264-1.298-1.86-1.98a8.455 8.455 0 0 1 .009-1.33c.233.036.346.232.49.379 1.104 1.121 2.452 1.753 4.002 1.982.507.075.51.072.51-.427.001-1.509.002-3.018 0-4.527a77774.4 77774.4 0 0 0-.009-13.663c1.712-.058 3.354-.392 4.876-1.205a.327.327 0 0 1 .305-.01c1.33.616 2.02 1.356 2.136 2.77.056.688.075 1.382.177 2.062.05.34-.009.687.084 1.012.234.82.494 1.63.748 2.443.028.091-.021.24.124.257.167.02.173-.141.199-.244.225-.876.454-1.751.61-2.643.635.254.856.79.913 1.401.085.929-.104 1.837-.263 2.747-.05.293-.09.587-.132.88-.128.867-.693 1.528-1.452 1.697-.052.012-.111.05-.152.035-.665-.253-.667.311-.752.654-.366 1.481-.948 2.86-1.85 4.098-.095.13-.098.269-.098.412.003 1.011.023 2.022.01 3.033-.006.43.405.475.592.724.23.63.416 1.264.369 1.947-.095 1.374-.58 2.577-1.515 3.603-1.095 1.2-2.49 1.799-4.075 2.02l-.18.01Z"></path><path fill="#000" d="M32.084 20.084c-.156.892-.385 1.767-.61 2.643-.026.104-.032.264-.2.245-.144-.018-.096-.166-.123-.257-.254-.813-.515-1.624-.748-2.443-.093-.325-.033-.672-.084-1.012-.102-.681-.12-1.374-.177-2.062-.115-1.414-.806-2.154-2.136-2.771a.327.327 0 0 0-.305.011c-1.522.813-3.165 1.147-4.876 1.205-.13-.013-.262-.044-.393-.037-.84.044-1.665-.124-2.499-.161-.847-.038-1.692-.2-2.545-.094-.677.084-1.344.689-1.465 1.314-.212 1.09-.217 2.198-.328 3.298-.101 1.02-.513 1.963-.85 2.921-.026.072-.045.167-.146.145-.093-.02-.078-.116-.096-.193-.203-.926-.413-1.851-.622-2.776-.219-1.319-.503-2.627-.607-3.964-.14-1.8-.002-3.537.767-5.227.5-1.098 1.277-1.891 2.179-2.617.096-.078.224-.207.35-.121.14.094.002.239-.011.362-.01.103-.026.206-.04.309-.194.45-.31.91-.163 1.436l.69-.873c.131.019.225-.06.322-.126 1.599-1.09 3.412-1.455 5.303-1.51 1.335-.04 2.673-.018 4.01-.02.79 0 1.555-.125 2.283-.436.233-.1.427-.055.633.074.717.453 1.13 1.125 1.415 1.892a5.187 5.187 0 0 1-.147 2.3c-.053.177-.003.3.122.421 1.518 1.457 1.97 3.226 1.584 5.253-.182.954-.326 1.915-.487 2.874v-.003Z"></path><path fill="#FFCE95" d="M13.881 20.057c.208.926.418 1.85.622 2.777.017.077.002.17.095.192.102.023.121-.073.147-.144.337-.959.749-1.902.85-2.922.11-1.099.116-2.208.328-3.298.121-.625.788-1.23 1.465-1.314.853-.106 1.698.056 2.545.094.833.037 1.66.205 2.5.162.13-.008.261.023.392.037l.009 13.662v4.528c0 .498-.003.502-.51.426-1.55-.23-2.9-.86-4.003-1.982-.143-.146-.256-.342-.49-.38-.274-.45-.553-.897-.822-1.351-.289-.49-.494-1.017-.688-1.549-.034-.093-.113-.17-.172-.254-.102-.574-.278-1.129-.431-1.69-.075-.271-.168-.286-.401-.234-.445.097-.86.014-1.21-.295l-.004.016c-.002-.056-.034-.082-.087-.085l.008.007c-.005-.053-.033-.082-.087-.086l.007.007-.083-.088c-.59-.949-.609-2.04-.803-3.09-.054-.291-.032-.585-.113-.879-.175-.63.215-2.085.938-2.268l-.002.001ZM17.82 33.228c.598.682 1.131 1.417 1.861 1.98.822.633 1.688 1.18 2.71 1.418.355.083.452.25.45.597-.015 2.033-.006 4.068-.006 6.102l-.803-.016c-.225-.218-.514-.198-.794-.207-.163-.018-.33-.018-.48-.1-.375-.365-.862-.52-1.336-.699l-.01-.006c-.031-.17-.148-.229-.308-.227-.35-.21-.628-.497-.879-.812-.011-.198-.112-.324-.306-.375l-.01-.015c0-.219-.063-.396-.307-.454a.11.11 0 0 1-.036-.06c-.033-.353-.236-.647-.346-.973-.063-.185-.039-.424-.257-.54a1.173 1.173 0 0 1-.087-.568c.078-.09.075-.167-.037-.227-.113-.822.037-1.603.383-2.352.488-.305.538-.789.548-1.296.007-.39.033-.78.05-1.169Z"></path><path fill="#5A3B36" d="M14.104 26.524c.351.31.766.393 1.21.295.235-.051.328-.038.402.235.153.561.33 1.115.431 1.69-.542-.592-1.3-.957-1.758-1.639-.123-.182-.297-.336-.285-.582v.001ZM17.046 9.364l-.69.873c-.146-.526-.03-.987.163-1.436.238.13.147.563.527.563ZM13.937 26.375c.053.004.081.033.086.086l-.086-.086Z"></path><path fill="#5A3B36" d="M14.015 26.455c.053.005.084.03.086.086l-.086-.086Z"></path><path fill="#E5B27E" d="M16.963 38.84c.219.116.193.355.257.54.11.327.314.621.346.973-.298-.466-.629-.92-.603-1.513ZM19.423 42.303c.473.18.961.334 1.336.699a3.717 3.717 0 0 1-1.336-.7ZM21.24 43.102c.28.007.568-.011.793.206-.29.03-.567.005-.794-.206ZM17.602 40.414c.244.058.307.235.307.454a.938.938 0 0 1-.306-.454ZM17.92 40.883c.195.051.296.177.307.375a.698.698 0 0 1-.306-.375ZM19.105 42.07c.16 0 .276.057.308.227a.443.443 0 0 1-.308-.227ZM16.84 38.047c.11.06.114.137.037.227-.077-.066-.068-.144-.037-.227Z"></path><path fill="#FF9000" d="m23.496 43.345.181-.01c-.058.053-.118.057-.18.01Z"></path></svg>