<svg xmlns="http://www.w3.org/2000/svg" width="221.519" height="249.665" data-name="rugby union" viewBox="0 0 221.519 249.665" class="h-[20px] w-[20px] group-hover:text-black-800"><path fill="currentColor" d="m121.037 135.272 4.454 7.16 19.079-9.7c23.566 36.736 42.931 75.488 60.494 115.9-6.736.337-13.125.777-19.521.954a206.423 206.423 0 0 1-55.245-5.975c-26.982-6.647-51.61-18.216-72.719-36.639-27.647-24.13-45.985-53.869-53.861-89.83A173.873 173.873 0 0 1 .16 72.95a200.582 200.582 0 0 1 14.2-66.814c.161-.4.315-.809.495-1.2a8.639 8.639 0 0 1 .641-.877l45.919 36.5-20.912 10.78c2.174 1.793 4.126 3.474 6.171 5.033a2.076 2.076 0 0 0 1.8.25q24.865-12.7 49.676-25.5c.055-.028.076-.123.189-.321-2.192-1.536-4.342-3.174-6.641-4.562a3.1 3.1 0 0 0-2.457.213c-4.539 2.216-8.995 4.607-13.56 6.765a3.381 3.381 0 0 1-2.942-.214A273.45 273.45 0 0 0 24.102 1.546a7.542 7.542 0 0 1-.936-.653l.11-.843c7.639 0 15.281-.13 22.917.027a211.676 211.676 0 0 1 50.833 7.256 168.2 168.2 0 0 1 53.954 24.886c20.974 14.829 36.523 34.21 48.309 56.86a194.145 194.145 0 0 1 19.455 57.04 185.018 185.018 0 0 1 2.531 41.183 190.149 190.149 0 0 1-8 46.437c-.943 3.047-2.072 6.037-2.978 8.656-8.284-19.376-16.322-39.034-25.06-58.378a498.989 498.989 0 0 0-30.182-56.642l20.192-10.4-3.937-7.406Zm-51-57.893 52.921-27.077-7.62-6.5-52.471 26.853Zm33.589 34.94c1.568 1.924 3.176 3.735 4.592 5.686 1.1 1.521 2.128 1.482 3.7.664 9.173-4.772 18.407-9.428 27.61-14.141 7.236-3.707 14.46-7.439 21.831-11.234l-5.524-7.68Zm33.343-47.851-53.017 27.14a60.1 60.1 0 0 1 4.9 4.455c1.216 1.383 2.223 1.426 3.8.611 13.674-7.067 27.391-14.053 41.092-21.069 3.213-1.645 6.412-3.317 10.025-5.188Z" data-name="Path 48"></path></svg>