<svg xmlns="http://www.w3.org/2000/svg" width="221.52" height="214.171" data-name="rugby lague" viewBox="0 0 221.52 214.171" class="h-[20px] w-[20px] group-hover:text-black-800"><path fill="currentColor" d="M221.498 60.825c-.117 18.733-5.088 36.344-13.52 52.848-22.742 44.514-57.481 75.851-104.533 93.086-15.943 5.841-32.5 8.612-49.566 6.922-14.408-1.426-27.586-5.921-38.038-16.419C4.923 186.302.698 172.538.083 157.481c-.812-20.023 4.325-38.818 13.279-56.451 23.288-45.864 59.082-77.8 107.873-94.6C137.467.842 154.268-1.513 171.456.993c15.311 2.234 28.765 8.127 38.448 20.748 7.892 10.283 10.993 22.251 11.583 35 .065 1.361.011 2.723.011 4.084ZM44.568 197.029c2.684-.121 4.638-.2 6.591-.306.591-.032 1.182-.123 1.77-.2 13.96-1.726 26.765-6.844 39.052-13.407 20.7-11.056 38.859-25.554 55.847-41.607 16.742-15.819 32.147-32.772 43.841-52.767 7.751-13.252 13.369-27.218 14.325-42.837.533-8.708-2.068-15.841-8.457-21.66-3.277-2.982-6.587-5.783-11.3-6.414a69.739 69.739 0 0 0-21.318.289c-15.564 2.689-29.651 9.137-43.058 17.195-21.711 13.048-40.716 29.471-58.406 47.469-14.355 14.6-27.3 30.317-36.84 48.576-6.155 11.79-10.527 24.151-10.786 37.62-.07 3.622-.487 7.8 1.063 10.782 4.332 8.34 9.953 15.764 20.529 16.723 2.618.24 5.245.401 7.147.544ZM171.771 12.274a6.165 6.165 0 0 0-1.165-.372c-2.278-.259-4.557-.582-6.842-.7-15.881-.831-31.105 2.334-45.853 7.926-28.357 10.752-51.9 28.325-71.5 51.273-16.183 18.95-28.1 40.172-33.32 64.78-1.711 8.068-2.589 16.225-1.592 24.51a105.241 105.241 0 0 1 10.712-30.079c8.191-15.617 18.763-29.5 30.682-42.4 18.99-20.546 39.732-39.078 63.49-54 16.988-10.67 34.969-18.855 55.388-20.938ZM50.917 202.219c2.261.23 4.519.553 6.786.669 17.311.891 33.8-2.84 49.668-9.388 29.936-12.351 54.355-31.93 73.934-57.577 14.867-19.475 25.6-40.886 28.612-65.53.67-5.471.1-11.092.1-16.784-.721 3.188-1.3 6.272-2.123 9.292-4.317 15.9-12.215 30.034-21.987 43.107a314.451 314.451 0 0 1-76.7 72.523c-17.689 11.943-36.709 20.933-58.29 23.688Z" data-name="Path 49"></path></svg>