<svg width="60" height="60" viewBox="0 0 60 60" fill="none" xmlns="http://www.w3.org/2000/svg">
<rect width="60" height="60" rx="16" fill="#852565"/>
<path fill-rule="evenodd" clip-rule="evenodd" d="M39.6402 26.2661C40.6413 26.2661 41.4528 25.4932 41.4528 24.54C41.4528 23.5862 40.6413 22.8125 39.6402 22.8125C38.6402 22.8125 37.8292 23.5862 37.8292 24.54C37.8292 25.4932 38.6402 26.2661 39.6402 26.2661ZM25.7582 27.1983C25.6765 27.3941 25.0878 28.9789 23.6641 30.6214V23.5985L19.8707 24.313V37.0427H23.6641V33.1079C24.7628 34.6783 25.3053 37.0427 25.3053 37.0427H29.849C29.3996 35.262 27.4335 31.9786 27.4335 31.9786C29.198 29.8465 29.973 27.5747 30.0963 27.1983H25.7582ZM35.7309 27.0655C32.3332 27.1694 30.6085 28.6222 30.6085 31.5101V37.0427H34.3152V32.5311C34.3152 30.8017 34.5528 30.0605 36.7059 29.9898V27.1161C36.3435 27.0428 35.7309 27.0655 35.7309 27.0655ZM13.5088 28.6001C13.0441 28.571 11.9684 28.5047 11.9684 27.5818C11.9684 26.4681 13.5171 26.4681 14.098 26.4681C15.1194 26.4681 16.4422 26.7557 17.3869 27.025C17.3869 27.025 17.9138 27.2021 18.3623 27.3834L18.404 27.3941V24.344L18.3467 24.3278C17.2319 23.9561 15.9355 23.5985 13.5321 23.5985C9.38821 23.5985 7.91992 25.8992 7.91992 27.8702C7.91992 29.0064 8.4309 31.6803 13.1767 31.9888C13.5791 32.0123 14.6468 32.071 14.6468 33.0247C14.6468 33.8122 13.7726 34.2765 12.3024 34.2765C10.6912 34.2765 9.12824 33.8849 8.17892 33.5136V36.655C9.60008 37.0101 11.2021 37.1875 13.0798 37.1875C17.1316 37.1875 18.9463 35.0107 18.9463 32.8532C18.9463 30.407 16.9156 28.8176 13.5088 28.6001ZM37.8027 37.0427H41.4794V27.2095H37.8027V37.0427ZM48.4026 24.2254V37.0427H52.0799V23.5985L48.4026 24.2254ZM43.0369 24.2254L46.7107 23.5985V37.0427H43.0369V24.2254Z" fill="white"/>
</svg>
