<svg width="68" height="68" viewBox="0 0 68 68" fill="none" xmlns="http://www.w3.org/2000/svg">
<rect width="68" height="68" rx="18" fill="#852565"/>
<path fill-rule="evenodd" clip-rule="evenodd" d="M43.6402 24.7661C44.6413 24.7661 45.4528 23.9932 45.4528 23.04C45.4528 22.0862 44.6413 21.3125 43.6402 21.3125C42.6402 21.3125 41.8292 22.0862 41.8292 23.04C41.8292 23.9932 42.6402 24.7661 43.6402 24.7661ZM29.7582 25.6983C29.6765 25.8941 29.0878 27.4789 27.6641 29.1214V22.0985L23.8707 22.813V35.5427H27.6641V31.6079C28.7628 33.1783 29.3053 35.5427 29.3053 35.5427H33.849C33.3996 33.762 31.4335 30.4786 31.4335 30.4786C33.198 28.3465 33.973 26.0747 34.0963 25.6983H29.7582ZM39.7309 25.5655C36.3332 25.6694 34.6085 27.1222 34.6085 30.0101V35.5427H38.3152V31.0311C38.3152 29.3017 38.5528 28.5605 40.7059 28.4898V25.6161C40.3435 25.5428 39.7309 25.5655 39.7309 25.5655ZM17.5088 27.1001C17.0441 27.071 15.9684 27.0047 15.9684 26.0818C15.9684 24.9681 17.5171 24.9681 18.098 24.9681C19.1194 24.9681 20.4422 25.2557 21.3869 25.525C21.3869 25.525 21.9138 25.7021 22.3623 25.8834L22.404 25.8941V22.844L22.3467 22.8278C21.2319 22.4561 19.9355 22.0985 17.5321 22.0985C13.3882 22.0985 11.9199 24.3992 11.9199 26.3702C11.9199 27.5064 12.4309 30.1803 17.1767 30.4888C17.5791 30.5123 18.6468 30.571 18.6468 31.5247C18.6468 32.3122 17.7726 32.7765 16.3024 32.7765C14.6912 32.7765 13.1282 32.3849 12.1789 32.0136V35.155C13.6001 35.5101 15.2021 35.6875 17.0798 35.6875C21.1316 35.6875 22.9463 33.5107 22.9463 31.3532C22.9463 28.907 20.9156 27.3176 17.5088 27.1001ZM41.8027 35.5427H45.4794V25.7095H41.8027V35.5427ZM52.4026 22.7254V35.5427H56.0799V22.0985L52.4026 22.7254ZM47.0369 22.7254L50.7107 22.0985V35.5427H47.0369V22.7254Z" fill="white"/>
<path d="M23.1759 49.0001V42.6201L21.7899 43.0051L21.5039 41.9051L23.5719 41.2451H24.5179V49.0001H23.1759Z" fill="white"/>
<path d="M26.1952 46.2831V44.9741H29.4512V46.2831H26.1952Z" fill="white"/>
<path d="M31.9632 49.0001V42.5541H29.5212V41.3001H35.5L35.7692 42.5541H33.3272V49.0001H31.9632Z" fill="white"/>
<path d="M40.6662 49.0001H39.3462V48.2851C38.8768 48.8425 38.2498 49.1211 37.4652 49.1211C36.8858 49.1211 36.3945 48.9635 35.9912 48.6481C35.5952 48.3255 35.3972 47.8781 35.3972 47.3061C35.3972 46.6828 35.6135 46.2098 36.0462 45.8871C36.4788 45.5645 37.0472 45.4031 37.7512 45.4031C38.3158 45.4031 38.8512 45.4838 39.3572 45.6451V45.5351C39.3572 45.1318 39.2325 44.8238 38.9832 44.6111C38.7412 44.3985 38.3892 44.2921 37.9272 44.2921C37.3992 44.2921 36.8455 44.4131 36.2662 44.6551L35.9032 43.5881C36.6218 43.2655 37.3588 43.1041 38.1142 43.1041C38.9575 43.1041 39.5918 43.3168 40.0172 43.7421C40.4498 44.1675 40.6662 44.7725 40.6662 45.5571V49.0001ZM39.3792 46.8991V46.5691C38.9832 46.4151 38.5395 46.3381 38.0482 46.3381C37.6302 46.3381 37.3038 46.4188 37.0692 46.5801C36.8345 46.7415 36.7172 46.9688 36.7172 47.2621C36.7172 47.5261 36.8235 47.7351 37.0362 47.8891C37.2488 48.0431 37.5165 48.1201 37.8392 48.1201C38.2865 48.1201 38.6532 48.0065 38.9392 47.7791C39.2325 47.5518 39.3792 47.2585 39.3792 46.8991Z" fill="white"/>
<path d="M42.2492 50.7601V43.1921H43.5802V44.1601C44.0936 43.4341 44.7499 43.0711 45.5492 43.0711C46.2826 43.0711 46.9169 43.3461 47.4522 43.8961C47.9876 44.4388 48.2552 45.1758 48.2552 46.1071C48.2552 47.0238 47.9876 47.7571 47.4522 48.3071C46.9169 48.8498 46.2826 49.1211 45.5492 49.1211C44.7499 49.1211 44.0936 48.7801 43.5802 48.0981V50.5528L42.2492 50.7601ZM45.2412 47.9661C45.7106 47.9661 46.1029 47.7938 46.4182 47.4491C46.7409 47.1045 46.9022 46.6498 46.9022 46.0851C46.9022 45.5351 46.7409 45.0878 46.4182 44.7431C46.0956 44.3985 45.7032 44.2261 45.2412 44.2261C44.7792 44.2261 44.3796 44.4021 44.0422 44.7541C43.7122 45.1061 43.5472 45.5571 43.5472 46.1071C43.5472 46.6498 43.7122 47.0971 44.0422 47.4491C44.3796 47.7938 44.7792 47.9661 45.2412 47.9661Z" fill="white"/>
</svg>
