<svg xmlns="http://www.w3.org/2000/svg" width="23" height="24" fill="currentColor" viewBox="0 0 23 24" class="h-[20px] w-[20px] group-hover:text-black-800"><path d="M22.607 16.347 15.81 2.985A4.628 4.628 0 0 0 11.498 0a4.628 4.628 0 0 0-4.315 2.987L.523 16.438c-.228.448-.367.833-.439 1.212-.258 1.362.085 2.737.942 3.772.849 1.026 2.077 1.59 3.456 1.59h14.03a4.366 4.366 0 0 0 3.422-1.598 4.684 4.684 0 0 0 .981-3.874c-.016-.083-.028-.165-.041-.245-.049-.303-.099-.617-.267-.948Zm-1.412 4.456a3.421 3.421 0 0 1-2.682 1.25H4.483c-1.09 0-2.054-.44-2.718-1.242-.674-.815-.944-1.902-.739-2.983.055-.288.167-.591.354-.96L8.054 3.39a.563.563 0 0 0 .02-.046A3.665 3.665 0 0 1 11.498.959c1.52 0 2.897.958 3.424 2.385a.483.483 0 0 0 .022.05l6.809 13.388c.1.196.133.403.175.664.014.089.028.18.046.273a3.727 3.727 0 0 1-.778 3.084Z"></path><path d="M7.185 18.218a2.397 2.397 0 1 1-4.794 0 2.397 2.397 0 0 1 4.794 0ZM13.897 18.218a2.397 2.397 0 1 1-4.794 0 2.397 2.397 0 0 1 4.794 0ZM10.54 11.986a2.397 2.397 0 1 1-4.794 0 2.397 2.397 0 0 1 4.795 0ZM17.253 11.986a2.397 2.397 0 1 1-4.794 0 2.397 2.397 0 0 1 4.794 0ZM13.897 5.274a2.397 2.397 0 1 1-4.794 0 2.397 2.397 0 0 1 4.794 0ZM20.609 18.218a2.397 2.397 0 1 1-4.794 0 2.397 2.397 0 0 1 4.794 0Z"></path></svg>