<svg xmlns="http://www.w3.org/2000/svg" width="221.519" height="202.974" data-name="table tanis" viewBox="0 0 221.519 202.974" class="h-[20px] w-[20px] group-hover:text-black-800"><path fill="currentColor" d="M74.24 9.886c13.984-.348 26.143 4.843 37.162 12.79 11.934 8.608 22.371 18.825 30.121 31.484a68.911 68.911 0 0 1 9.264 26.165 2.012 2.012 0 0 1-.883 1.992c-4.571 4.021-9.1 8.086-13.736 12.036q-36.742 31.336-73.528 62.619c-3.219 2.74-3.213 2.633-7.122 1.278-14.153-4.905-25.246-13.842-34.3-25.6-6.468-8.4-12.418-17.1-16.348-27.007-5.47-13.792-6.736-27.8-1.708-42.018 3.447-9.75 9.338-17.949 16.44-25.338 8.3-8.636 17.466-16.151 28.246-21.537a64.289 64.289 0 0 1 20.6-6.528c1.912-.247 3.86-.231 5.792-.336ZM42.653 116.479a20.623 20.623 0 0 0 20.531-20.225 20.433 20.433 0 1 0-40.865-.008c-.118 10.92 9.201 20.198 20.335 20.233Z" data-name="Path 44"></path><path fill="currentColor" d="M150.777 97.477c-1.017 4.387-1.918 8.8-3.077 13.154-1.71 6.41-3.639 12.762-5.409 19.157a12.9 12.9 0 0 0 3.366 13.249c6.232 6.419 12.4 12.9 18.6 19.35 3.545 3.693 7.121 7.355 10.609 11.1a22.65 22.65 0 0 1 2.664 3.69 9.1 9.1 0 0 1-.171 10.436 40.538 40.538 0 0 1-16.439 14.213c-4.1 1.949-8.074 1.467-11.157-1.912-3.594-3.941-6.93-8.131-10.207-12.346q-9-11.576-17.772-23.327c-3.2-4.312-7.33-6.188-12.585-5.53-4.891.611-9.768 1.341-14.642 2.083a89.5 89.5 0 0 1-19.311.622l74.945-64.215Z" data-name="Path 45"></path><path fill="currentColor" d="M160.813 101.399a39.408 39.408 0 0 0 .567-4.14c.229-7.786.375-15.574.609-23.36a6.372 6.372 0 0 1 .684-2.732c4.511-8.41 9.081-16.786 13.64-25.17a3.841 3.841 0 0 1 1.271-1.455c.327 2.07.745 4.131.964 6.213.588 5.593 1.091 11.2 1.629 16.795.009.092.022.184.025.276.137 5.287 2.4 8.987 7.433 11.2 8.226 3.615 16.315 7.543 24.43 11.406a71.808 71.808 0 0 1 6.285 3.475 6.29 6.29 0 0 1 3.029 7.005 28.768 28.768 0 0 1-8.1 15.426c-2.42 2.465-5.378 3.149-8.473 1.509-3.9-2.07-7.7-4.343-11.48-6.641-5.475-3.33-10.862-6.805-16.34-10.13-2.4-1.455-4.893-3.082-7.842-2.633a36.5 36.5 0 0 0-6.14 1.933 23.284 23.284 0 0 0-2.191 1.023Z" data-name="Path 46"></path><path fill="currentColor" d="M94.669 4.817c2.284-.924 4.533-1.942 6.855-2.751 8.06-2.81 16.334-2.425 24.466-.792a78.947 78.947 0 0 1 34.756 16.175 55.043 55.043 0 0 1 11.464 13.583 3.473 3.473 0 0 1 .138 3.958c-4.361 7.912-8.633 15.873-12.942 23.813-.255.47-.571.908-.829 1.312-13.365-27.583-32.852-47.864-63.994-54.618Z" data-name="Path 47"></path></svg>