<svg xmlns="http://www.w3.org/2000/svg" width="130.357" height="150" viewBox="0 0 130.357 150" class="h-[20px] w-[20px] group-hover:text-black-800"><g fill="currentColor" data-name="54094-g"><path d="M130.357 34.923v-1.9a31.118 31.118 0 0 0-.8-4.4A35.023 35.023 0 0 0 100.037.4a34.023 34.023 0 0 0-4.8-.4h-6a55.537 55.537 0 0 0-32.629 12.508 55.137 55.137 0 0 0-14.61 20.013 66.044 66.044 0 0 0-6.8 24.516 117.479 117.479 0 0 1-2.6 20.013 22.015 22.015 0 0 1-6.3 11.508c-5.9 5.7-11.708 11.608-17.412 17.312l-7 7.1a4.4 4.4 0 0 0 0 7.2l7.791 7.82a6 6 0 0 0 3.9 2.2 5.8 5.8 0 0 0 3.9-2.1l6.7-6.7c6.4-6.5 12.809-12.909 19.313-19.213a10.007 10.007 0 0 1 4.1-2.7 73.749 73.749 0 0 1 12.108-2.8c2.8 0 5.8-.6 8.606-.8l5.9-.9a76.851 76.851 0 0 0 24.216-6.8 52.835 52.835 0 0 0 30.921-39.426 35.042 35.042 0 0 1 .7-4.5v-2.2ZM48.603 89.56l-6.5 2.3-4.1-4.1 2.4-6.6a37.426 37.426 0 0 0 3.6 4.5 40.027 40.027 0 0 0 4.5 3.9Zm58.639-17.512a53.035 53.035 0 0 1-25.918 12.909 45.03 45.03 0 0 1-19.513.7A21.014 21.014 0 0 1 44.4 66.744v-5.8A63.142 63.142 0 0 1 54.406 29.52 42.628 42.628 0 0 1 85.327 9.506a36.124 36.124 0 0 1 20.013 1.5 25.517 25.517 0 0 1 17.211 21.815 43.829 43.829 0 0 1-15.31 39.226ZM35.194 97.565l-21.715 21.314-2.6-2.6 21.313-21.316Z" data-name="Path 238"></path><path d="M57.008 102.468a23.916 23.916 0 0 0-20.013 26.318 22.915 22.915 0 0 0 15.811 20.013 29.219 29.219 0 0 0 4.9 1.2h5.2a24.416 24.416 0 0 0 17.118-10.006 23.916 23.916 0 0 0-22.615-37.825Zm0 38.225a14.91 14.91 0 0 1-10.807-10.806 14.81 14.81 0 0 1 10.307 10.807Zm18.112-10.006a14.309 14.309 0 0 1-9.206 9.206 23.816 23.816 0 0 0-19.913-18.912 15.41 15.41 0 0 1 9.306-9.206 23.616 23.616 0 0 0 6.6 13.209 22.915 22.915 0 0 0 12.708 6.1Zm-10.006-20.013a15.01 15.01 0 0 1 10.107 11.608 15.11 15.11 0 0 1-11.108-10.908Z" data-name="Path 239"></path></g></svg>