<svg width="68" height="68" viewBox="0 0 68 68" fill="none" xmlns="http://www.w3.org/2000/svg">
<path d="M0 18C0 8.05888 8.05888 0 18 0H50C59.9411 0 68 8.05888 68 18V50C68 59.9411 59.9411 68 50 68H18C8.05888 68 0 59.9411 0 50V18Z" fill="white"/>
<path d="M27.8406 35.2724C28.0062 34.6683 28.1613 34.0842 28.3224 33.503C28.8086 31.7431 29.3008 29.9861 29.777 28.2213C29.8383 27.9936 29.9409 27.9418 30.1555 27.9423C34.0192 27.952 37.8823 27.9571 41.7448 27.9578C42.2271 27.9578 42.1315 27.9803 42.2505 27.5678C42.4416 26.9025 42.6191 26.2307 42.8012 25.5613C42.8218 25.4869 42.8346 25.4111 42.8589 25.2999H30.5952C30.7041 24.8886 30.8025 24.5143 30.9028 24.1405C30.9927 23.8098 31.0939 23.4823 31.1743 23.1484C31.216 22.9762 31.2954 22.9253 31.4705 22.9258C33.2868 22.9324 35.1033 22.9296 36.9195 22.9296H44.7104C44.8454 22.9188 44.9811 22.938 45.1079 22.9859C45.2346 23.0338 45.3493 23.1092 45.4437 23.2067C45.5417 23.3191 45.6087 23.4553 45.6379 23.6018C45.6672 23.7483 45.6577 23.9 45.6105 24.0417C45.1488 25.7504 44.6823 27.458 44.1999 29.1606C44.1048 29.4812 43.913 29.7642 43.6509 29.9706C43.3888 30.177 43.0695 30.2966 42.7369 30.3129C42.6259 30.3205 42.514 30.3186 42.4024 30.3186H32.0065C31.5987 30.3186 31.5987 30.3186 31.4937 30.6988C31.0941 32.1511 30.6911 33.6033 30.2986 35.058C30.2537 35.2244 30.1933 35.2928 30.0119 35.2895C29.3666 35.2773 28.7213 35.2852 28.0767 35.2842C28.0078 35.2869 27.9361 35.2788 27.8406 35.2724Z" fill="#70706E"/>
<path d="M17.2316 22.9303C16.309 26.2694 15.3976 29.5724 14.4731 32.9175H14.7733C17.8801 32.9175 20.9868 32.9192 24.0936 32.9227C24.3114 32.9227 24.3904 32.8483 24.4463 32.6442C25.3136 29.4836 26.1848 26.3239 27.0599 23.1651C27.1073 22.9873 27.1782 22.9217 27.3653 22.925C28.0024 22.9365 28.6401 22.9293 29.2772 22.9298C29.3481 22.9298 29.4177 22.9365 29.5189 22.9419C29.385 23.4345 29.2587 23.9088 29.1269 24.3824C28.2094 27.7022 27.2908 31.0221 26.3711 34.342C26.1913 34.9988 25.818 35.2871 25.1455 35.2871H12.6465C12.0939 35.2871 11.7767 35.0437 11.7052 34.54C11.6911 34.3814 11.7084 34.2217 11.7563 34.0699C12.7591 30.4319 13.7628 26.7953 14.7674 23.1601C14.7738 23.0908 14.8072 23.0268 14.8604 22.9823C14.9137 22.9378 14.9823 22.9162 15.0513 22.9224C15.0593 22.9224 15.0673 22.9236 15.0749 22.926C15.7777 22.9362 16.4779 22.9303 17.2316 22.9303Z" fill="#70706E"/>
<path d="M50.1724 22.8851C50.0207 23.4468 49.8807 23.976 49.735 24.504C48.7695 28.0005 47.8046 31.4975 46.8403 34.9952C46.8338 35.068 46.7988 35.1352 46.743 35.1821C46.6872 35.229 46.6151 35.2517 46.5427 35.2452C46.5338 35.2452 46.525 35.244 46.5162 35.2416C45.8169 35.2295 45.1172 35.2369 44.3792 35.2369C44.4643 34.9147 44.5393 34.6174 44.6204 34.3246C45.6504 30.5952 46.6784 26.8667 47.7044 23.1391C47.7077 23.0988 47.7194 23.0596 47.7389 23.0241C47.7583 22.9887 47.7849 22.9577 47.817 22.9333C47.8491 22.9089 47.886 22.8915 47.9253 22.8824C47.9645 22.8733 48.0053 22.8726 48.0448 22.8803C48.6662 22.8929 49.2876 22.8851 49.9088 22.8851H50.1724Z" fill="#70706E"/>
<path d="M10.8154 38.5456C10.8141 38.5547 10.8122 38.5636 10.8097 38.5724C10.8074 38.5813 10.8056 38.5902 10.8045 38.5993C10.8036 38.6047 10.8023 38.61 10.8007 38.6152C10.7986 38.6205 10.7971 38.626 10.7965 38.6316C10.7913 38.6532 10.7865 38.6749 10.782 38.696C10.7775 38.7172 10.7745 38.7383 10.7721 38.7571C10.7534 38.862 10.7671 38.9703 10.8114 39.0672C10.8544 39.1546 10.954 39.2026 11.1101 39.2112C11.1148 39.2107 11.1194 39.2107 11.1241 39.2112C11.1298 39.2121 11.1356 39.2121 11.1414 39.2112H11.1451C11.1498 39.2107 11.1545 39.2107 11.1591 39.2112C11.1636 39.2117 11.1681 39.2117 11.1726 39.2112H11.2026C11.2129 39.2112 11.2232 39.2099 11.2331 39.2074C11.3187 39.1995 11.4023 39.1771 11.4803 39.1411C11.5617 39.1046 11.6337 39.05 11.6911 38.9816C11.7483 38.9176 11.7934 38.8436 11.8241 38.7633C11.8541 38.6846 11.8804 38.6043 11.9038 38.5233C11.9049 38.5129 11.9068 38.5027 11.9094 38.4926C11.9123 38.4821 11.9156 38.4705 11.9194 38.4586C11.9232 38.4467 11.9274 38.4308 11.9303 38.4173C11.9331 38.4037 11.9369 38.3904 11.9411 38.3764L12.2446 37.2432H12.59L12.252 38.4978C12.207 38.6638 12.1505 38.8263 12.0828 38.9842C12.0114 39.1416 11.895 39.2739 11.7484 39.3644C11.6754 39.4101 11.5968 39.4462 11.5146 39.4716C11.4329 39.4975 11.3488 39.5155 11.2637 39.5253C11.2382 39.5299 11.2126 39.5329 11.1868 39.5344H11.015C10.99 39.5334 10.9651 39.5303 10.9405 39.5253L10.8667 39.5123C10.783 39.5082 10.7019 39.4815 10.632 39.4348C10.5622 39.3882 10.5063 39.3234 10.4703 39.2473C10.4182 39.0977 10.4042 38.9375 10.4296 38.7811C10.4348 38.7454 10.4409 38.7098 10.4487 38.672C10.4565 38.6342 10.4646 38.5986 10.4745 38.5625C10.4802 38.5361 10.4866 38.5102 10.4927 38.4838C10.4989 38.4574 10.5048 38.4325 10.51 38.4085C10.5152 38.3845 10.5249 38.361 10.5306 38.3372C10.5363 38.3134 10.5415 38.2925 10.5469 38.2709L10.8208 37.2491H11.1695L10.8154 38.5456Z" fill="#3D3D3B"/>
<path d="M13.0194 37.2553H13.1116L14.0514 38.5608C14.0797 38.5941 14.1054 38.6294 14.1283 38.6666C14.152 38.7036 14.1756 38.7409 14.1972 38.7794C14.2021 38.7905 14.2077 38.8012 14.214 38.8115L14.2312 38.8403C14.235 38.8115 14.2397 38.7823 14.2452 38.7523C14.2506 38.7224 14.2565 38.6932 14.2629 38.6644L14.2826 38.5765C14.2887 38.5468 14.2956 38.5173 14.3017 38.4886L14.644 37.2529H14.9686L14.3583 39.4828H14.2769L13.3387 38.1742C13.3072 38.131 13.277 38.0863 13.2479 38.0397C13.2188 37.9931 13.192 37.9447 13.166 37.8957C13.1599 37.9245 13.153 37.9532 13.1469 37.9822C13.1406 38.0113 13.1327 38.04 13.1232 38.0682C13.1151 38.0965 13.1087 38.1252 13.104 38.1542C13.0978 38.1834 13.0899 38.2121 13.0804 38.2403L12.7492 39.4842H12.428L13.0194 37.2553Z" fill="#3D3D3B"/>
<path d="M15.3953 37.2524H15.7442L15.1395 39.4823H14.7935L15.3953 37.2524Z" fill="#3D3D3B"/>
<path d="M16.1923 37.2554H17.4122L17.3363 37.5709H16.4444L16.3006 38.1303H17.1853L17.0997 38.4392H16.2105L15.9297 39.4848H15.5876L16.1923 37.2554Z" fill="#3D3D3B"/>
<path d="M17.8428 37.2554H18.1917L17.589 39.4829H17.2424L17.8428 37.2554Z" fill="#3D3D3B"/>
<path d="M18.6395 37.2554H19.859L19.7826 37.5709H18.8905L18.7472 38.1303H19.6319L19.5462 38.4392H18.6563L18.4652 39.1633H19.3532L19.261 39.4848H18.0344L18.6395 37.2554Z" fill="#3D3D3B"/>
<path d="M20.3195 37.2554H20.785C20.9468 37.255 21.1084 37.2671 21.2683 37.2915C21.4245 37.3159 21.5665 37.3963 21.6683 37.5177C21.7566 37.6114 21.8176 37.7276 21.8448 37.8537C21.8747 37.9853 21.8813 38.1212 21.8642 38.2551C21.8648 38.2611 21.864 38.2672 21.8618 38.2729C21.8595 38.2776 21.8618 38.2824 21.8618 38.2874C21.8607 38.3019 21.8587 38.3164 21.8557 38.3306C21.8537 38.3451 21.8505 38.3594 21.8462 38.3734C21.8091 38.5488 21.7428 38.7167 21.6499 38.8698C21.5608 39.0211 21.4412 39.1519 21.2986 39.2538C21.1585 39.3559 20.9964 39.4233 20.8255 39.4506C20.6639 39.4723 20.501 39.483 20.338 39.4826H19.7158L20.3195 37.2554ZM20.2071 39.1645H20.2885C20.307 39.1669 20.3257 39.1682 20.3443 39.1683H20.4685C20.4922 39.1683 20.5158 39.1654 20.5395 39.163C20.5699 39.163 20.6002 39.1612 20.6303 39.1578C20.6599 39.1545 20.6892 39.1512 20.7179 39.1488C20.9004 39.1272 21.0706 39.0453 21.2016 38.9159C21.3342 38.7846 21.4292 38.62 21.4767 38.4392C21.4782 38.4291 21.4803 38.419 21.4829 38.4091C21.4855 38.3978 21.4876 38.3865 21.489 38.3751C21.4905 38.3649 21.4925 38.3548 21.4952 38.3449C21.4978 38.3348 21.4998 38.3246 21.5013 38.3142C21.5019 38.3028 21.5035 38.2914 21.5061 38.2803C21.5073 38.269 21.5073 38.2576 21.5061 38.2463C21.5135 38.1477 21.5023 38.0486 21.4732 37.9542C21.4463 37.8632 21.3941 37.7817 21.3227 37.7195C21.267 37.6695 21.2002 37.6338 21.1278 37.6154C21.0538 37.5961 20.978 37.584 20.9017 37.5793C20.8809 37.5769 20.8599 37.5758 20.839 37.5759H20.5738L20.148 39.1638C20.1681 39.1621 20.1883 39.1621 20.2083 39.1638L20.2071 39.1645Z" fill="#3D3D3B"/>
<path d="M22.3936 39.4848L22.9996 37.2559H23.5626C23.6617 37.2598 23.7599 37.2758 23.8552 37.3034C23.9491 37.3317 24.0295 37.3935 24.0814 37.4771C24.1096 37.5242 24.1298 37.5756 24.1412 37.6294C24.1527 37.6841 24.1567 37.74 24.1533 37.7957C24.1546 37.8036 24.1546 37.8116 24.1533 37.8195C24.1533 37.829 24.1504 37.8388 24.1495 37.8483C24.1489 37.8524 24.1489 37.8567 24.1495 37.8609V37.8734C24.1187 38.0252 24.046 38.1652 23.9397 38.2774C23.8364 38.3962 23.6966 38.477 23.5425 38.507C23.5325 38.5063 23.5225 38.5063 23.5125 38.507C23.5022 38.5079 23.492 38.5097 23.4819 38.5122C23.4671 38.5147 23.4521 38.5164 23.437 38.5174C23.4211 38.518 23.4053 38.5198 23.3897 38.5226C23.3634 38.525 23.3381 38.5269 23.3133 38.5279C23.2884 38.5288 23.2631 38.5279 23.2373 38.5279H23.002L22.7418 39.4848H22.3936ZM23.1148 38.2163H23.1858C23.195 38.2171 23.2042 38.2171 23.2134 38.2163H23.3197C23.4241 38.2122 23.5268 38.188 23.6222 38.1451C23.6724 38.1194 23.7152 38.0811 23.7465 38.034C23.7777 37.9869 23.7963 37.9325 23.8006 37.8761V37.8654C23.8163 37.7481 23.7872 37.671 23.7131 37.6339C23.633 37.5956 23.546 37.5741 23.4573 37.571H23.2494L23.0753 38.209C23.0886 38.2104 23.1018 38.2126 23.1148 38.2154V38.2163Z" fill="#3D3D3B"/>
<path d="M25.6298 37.1655L26.1007 39.4848H25.7459L25.6442 38.9541H24.7689L24.4101 39.4848H24.0427L25.6298 37.1655ZM25.5933 38.6607L25.4987 38.1084C25.494 38.0749 25.4907 38.0407 25.4883 38.0062C25.4859 37.9718 25.4855 37.935 25.4855 37.9005V37.8323C25.4765 37.8468 25.4673 37.862 25.4578 37.8798C25.4483 37.8977 25.4391 37.9119 25.4301 37.9274L25.3762 38.0224C25.359 38.0532 25.3402 38.083 25.3199 38.1118L24.9499 38.6583L25.5933 38.6607Z" fill="#3D3D3B"/>
<path d="M26.9524 37.2554L27.2143 38.001C27.2183 38.0085 27.2213 38.0165 27.2232 38.0248C27.2257 38.0336 27.2275 38.0426 27.2284 38.0517C27.2323 38.0592 27.2353 38.0672 27.2374 38.0754C27.2398 38.0842 27.2415 38.0932 27.2426 38.1023C27.2469 38.1191 27.2516 38.1358 27.2566 38.1498C27.2612 38.1663 27.2647 38.1832 27.267 38.2002C27.2907 38.1641 27.3143 38.1289 27.342 38.0944C27.3697 38.06 27.3943 38.0291 27.4227 37.9994L28.0268 37.2566H28.4216L27.3701 38.4922L27.1054 39.4848H26.7565L27.0276 38.4813L26.5869 37.2554H26.9524Z" fill="#3D3D3B"/>
<path d="M30.656 38.1925C30.664 38.1449 30.6737 38.0931 30.6851 38.0451C30.6723 38.0692 30.6584 38.093 30.6435 38.1164L30.598 38.1877C30.5831 38.2115 30.5666 38.2352 30.5507 38.259L30.4982 38.3303L29.5321 39.5659L29.2511 38.3291C29.2412 38.2816 29.2329 38.234 29.2253 38.1851C29.2177 38.1361 29.2118 38.09 29.2066 38.0425C29.1903 38.09 29.1742 38.1376 29.1593 38.1898C29.142 38.2415 29.1207 38.2917 29.0957 38.34L28.6084 39.4847H28.2651L29.306 37.1621L29.6331 38.6054C29.6374 38.6247 29.6416 38.6435 29.6461 38.6611C29.6506 38.6786 29.6551 38.6976 29.6596 38.7167C29.6667 38.7523 29.6736 38.7879 29.6802 38.8243C29.6873 38.8623 29.6924 38.9006 29.6956 38.9391C29.7325 38.8794 29.7701 38.8203 29.8084 38.7632C29.8467 38.7062 29.8862 38.6508 29.9267 38.5986L31.0508 37.1647L30.8242 39.4878H30.4859L30.6349 38.3471C30.6404 38.293 30.6475 38.2424 30.656 38.1925Z" fill="#3D3D3B"/>
<path d="M31.5568 37.2554H32.7767L32.7005 37.5709H31.8087L31.6652 38.1303H32.5484L32.464 38.4392H31.5746L31.3834 39.1633H32.2724L32.1811 39.4848H30.9531L31.5568 37.2554Z" fill="#3D3D3B"/>
<path d="M33.2098 37.2614H33.3011L34.2393 38.5664C34.2674 38.5998 34.2931 38.6351 34.3161 38.6722C34.3398 38.7092 34.3634 38.747 34.385 38.785C34.3897 38.7962 34.3952 38.8071 34.4013 38.8176L34.4186 38.8459C34.4228 38.8176 34.4271 38.7884 34.433 38.7579C34.4389 38.7275 34.4439 38.6988 34.4507 38.6705C34.4576 38.6422 34.4633 38.6125 34.4699 38.5826C34.4765 38.5526 34.4829 38.5229 34.4891 38.4947L34.8318 37.2578H35.1559L34.5475 39.4877H34.4668L33.5286 38.1781C33.4972 38.1354 33.4669 38.0902 33.4383 38.0436C33.4097 37.9971 33.3825 37.9486 33.3564 37.8996C33.3498 37.9284 33.3434 37.9567 33.3373 37.9857C33.331 38.0148 33.3231 38.0435 33.3136 38.0717C33.3039 38.1007 33.3011 38.1292 33.2945 38.1577C33.288 38.1868 33.2801 38.2155 33.2708 38.2437L32.9373 39.4884H32.6177L33.2098 37.2614Z" fill="#3D3D3B"/>
<path d="M35.8469 37.5772H35.2532L35.3402 37.2578H36.8381L36.7477 37.5772H36.1904L35.6761 39.4882H35.331L35.8469 37.5772Z" fill="#3D3D3B"/>
<path d="M36.98 38.9008C36.9811 38.9076 36.9832 38.9142 36.9861 38.9205C36.9886 38.9258 36.9908 38.9313 36.9927 38.9369C37.0175 39.0006 37.0493 39.0613 37.0874 39.118C37.1267 39.1742 37.1849 39.2143 37.2513 39.2308C37.2579 39.2333 37.2648 39.2351 37.2719 39.2361C37.2776 39.2367 37.2834 39.2367 37.2891 39.2361C37.2994 39.2383 37.3097 39.2401 37.3201 39.2413C37.3293 39.242 37.3386 39.242 37.3478 39.2413C37.455 39.2398 37.5585 39.2019 37.6414 39.1336C37.6841 39.103 37.7203 39.0641 37.7478 39.0193C37.7753 38.9744 37.7936 38.9244 37.8015 38.8723C37.8043 38.8527 37.8059 38.8329 37.8062 38.8131C37.8066 38.792 37.8049 38.7709 37.801 38.7501C37.8 38.7374 37.7976 38.7248 37.7939 38.7126C37.7902 38.6996 37.7855 38.6869 37.78 38.6746C37.7529 38.6291 37.7169 38.5896 37.6742 38.5584C37.6269 38.5232 37.5796 38.4906 37.5309 38.4595C37.5046 38.445 37.4793 38.4303 37.4545 38.4148C37.4297 38.3994 37.4072 38.3842 37.3814 38.3702C37.3703 38.3628 37.3597 38.3549 37.3495 38.3464C37.3391 38.3383 37.3284 38.33 37.3175 38.3226C37.2555 38.2747 37.2074 38.211 37.178 38.1382C37.1484 38.0672 37.1338 37.9909 37.1349 37.9139C37.1367 37.9021 37.1378 37.8902 37.1382 37.8783C37.1376 37.8661 37.1388 37.854 37.1415 37.8421C37.1448 37.83 37.1463 37.8129 37.1496 37.7975C37.1529 37.782 37.1567 37.7668 37.1609 37.7523C37.1921 37.6482 37.2447 37.5519 37.3154 37.4696C37.3878 37.3805 37.4804 37.3103 37.5855 37.265C37.6235 37.2503 37.6623 37.2378 37.7017 37.2274C37.7405 37.2166 37.78 37.2087 37.82 37.2036H37.8607C37.8731 37.203 37.8856 37.203 37.898 37.2036H37.9281C37.9379 37.2037 37.9476 37.2048 37.9572 37.207C38.0635 37.2135 38.1665 37.2461 38.2574 37.302C38.3481 37.3569 38.4203 37.4381 38.4643 37.5349L38.233 37.7269C38.1991 37.6641 38.1544 37.6078 38.101 37.5606C38.0441 37.5138 37.9722 37.4895 37.8987 37.4924C37.8222 37.4922 37.7468 37.5113 37.6795 37.548C37.6113 37.5847 37.5573 37.6433 37.5259 37.7143L37.5155 37.7381C37.5122 37.7467 37.5098 37.7557 37.5084 37.7649C37.5023 37.7763 37.4976 37.7885 37.4945 37.801C37.4916 37.8129 37.4894 37.825 37.4878 37.8372C37.4805 37.8762 37.4834 37.9164 37.4963 37.9539C37.5092 37.9914 37.5317 38.0249 37.5614 38.051C37.6254 38.1075 37.6945 38.1578 37.7679 38.2012C37.774 38.2059 37.7804 38.2101 37.7871 38.2138C37.7939 38.2177 37.8005 38.2221 37.8067 38.2269L37.8933 38.2744C37.9185 38.2901 37.9422 38.3081 37.9643 38.3281C38.0295 38.3858 38.0789 38.4595 38.1076 38.542C38.1379 38.627 38.1505 38.7173 38.1445 38.8074C38.1457 38.8187 38.1457 38.8301 38.1445 38.8414C38.1435 38.8528 38.142 38.8641 38.1398 38.8753C38.1222 38.9931 38.078 39.1053 38.0106 39.2033C37.9409 39.3081 37.8434 39.3912 37.7291 39.4433C37.6853 39.4652 37.6391 39.4821 37.5915 39.4936C37.5441 39.5051 37.4968 39.5148 37.4481 39.5219C37.4266 39.5243 37.405 39.5262 37.3835 39.5272C37.362 39.5281 37.3409 39.5272 37.3199 39.5272H37.2726C37.2567 39.5266 37.2409 39.5248 37.2253 39.5219C37.203 39.521 37.1809 39.518 37.1593 39.5129C37.1387 39.5091 37.1181 39.5053 37.0975 39.5003C37.0029 39.4761 36.918 39.4228 36.8548 39.348C36.7929 39.2728 36.7448 39.1871 36.7129 39.0949L36.98 38.9008Z" fill="#3D3D3B"/>
<path d="M40.062 37.2593H40.41L39.8053 39.4892H39.4597L40.062 37.2593Z" fill="#3D3D3B"/>
<path d="M40.8441 37.2633H40.9358L41.874 38.5684C41.902 38.6018 41.9277 38.6372 41.9509 38.6741C41.9745 38.7117 41.9982 38.749 42.0193 38.7875C42.0242 38.7985 42.0298 38.8092 42.0361 38.8195L42.0533 38.8483C42.0571 38.8195 42.0619 38.7902 42.0678 38.7604L42.085 38.6725C42.0916 38.6437 42.098 38.6145 42.1047 38.5845C42.1113 38.5546 42.1177 38.5254 42.1238 38.4966L42.4666 37.2598H42.7907L42.1822 39.4892H42.1016L41.1639 38.1803C41.1324 38.1376 41.1021 38.0924 41.0735 38.0463C41.0449 38.0002 41.0177 37.9513 40.9917 37.9023C40.985 37.9311 40.9787 37.9593 40.9725 37.9883C40.9661 38.0174 40.9582 38.0461 40.9489 38.0743C40.941 38.1028 40.9346 38.1317 40.9297 38.1608C40.9235 38.19 40.9156 38.2187 40.906 38.2469L40.5715 39.4904H40.2522L40.8441 37.2633Z" fill="#3D3D3B"/>
<path d="M43.4788 37.5801H42.8875L42.9745 37.2612H44.4726L44.3818 37.5801H43.8249L43.3106 39.4906H42.9648L43.4788 37.5801Z" fill="#3D3D3B"/>
<path d="M44.9044 37.2607H46.1222L46.0463 37.5763H45.1563L45.013 38.1357H45.8977L45.8121 38.4446H44.9217L44.7306 39.1686H45.6186L45.5277 39.4913H44.2993L44.9044 37.2607Z" fill="#3D3D3B"/>
<path d="M45.9675 39.4906L46.5726 37.2612H47.1044C47.1807 37.2661 47.2564 37.2768 47.331 37.2933C47.4037 37.3094 47.4711 37.3441 47.5264 37.3941C47.58 37.4405 47.6203 37.5005 47.643 37.5678C47.6666 37.6364 47.6757 37.7093 47.6698 37.7816C47.671 37.7895 47.671 37.7975 47.6698 37.8054C47.6691 37.8146 47.6679 37.8237 47.666 37.8327L47.6613 37.8684C47.6441 38.0359 47.5687 38.1919 47.4484 38.3092C47.3244 38.4206 47.1716 38.4948 47.0077 38.523L47.4751 39.4911H47.0928L46.646 38.5344H46.5724L46.3122 39.4918L45.9675 39.4906ZM46.6677 38.255H46.6914C46.699 38.2575 46.707 38.2586 46.715 38.2583H46.8227C46.9312 38.2546 47.0381 38.2304 47.1378 38.187C47.1901 38.1604 47.2344 38.1201 47.2658 38.0703C47.2973 38.0205 47.3148 37.9632 47.3166 37.9042V37.8971C47.3362 37.7583 47.3045 37.6718 47.222 37.6357C47.1326 37.5998 47.0373 37.5809 46.941 37.5801H46.8227L46.6434 38.2524L46.6677 38.255Z" fill="#3D3D3B"/>
<path d="M48.2045 37.2617H49.4251L49.3491 37.5773H48.4573L48.314 38.1367H49.1987L49.1131 38.4456H48.2231L47.9407 39.4911H47.5989L48.2045 37.2617Z" fill="#3D3D3B"/>
<path d="M50.8359 37.1724L51.309 39.4921H50.952L50.8498 38.9614H49.9769L49.6169 39.4897H49.2502L50.8359 37.1724ZM50.7994 38.6675L50.7048 38.1153C50.7001 38.0817 50.6968 38.0476 50.6949 38.0131C50.6949 37.9786 50.6916 37.9435 50.692 37.9073C50.6924 37.8966 50.6915 37.8858 50.6892 37.8753C50.6878 37.8633 50.6878 37.8511 50.6892 37.8391C50.6802 37.8536 50.671 37.8688 50.6615 37.8867C50.6521 37.9045 50.6428 37.9187 50.6339 37.9342L50.5799 38.0292C50.5623 38.0598 50.5431 38.0893 50.5222 38.1176L50.156 38.6661L50.7994 38.6675Z" fill="#3D3D3B"/>
<path d="M53.4914 37.7865C53.416 37.7052 53.3251 37.6399 53.2241 37.5945C53.1215 37.5475 53.01 37.5232 52.8972 37.5232H52.8387C52.8189 37.5237 52.799 37.5255 52.7794 37.5284C52.7602 37.5308 52.7368 37.5375 52.7162 37.541C52.6955 37.5449 52.6752 37.5503 52.6554 37.5574C52.4696 37.6164 52.307 37.7324 52.1903 37.8892C52.0709 38.0411 51.9872 38.2182 51.9455 38.4072C51.9459 38.4121 51.9451 38.4171 51.9431 38.4217C51.9408 38.4264 51.9431 38.4312 51.9431 38.4362V38.4507H51.9398V38.4652C51.9105 38.6398 51.9462 38.8191 52.0401 38.9689C52.0865 39.0416 52.1489 39.1025 52.2225 39.147C52.2961 39.1915 52.3789 39.2183 52.4645 39.2253C52.4716 39.2279 52.479 39.2297 52.4865 39.2306C52.4952 39.2313 52.504 39.2313 52.5128 39.2306C52.5251 39.2299 52.5374 39.2299 52.5497 39.2306H52.5826C52.6962 39.2305 52.8087 39.2081 52.9137 39.1647C53.0233 39.1205 53.1279 39.0648 53.2257 38.9984L53.0919 39.4247C53.0222 39.4489 52.9511 39.4687 52.879 39.4839C52.8063 39.4993 52.7332 39.5117 52.6592 39.5214L52.5731 39.5285C52.5449 39.5285 52.5163 39.5323 52.4879 39.5323H52.417C52.3938 39.5318 52.3707 39.5301 52.3477 39.5271C52.2782 39.5196 52.2095 39.5056 52.1426 39.4853C52.0769 39.4654 52.0145 39.4358 51.9576 39.3974C51.8094 39.3082 51.6977 39.169 51.6425 39.0046C51.5871 38.8415 51.5709 38.6676 51.5952 38.497C51.598 38.4759 51.6013 38.4547 51.6056 38.4345C51.6098 38.4143 51.6141 38.3932 51.6195 38.3715C51.6913 38.0844 51.8383 37.8218 52.0453 37.6111C52.2428 37.3894 52.5155 37.2495 52.8101 37.2188C52.8237 37.2196 52.8373 37.2196 52.8508 37.2188C52.8645 37.2181 52.8783 37.2181 52.892 37.2188H52.9726C53.0858 37.2182 53.1985 37.2342 53.3071 37.2663C53.4138 37.2979 53.5146 37.3465 53.6059 37.4103L53.4914 37.7865Z" fill="#3D3D3B"/>
<path d="M54.0578 37.2632H55.2773L55.2063 37.5792H54.3124L54.169 38.1386H55.0537L54.9672 38.4475H54.0782L53.887 39.1716H54.7751L54.6805 39.4943H53.4558L54.0578 37.2632Z" fill="#3D3D3B"/>
<path d="M51.0503 35.2711L54.4917 22.8511L57.583 29.0607L51.0503 35.2711Z" fill="#0B8041"/>
<path d="M48.8359 35.2711L52.2773 22.8511L55.3684 29.0607L48.8359 35.2711Z" fill="#E97627"/>
<path d="M20.745 42.4277H21.0355C21.164 42.4277 21.2873 42.479 21.3782 42.5702C21.4691 42.6615 21.5202 42.7852 21.5202 42.9143C21.5202 43.0434 21.4691 43.1672 21.3782 43.2584C21.2873 43.3496 21.164 43.4009 21.0355 43.4009H20.745C20.6165 43.4009 20.4932 43.3496 20.4023 43.2584C20.3114 43.1672 20.2603 43.0434 20.2603 42.9143C20.2603 42.7852 20.3114 42.6615 20.4023 42.5702C20.4932 42.479 20.6165 42.4277 20.745 42.4277Z" fill="#0B8041"/>
<path d="M19.485 46.1274H20.6476C20.7761 46.1274 20.8994 46.1787 20.9903 46.2699C21.0812 46.3612 21.1323 46.4849 21.1323 46.614C21.1323 46.7431 21.0812 46.8669 20.9903 46.9581C20.8994 47.0493 20.7761 47.1006 20.6476 47.1006H19.485C19.3565 47.1007 19.2333 47.0495 19.1423 46.9583C19.0514 46.8672 19.0002 46.7434 19 46.6144C19 46.5504 19.0125 46.487 19.0369 46.4279C19.0613 46.3688 19.097 46.3152 19.1421 46.2699C19.1871 46.2247 19.2406 46.1889 19.2994 46.1644C19.3583 46.14 19.4214 46.1274 19.485 46.1274Z" fill="#0B8041"/>
<path d="M35.0612 47.6174H32.3321L31.73 48.6326C31.6873 48.7046 31.6268 48.7641 31.5543 48.8055C31.4818 48.8469 31.3999 48.8687 31.3165 48.8687H30.5566C30.4702 48.8687 30.3854 48.8453 30.3111 48.801C30.2368 48.7568 30.1757 48.6932 30.1342 48.6171C30.0928 48.5409 30.0725 48.4549 30.0755 48.3682C30.0785 48.2814 30.1047 48.1971 30.1513 48.124L33.646 42.6508C33.6895 42.5826 33.7495 42.5264 33.8203 42.4875C33.8911 42.4486 33.9705 42.4282 34.0513 42.4282H35.1952C35.3033 42.4282 35.4082 42.4647 35.493 42.5318C35.5779 42.5989 35.6379 42.6928 35.6633 42.7982L36.9788 48.2715C36.9959 48.3426 36.9967 48.4166 36.9811 48.4881C36.9655 48.5596 36.934 48.6265 36.889 48.684C36.8439 48.7415 36.7865 48.7879 36.721 48.8198C36.6555 48.8518 36.5836 48.8684 36.5108 48.8684H35.7103C35.5995 48.8683 35.4922 48.8299 35.4063 48.7595C35.3204 48.6892 35.2614 48.5913 35.239 48.4822L35.0612 47.6174ZM34.7863 46.2742L34.3559 44.1858L33.1286 46.2742H34.7863Z" fill="#0B8041"/>
<path d="M38.5236 48.8048C38.2766 48.7397 38.0352 48.655 37.8016 48.5513C37.6864 48.4977 37.5971 48.4002 37.5534 48.2805C37.5097 48.1607 37.5152 48.0284 37.5685 47.9127C37.5725 47.9044 37.5765 47.8962 37.5806 47.8881L37.8447 47.3848C37.9042 47.2731 38.0047 47.1892 38.1248 47.1508C38.2449 47.1124 38.3752 47.1226 38.488 47.1792C38.6879 47.2769 38.8956 47.3574 39.109 47.4199C39.4658 47.526 39.836 47.5803 40.2082 47.5811C40.4865 47.5951 40.7642 47.543 41.0187 47.4291C41.1023 47.3953 41.1742 47.3377 41.2255 47.2633C41.2768 47.1888 41.3053 47.101 41.3073 47.0105C41.3045 46.9312 41.2781 46.8547 41.2315 46.7907C41.1849 46.7267 41.1202 46.6783 41.0459 46.6516C40.7845 46.5353 40.5132 46.4429 40.2353 46.3755C39.8835 46.2859 39.5379 46.1737 39.2005 46.0396C38.9257 45.9262 38.6821 45.748 38.4906 45.5199C38.2831 45.2601 38.1772 44.9332 38.1928 44.6005C38.1845 44.1671 38.3163 43.7426 38.5684 43.3907C38.8426 43.0259 39.2142 42.7467 39.6401 42.5856C40.16 42.3853 40.7137 42.2884 41.2704 42.3003C41.7019 42.2974 42.1322 42.3453 42.5526 42.4431C42.7472 42.489 42.938 42.5493 43.1236 42.6237C43.2409 42.6727 43.3341 42.7665 43.3825 42.8845C43.431 43.0024 43.4309 43.1349 43.3822 43.2528C43.378 43.2626 43.3735 43.2725 43.3688 43.2823L43.1364 43.759C43.0836 43.8698 42.9904 43.9559 42.8762 43.9997C42.762 44.0434 42.6354 44.0414 42.5225 43.9941C42.3821 43.9329 42.2375 43.882 42.0898 43.8418C41.7869 43.759 41.4742 43.7172 41.1603 43.7177C40.8677 43.7029 40.5761 43.7631 40.3131 43.8927C40.2249 43.9313 40.1494 43.9941 40.0952 44.0738C40.0409 44.1535 40.01 44.247 40.0062 44.3435C40.0082 44.4246 40.0347 44.5032 40.0821 44.569C40.1296 44.6347 40.1957 44.6844 40.2719 44.7115C40.5379 44.8281 40.8138 44.9205 41.0962 44.9876C41.4464 45.0715 41.7906 45.1792 42.1264 45.3097C42.397 45.4195 42.6374 45.593 42.8272 45.8157C43.0312 46.0666 43.136 46.3844 43.1213 46.7081C43.1286 47.1393 42.9951 47.561 42.7412 47.9088C42.4634 48.2739 42.0888 48.5529 41.6603 48.7138C41.1418 48.9133 40.5897 49.0102 40.0346 48.9991C39.5246 49.0015 39.0165 48.9361 38.5236 48.8048Z" fill="#0B8041"/>
<path d="M45.832 43.8729H44.452C44.3807 43.8728 44.3102 43.8569 44.2457 43.8262C44.1813 43.7954 44.1244 43.7507 44.0792 43.6951C44.0341 43.6396 44.0018 43.5747 43.9847 43.5051C43.9676 43.4355 43.9661 43.363 43.9804 43.2927L44.0784 42.8153C44.1006 42.7061 44.1596 42.6079 44.2456 42.5373C44.3315 42.4668 44.4391 42.4283 44.5501 42.4282H49.3103C49.3816 42.4282 49.4521 42.4442 49.5166 42.4749C49.581 42.5057 49.6379 42.5504 49.6831 42.6059C49.7282 42.6615 49.7605 42.7264 49.7776 42.796C49.7947 42.8656 49.7962 42.9381 49.7819 43.0084L49.6839 43.4858C49.6617 43.595 49.6027 43.6932 49.5167 43.7638C49.4308 43.8343 49.3232 43.8728 49.2122 43.8729H47.6453L46.7246 48.4803C46.7027 48.5898 46.6437 48.6884 46.5577 48.7592C46.4716 48.83 46.3639 48.8687 46.2526 48.8687H45.4211C45.3499 48.8687 45.2795 48.8528 45.2151 48.8221C45.1507 48.7915 45.0939 48.7469 45.0487 48.6915C45.0036 48.6361 44.9712 48.5714 44.954 48.5019C44.9368 48.4325 44.9351 48.36 44.9492 48.2898L45.832 43.8729Z" fill="#0B8041"/>
<path d="M30.9078 43.4492L30.9967 43.0086C31.0109 42.9384 31.0093 42.8659 30.9922 42.7964C30.975 42.7269 30.9427 42.6621 30.8976 42.6066C30.8525 42.5512 30.7956 42.5065 30.7312 42.4758C30.6668 42.4451 30.5964 42.4292 30.5251 42.4291H26.0957L26.0931 42.4429C26.0559 42.4333 26.0177 42.4282 25.9793 42.4278H22.7056C22.5827 42.4256 22.4633 42.469 22.3702 42.5496C22.277 42.6302 22.2167 42.7424 22.2007 42.8648C22.1944 42.9286 22.2008 42.993 22.2193 43.0543C22.2379 43.1156 22.2682 43.1726 22.3087 43.2221C22.3492 43.2716 22.399 43.3127 22.4553 43.3428C22.5116 43.373 22.5732 43.3918 22.6367 43.398C22.6519 43.3996 22.6673 43.4003 22.6828 43.4003H23.5829C23.6935 43.3986 23.8008 43.4378 23.8845 43.5104C23.9682 43.5831 24.0223 43.6841 24.0366 43.7943C24.0422 43.8517 24.0366 43.9097 24.02 43.965C24.0033 44.0202 23.976 44.0716 23.9396 44.1163C23.9032 44.1609 23.8584 44.1979 23.8077 44.2251C23.757 44.2524 23.7015 44.2693 23.6443 44.275C23.6304 44.2763 23.6163 44.2771 23.6022 44.2773H21.7359C21.6131 44.2751 21.4937 44.3183 21.4006 44.3988C21.3075 44.4793 21.2471 44.5913 21.2309 44.7136C21.2245 44.7774 21.2306 44.8418 21.249 44.9032C21.2674 44.9646 21.2976 45.0217 21.338 45.0714C21.3784 45.121 21.4281 45.1622 21.4843 45.1925C21.5405 45.2228 21.6021 45.2417 21.6656 45.2481C21.6815 45.2497 21.6973 45.2504 21.713 45.2504H25.5319L25.524 45.2892C25.6145 45.3294 25.6887 45.3994 25.7343 45.4877C25.7798 45.5759 25.7941 45.6771 25.7747 45.7746C25.7552 45.8721 25.7033 45.96 25.6274 46.0239C25.5516 46.0877 25.4563 46.1237 25.3573 46.1258H22.8988C22.7759 46.1236 22.6565 46.1669 22.5633 46.2475C22.4702 46.3281 22.4099 46.4403 22.3938 46.5628C22.3874 46.6265 22.3936 46.691 22.4119 46.7523C22.4303 46.8137 22.4606 46.8709 22.5009 46.9205C22.5413 46.9701 22.591 47.0113 22.6472 47.0416C22.7034 47.072 22.765 47.0909 22.8285 47.0973C22.8444 47.0988 22.8602 47.0996 22.8759 47.0996H24.4968C24.597 47.0978 24.6945 47.1332 24.7705 47.1989C24.8465 47.2647 24.8958 47.3562 24.9089 47.4561C24.9141 47.5082 24.909 47.5608 24.894 47.6109C24.8789 47.6611 24.8542 47.7077 24.8212 47.7482C24.7882 47.7888 24.7476 47.8223 24.7017 47.8471C24.6558 47.8719 24.6055 47.8873 24.5536 47.8925C24.5414 47.8938 24.5291 47.8945 24.5167 47.8945H21.2518C21.1289 47.8923 21.0095 47.9356 20.9164 48.0162C20.8232 48.0968 20.7629 48.209 20.7468 48.3315C20.7404 48.3952 20.7466 48.4597 20.765 48.521C20.7833 48.5824 20.8136 48.6396 20.8539 48.6892C20.8943 48.7388 20.944 48.78 21.0002 48.8103C21.0565 48.8407 21.1181 48.8596 21.1816 48.866C21.1975 48.8675 21.2133 48.8683 21.2289 48.8683H26.2297C26.341 48.8683 26.4488 48.8295 26.5348 48.7586C26.6209 48.6878 26.6798 48.5891 26.7017 48.4795L27.0638 46.66H29.4916C29.6026 46.6599 29.7102 46.6213 29.7962 46.5507C29.8822 46.4801 29.9412 46.3818 29.9633 46.2725L30.0522 45.8319C30.0663 45.7617 30.0647 45.6892 30.0476 45.6197C30.0304 45.5502 29.9981 45.4854 29.953 45.4299C29.9079 45.3745 29.851 45.3298 29.7866 45.2991C29.7222 45.2684 29.6518 45.2524 29.5805 45.2524H27.3406L27.6247 43.8354H30.4355C30.5465 43.8355 30.6541 43.7972 30.7402 43.7268C30.8262 43.6565 30.8855 43.5584 30.9078 43.4492ZM25.8872 43.4706V43.4003H25.8996L25.8872 43.4706Z" fill="#0B8041"/>
</svg>
