<svg width="68" height="68" viewBox="0 0 68 68" fill="none" xmlns="http://www.w3.org/2000/svg">
<path d="M0 18C0 8.05888 8.05888 0 18 0H50C59.9411 0 68 8.05888 68 18V50C68 59.9411 59.9411 68 50 68H18C8.05888 68 0 59.9411 0 50V18Z" fill="white"/>
<path d="M49 52L49 56C49 56.5523 49.4477 57 50 57L54 57C54.5523 57 55 56.5523 55 56L55 52C55 51.4477 54.5523 51 54 51L50 51C49.4477 51 49 51.4477 49 52Z" fill="#6D6E71" fill-opacity="0.7"/>
<path d="M47 61C46.4477 61 46 60.5523 46 60V60C46 59.4477 46.4477 59 47 59L59 59L59 60C59 60.5523 58.5523 61 58 61L47 61Z" fill="#6D6E71" fill-opacity="0.7"/>
<path d="M57 49C57 48.4477 57.4477 48 58 48V48C58.5523 48 59 48.4477 59 49V59H57V49Z" fill="#6D6E71" fill-opacity="0.7"/>
<path d="M18 17L18 13C18 12.4477 17.5523 12 17 12L13 12C12.4477 12 12 12.4477 12 13L12 17C12 17.5523 12.4477 18 13 18L17 18C17.5523 18 18 17.5523 18 17Z" fill="#6D6E71" fill-opacity="0.7"/>
<path d="M20 8C20.5523 8 21 8.44772 21 9V9C21 9.55228 20.5523 10 20 10L8 10L8 9C8 8.44771 8.44772 8 9 8L20 8Z" fill="#6D6E71" fill-opacity="0.7"/>
<path d="M10 20C10 20.5523 9.55228 21 9 21V21C8.44772 21 8 20.5523 8 20L8 10L10 10L10 20Z" fill="#6D6E71" fill-opacity="0.7"/>
<path fill-rule="evenodd" clip-rule="evenodd" d="M43.5325 38.1943H46.0339L49.5128 26.834H47.0113L43.5325 38.1943ZM29.4219 40.9217C29.4117 40.9945 29.4066 41.0388 29.4064 41.0549L29.3826 42.0805H29.7206L29.7524 39.9159L28.7604 41.2252C28.7508 41.2385 28.7366 41.2573 28.7179 41.282C28.6476 41.3737 28.5941 41.4492 28.557 41.5088C28.546 41.438 28.5365 41.3784 28.5285 41.3302C28.5205 41.282 28.5138 41.2474 28.5093 41.2266L28.1956 39.9159L27.0937 42.0805H27.4284L27.9392 41.0578C27.9663 41.0059 27.9894 40.9559 28.0087 40.9082C28.028 40.8603 28.0439 40.8148 28.0563 40.7712C28.0584 40.8139 28.0627 40.8569 28.0689 40.9004C28.0751 40.9438 28.0845 40.9887 28.0967 41.0352L28.3833 42.1642L29.2619 41.0578C29.3004 41.0086 29.3342 40.9604 29.3636 40.9131C29.3929 40.8659 29.4185 40.8186 29.4402 40.7712C29.4357 40.8109 29.4296 40.8611 29.4219 40.9217ZM11.1801 42.0818L11.7516 39.923L12.8376 41.1925C12.8667 41.2283 12.896 41.2666 12.9249 41.3073C12.9539 41.348 12.9834 41.3938 13.0138 41.4449L13.395 40.0053H13.7314L13.1602 42.1624L12.0514 40.8703C12.0217 40.8355 11.9941 40.7986 11.9683 40.7598C11.9422 40.721 11.9187 40.6803 11.8972 40.6378L11.5149 42.0818H11.1801ZM9.3905 40.0044H9.74982L9.41592 41.2654C9.36637 41.4525 9.37571 41.5933 9.4442 41.6873C9.51243 41.7814 9.63943 41.8284 9.82505 41.8284C10.0095 41.8284 10.1608 41.7814 10.2789 41.6873C10.3972 41.5933 10.4812 41.4525 10.5307 41.2654L10.8645 40.0044H11.2285L10.8864 41.2966C10.8121 41.5774 10.6796 41.7876 10.49 41.9269C10.3002 42.0665 10.0514 42.1362 9.74359 42.1362C9.43551 42.1362 9.2242 42.0666 9.10914 41.9276C8.99395 41.7888 8.97385 41.5783 9.04843 41.2966L9.3905 40.0044ZM14.2515 40.0054L13.7017 42.0819H14.0656L14.6152 40.0054H14.2515ZM14.5886 42.0819L15.1384 40.0054H16.3875L16.3117 40.2918H15.4263L15.2892 40.8095H16.1745L16.0962 41.1059H15.2107L14.9525 42.0819H14.5886ZM16.7884 40.0054L16.2386 42.0819H16.6025L17.1521 40.0054H16.7884ZM17.1255 42.0819L17.6752 40.0054H18.9244L18.8485 40.2918H17.9632L17.8253 40.8123H18.7106L18.6323 41.1088H17.747L17.5693 41.7797H18.4546L18.3747 42.0819H17.1255ZM19.5425 41.7768H19.2367L19.6257 40.3074H19.7572H19.8888C20.0763 40.3074 20.2112 40.3178 20.2941 40.3385C20.3769 40.3593 20.4432 40.3945 20.4934 40.4436C20.5602 40.5108 20.6014 40.5942 20.6174 40.6941C20.6332 40.7937 20.6236 40.9096 20.5887 41.042C20.5537 41.1744 20.5017 41.2906 20.4331 41.3903C20.3643 41.4902 20.2788 41.5737 20.1765 41.6406C20.1011 41.6898 20.0189 41.7249 19.9292 41.7456C19.8396 41.7664 19.7107 41.7768 19.5425 41.7768ZM19.3419 40.0052L18.7921 42.0819H19.2827H19.3807C19.6448 42.0819 19.843 42.0669 19.9759 42.0372C20.1085 42.0073 20.2333 41.9574 20.3496 41.8874C20.5035 41.7948 20.6328 41.6773 20.7371 41.535C20.8417 41.3927 20.9183 41.2293 20.9671 41.0449C21.0159 40.8605 21.026 40.6964 20.9973 40.5526C20.9685 40.4091 20.9016 40.2913 20.7964 40.1996C20.7171 40.1297 20.6163 40.0797 20.4944 40.0498C20.3722 40.02 20.1517 40.0052 19.8326 40.0052H19.3419ZM22.7388 40.8734H22.8322C23.0339 40.8734 23.1739 40.8529 23.252 40.8123C23.3302 40.7717 23.3828 40.6998 23.41 40.5967C23.4393 40.4861 23.4241 40.408 23.3642 40.3627C23.3043 40.3174 23.1782 40.2945 22.9856 40.2945H22.8922L22.7388 40.8734ZM22.6427 41.1498L22.396 42.0819H22.0551L22.605 40.0054H23.1554C23.3184 40.0054 23.4363 40.0136 23.509 40.0301C23.5814 40.0465 23.6412 40.0739 23.6884 40.1117C23.7458 40.1599 23.7836 40.2249 23.8017 40.3067C23.8198 40.3885 23.8159 40.4786 23.7899 40.5768C23.7637 40.6752 23.7199 40.766 23.6581 40.8493C23.5964 40.9324 23.524 40.9978 23.4413 41.0449C23.3741 41.0828 23.3 41.1098 23.2188 41.1257C23.1375 41.1419 23.0154 41.1498 22.8523 41.1498H22.7806H22.6427ZM24.8631 41.2664H24.2393L24.5939 40.7925C24.617 40.7594 24.6405 40.7233 24.6646 40.6841C24.6889 40.6448 24.7131 40.6025 24.7372 40.5571C24.7389 40.6053 24.7415 40.6491 24.7453 40.6883C24.7493 40.7276 24.754 40.7624 24.7589 40.7925L24.8631 41.2664ZM24.917 41.5472L25.0295 42.0819H25.4132L24.902 39.9231L23.2467 42.0819H23.6287L24.0302 41.5472H24.917ZM25.9347 42.0819L26.1861 41.1315L25.7306 40.0054H26.1128L26.3956 40.7103C26.4021 40.7283 26.4099 40.7519 26.4188 40.7812C26.4279 40.8106 26.4367 40.8421 26.4451 40.8762C26.4679 40.8432 26.4914 40.8117 26.5148 40.7825C26.5383 40.7532 26.5621 40.7263 26.5861 40.7017L27.2519 40.0054H27.6159L26.547 41.1315L26.2955 42.0819H25.9347ZM30.0112 42.0819L30.5611 40.0054H31.8103L31.7344 40.2918H30.8489L30.7112 40.8123H31.5965L31.5181 41.1088H30.6327L30.4551 41.7797H31.3404L31.2602 42.0819H30.0112ZM32.2494 39.923L31.6778 42.0818H32.0126L32.3949 40.6378C32.4164 40.6803 32.4399 40.721 32.466 40.7598C32.4918 40.7986 32.5194 40.8355 32.5491 40.8703L33.658 42.1624L34.2292 40.0053H33.8928L33.5115 41.4449C33.4812 41.3938 33.4516 41.348 33.4227 41.3073C33.3937 41.2666 33.3644 41.2283 33.3354 41.1925L32.2494 39.923ZM35.3902 40.2918L34.9164 42.0819H34.5525L35.0263 40.2918H34.4315L34.5074 40.0054H36.0578L35.982 40.2918H35.3902ZM36.0915 41.5406L35.768 41.6652C35.7657 41.8167 35.8147 41.9329 35.9151 42.0142C36.0152 42.0956 36.1606 42.1362 36.3515 42.1362C36.5786 42.1362 36.7745 42.0782 36.9387 41.9625C37.1029 41.8467 37.211 41.6905 37.263 41.4936C37.2989 41.3585 37.2874 41.2458 37.2287 41.1554C37.1702 41.0651 37.0426 40.9725 36.8463 40.8781L36.8059 40.8582C36.5816 40.7504 36.486 40.6341 36.5189 40.5093C36.5401 40.4298 36.5859 40.3665 36.6557 40.3191C36.7258 40.2721 36.8099 40.2482 36.9077 40.2482C36.9768 40.2482 37.0344 40.2634 37.08 40.2936C37.1254 40.324 37.1619 40.3718 37.1897 40.437L37.51 40.3008C37.4965 40.1902 37.442 40.1054 37.3465 40.0461C37.2512 39.987 37.1208 39.9575 36.9557 39.9575C36.7548 39.9575 36.5786 40.01 36.427 40.115C36.2753 40.22 36.177 40.3571 36.1322 40.5263C36.0977 40.6568 36.1097 40.7671 36.1677 40.8575C36.2258 40.9478 36.3635 41.0488 36.5808 41.1603C36.5951 41.167 36.6158 41.1774 36.6428 41.1916C36.8354 41.287 36.916 41.3957 36.8837 41.5178C36.8589 41.6114 36.8072 41.6861 36.7287 41.7418C36.6503 41.7977 36.5569 41.8256 36.449 41.8256C36.3346 41.8256 36.2473 41.8013 36.1868 41.7525C36.1264 41.7038 36.0947 41.6331 36.0915 41.5406ZM38.4562 42.0819L39.0059 40.0054H39.3698L38.82 42.0819H38.4562ZM39.9146 39.923L39.3431 42.0818H39.6779L40.06 40.6378C40.0816 40.6803 40.1052 40.721 40.1311 40.7598C40.1569 40.7986 40.1847 40.8355 40.2144 40.8703L41.3232 42.1624L41.8944 40.0053H41.558L41.1768 41.4449C41.1464 41.3938 41.1168 41.348 41.0879 41.3073C41.059 41.2666 41.0297 41.2283 41.0006 41.1925L39.9146 39.923ZM43.0555 40.2918L42.5815 42.0819H42.2178L42.6915 40.2918H42.0967L42.1726 40.0054H43.723L43.6473 40.2918H43.0555ZM44.0014 40.0054L43.4517 42.0819H44.7008L44.7809 41.7797H43.8956L44.0731 41.1088H44.9585L45.0369 40.8123H44.1516L44.2895 40.2918H45.1748L45.2506 40.0054H44.0014ZM45.7976 40.8903H45.8635C46.056 40.8903 46.1895 40.8697 46.2637 40.828C46.3379 40.7864 46.3893 40.7127 46.417 40.6067C46.4474 40.4924 46.4349 40.4117 46.3793 40.365C46.3242 40.3179 46.2047 40.2946 46.0213 40.2946H45.9554L45.7976 40.8903ZM45.7053 41.1527L45.4592 42.0819H45.1183L45.6682 40.0054H46.1758C46.3245 40.0054 46.4377 40.0143 46.5148 40.0323C46.5921 40.0503 46.6544 40.08 46.7015 40.1217C46.7575 40.1717 46.7939 40.2367 46.8107 40.3161C46.8272 40.3954 46.8229 40.4824 46.798 40.5768C46.754 40.7432 46.6762 40.8735 46.5646 40.9677C46.4531 41.0617 46.3101 41.1183 46.1359 41.1371L46.6566 42.0819H46.2452L45.7465 41.1527H45.7053ZM47.4221 40.0054L46.8724 42.0819H47.2362L47.4946 41.1059H48.3799L48.4584 40.8095H47.573L47.7101 40.2918H48.5955L48.6713 40.0054H47.4221ZM49.0929 41.2664H49.7168L49.6126 40.7925C49.6076 40.7624 49.603 40.7276 49.599 40.6883C49.5953 40.6491 49.5927 40.6053 49.591 40.5571C49.5667 40.6025 49.5425 40.6448 49.5183 40.6841C49.4942 40.7233 49.4706 40.7594 49.4475 40.7925L49.0929 41.2664ZM49.8832 42.0819L49.7708 41.5472H48.8839L48.4824 42.0819H48.1003L49.7556 39.9231L50.2669 42.0819H49.8832ZM52.3577 40.3264C52.4618 40.3671 52.5544 40.4281 52.6357 40.5093L52.746 40.1691C52.6527 40.0969 52.5513 40.0433 52.4414 40.008C52.3315 39.9725 52.2109 39.9547 52.0794 39.9547C51.9122 39.9547 51.7496 39.9811 51.592 40.0334C51.4345 40.086 51.2867 40.1632 51.1484 40.2654C51.0106 40.3665 50.8945 40.484 50.8006 40.6178C50.7066 40.7517 50.6392 40.8946 50.5989 41.0468C50.5587 41.1991 50.55 41.3427 50.5731 41.4773C50.5958 41.6122 50.6488 41.7292 50.7316 41.8284C50.8147 41.9297 50.9223 42.0062 51.0538 42.0582C51.1852 42.1102 51.3367 42.1362 51.508 42.1362C51.6425 42.1362 51.7715 42.1201 51.8953 42.088C52.0189 42.0559 52.1384 42.0071 52.2534 41.9419L52.3545 41.5603C52.2213 41.6484 52.0888 41.714 51.9576 41.7576C51.8263 41.8011 51.6945 41.8229 51.5618 41.8229C51.3347 41.8229 51.1655 41.7499 51.0547 41.6043C50.9439 41.4587 50.9181 41.274 50.9774 41.0498C51.0388 40.818 51.1654 40.6294 51.3575 40.4838C51.5493 40.3382 51.7678 40.2654 52.0123 40.2654C52.1388 40.2654 52.254 40.2859 52.3577 40.3264ZM52.6708 42.0819L53.2205 40.0054H54.4697L54.3938 40.2918H53.5086L53.3708 40.8123H54.2561L54.1776 41.1088H53.2923L53.1147 41.7797H54L53.92 42.0819H52.6708ZM44.7354 27.1937C44.562 26.9775 44.2945 26.8685 43.9312 26.8685H30.1764L29.4951 29.0935H31.9979V29.0922H42.0081L41.2799 31.4699H31.2694L31.2703 31.465H28.7686L26.6922 38.2429H29.1952L30.5887 33.6937H41.8412C42.1926 33.6937 42.5233 33.5853 42.8344 33.3685C43.1448 33.1515 43.3491 32.884 43.4471 32.5645L44.8404 28.0143C44.9421 27.6841 44.9069 27.4101 44.7354 27.1937ZM24.127 38.2467C24.6434 38.2467 25.0963 37.9355 25.2345 37.4857L28.4968 26.8677H25.9936L23.1809 36.0224H13.166L15.9786 26.8677H13.4749L10.3259 37.1175C10.2277 37.4369 10.2646 37.705 10.4363 37.9218C10.6082 38.1383 10.8696 38.2467 11.2212 38.2467H24.127Z" fill="#6D6E71"/>
<path d="M53.8322 26.8559L56.9992 32.5508L50.3418 38.2441L53.8322 26.8559Z" fill="#27803B"/>
<path d="M51.6122 26.8559L54.7768 32.5508L48.1167 38.2441L51.6122 26.8559Z" fill="#E9661C"/>
<path d="M11.3613 56.571H12.742L13.2406 57.1974L14.0843 58.1562L15.1838 59.4858H13.6113L12.8315 58.5781L12.3074 57.8239L11.3613 56.571ZM15.171 55.7273C15.171 56.456 15.0293 57.0707 14.7459 57.5714C14.4625 58.07 14.0801 58.4482 13.5985 58.706C13.117 58.9616 12.5801 59.0895 11.9877 59.0895C11.3912 59.0895 10.8521 58.9606 10.3706 58.7028C9.89116 58.4428 9.50977 58.0636 9.22638 57.565C8.94513 57.0643 8.80451 56.4517 8.80451 55.7273C8.80451 54.9986 8.94513 54.3849 9.22638 53.8864C9.50977 53.3857 9.89116 53.0075 10.3706 52.7518C10.8521 52.494 11.3912 52.3651 11.9877 52.3651C12.5801 52.3651 13.117 52.494 13.5985 52.7518C14.0801 53.0075 14.4625 53.3857 14.7459 53.8864C15.0293 54.3849 15.171 54.9986 15.171 55.7273ZM13.3429 55.7273C13.3429 55.3352 13.2907 55.005 13.1863 54.7365C13.084 54.4659 12.9316 54.2614 12.7292 54.1229C12.5289 53.9822 12.2818 53.9119 11.9877 53.9119C11.6937 53.9119 11.4455 53.9822 11.2431 54.1229C11.0428 54.2614 10.8904 54.4659 10.786 54.7365C10.6838 55.005 10.6326 55.3352 10.6326 55.7273C10.6326 56.1193 10.6838 56.4506 10.786 56.7212C10.8904 56.9897 11.0428 57.1942 11.2431 57.3349C11.4455 57.4734 11.6937 57.5426 11.9877 57.5426C12.2818 57.5426 12.5289 57.4734 12.7292 57.3349C12.9316 57.1942 13.084 56.9897 13.1863 56.7212C13.2907 56.4506 13.3429 56.1193 13.3429 55.7273ZM16.002 59V52.4545H18.8272C19.313 52.4545 19.7381 52.543 20.1025 52.7198C20.4668 52.8967 20.7502 53.1513 20.9526 53.4837C21.155 53.8161 21.2562 54.2145 21.2562 54.679C21.2562 55.1477 21.1518 55.543 20.943 55.8647C20.7363 56.1864 20.4455 56.4293 20.0705 56.5934C19.6976 56.7575 19.2619 56.8395 18.7633 56.8395H17.0758V55.4588H18.4054C18.6142 55.4588 18.7921 55.4332 18.9391 55.3821C19.0882 55.3288 19.2022 55.2447 19.2811 55.1296C19.362 55.0146 19.4025 54.8643 19.4025 54.679C19.4025 54.4915 19.362 54.3391 19.2811 54.2219C19.2022 54.1026 19.0882 54.0153 18.9391 53.9599C18.7921 53.9023 18.6142 53.8736 18.4054 53.8736H17.7789V59H16.002ZM19.8372 55.9957L21.4735 59H19.5431L17.9451 55.9957H19.8372Z" fill="#6D6E71" fill-opacity="0.7"/>
</svg>
