<svg xmlns="http://www.w3.org/2000/svg" width="25" height="24.963" data-name="001-volleyball" viewBox="0 0 25 24.963" class="h-[20px] w-[20px] group-hover:text-black-800"><path fill="currentColor" d="M17.607 18.961a14.155 14.155 0 0 1-8.063 2.519q-.476 0-.955-.032a14.2 14.2 0 0 1-6.4-2.014 12.8 12.8 0 0 0 1.512 1.821 12.682 12.682 0 0 0 14.914 2.225 12.794 12.794 0 0 0-1.008-4.519Z" data-name="Path 109"></path><path fill="currentColor" d="M14.832.165a12.71 12.71 0 0 0-9.057 13.482 12.778 12.778 0 0 0 6.014-1.51 14.178 14.178 0 0 1 5.924-11.073 12.522 12.522 0 0 0-2.881-.899Z" data-name="Path 110"></path><path fill="currentColor" d="M21.016 11.871a12.678 12.678 0 0 0-6.2-5.986 12.692 12.692 0 0 0-1.724 6 14.178 14.178 0 0 1 6.631 10.7 12.818 12.818 0 0 0 1.566-1.333q.341-.341.652-.7a12.681 12.681 0 0 0-.925-8.681Z" data-name="Path 111"></path><path fill="currentColor" d="M4.416 13.556A14.2 14.2 0 0 1 11.574 0 12.661 12.661 0 0 0 0 12.181a12.794 12.794 0 0 0 4.416 1.375Z" data-name="Path 112"></path><path fill="currentColor" d="M12.611 13.224A14.177 14.177 0 0 1 5.935 14.9a13.326 13.326 0 0 1-5.884-1.273 12.6 12.6 0 0 0 .612 2.846 12.712 12.712 0 0 0 16.276 1.228 12.69 12.69 0 0 0-4.328-4.477Z" data-name="Path 113"></path><path fill="currentColor" d="M15.653 4.951a14.2 14.2 0 0 1 8.154 13.051 12.686 12.686 0 0 0-2.513-14.339 12.759 12.759 0 0 0-2.274-1.808 12.794 12.794 0 0 0-3.367 3.096Z" data-name="Path 114"></path></svg>